G04 #@! TF.GenerationSoftware,KiCad,Pcbnew,(5.1.9)-1*
G04 #@! TF.CreationDate,2021-04-17T22:02:46-05:00*
G04 #@! TF.ProjectId,try3,74727933-2e6b-4696-9361-645f70636258,rev?*
G04 #@! TF.SameCoordinates,Original*
G04 #@! TF.FileFunction,Legend,Bot*
G04 #@! TF.FilePolarity,Positive*
%FSLAX46Y46*%
G04 Gerber Fmt 4.6, Leading zero omitted, Abs format (unit mm)*
G04 Created by KiCad (PCBNEW (5.1.9)-1) date 2021-04-17 22:02:46*
%MOMM*%
%LPD*%
G01*
G04 APERTURE LIST*
%ADD10C,0.200000*%
%ADD11C,0.150000*%
%ADD12C,0.650000*%
%ADD13O,0.900000X2.400000*%
%ADD14O,0.900000X1.700000*%
%ADD15C,1.700000*%
%ADD16C,4.000000*%
%ADD17C,2.200000*%
%ADD18C,3.050000*%
%ADD19C,1.600000*%
%ADD20R,1.600000X1.600000*%
%ADD21R,1.200000X1.200000*%
G04 APERTURE END LIST*
D10*
G04 #@! TO.C,D92*
X400191400Y8305650D02*
X400191400Y5905650D01*
X400366400Y8305650D02*
X400366400Y5905650D01*
X400541400Y8305650D02*
X400541400Y5905650D01*
X400941400Y5905650D02*
X400941400Y8305650D01*
X400716400Y8305650D02*
X400716400Y5905650D01*
X400841400Y8305650D02*
X400841400Y5905650D01*
X400916400Y8305650D02*
X395116400Y8305650D01*
X395116400Y8305650D02*
X395116400Y5905650D01*
X395116400Y5905650D02*
X400916400Y5905650D01*
G04 #@! TO.C,D101*
X428614000Y8305650D02*
X428614000Y5905650D01*
X428789000Y8305650D02*
X428789000Y5905650D01*
X428964000Y8305650D02*
X428964000Y5905650D01*
X429364000Y5905650D02*
X429364000Y8305650D01*
X429139000Y8305650D02*
X429139000Y5905650D01*
X429264000Y8305650D02*
X429264000Y5905650D01*
X429339000Y8305650D02*
X423539000Y8305650D01*
X423539000Y8305650D02*
X423539000Y5905650D01*
X423539000Y5905650D02*
X429339000Y5905650D01*
G04 #@! TO.C,D91*
X390717200Y27254050D02*
X390717200Y24854050D01*
X390892200Y27254050D02*
X390892200Y24854050D01*
X391067200Y27254050D02*
X391067200Y24854050D01*
X391467200Y24854050D02*
X391467200Y27254050D01*
X391242200Y27254050D02*
X391242200Y24854050D01*
X391367200Y27254050D02*
X391367200Y24854050D01*
X391442200Y27254050D02*
X385642200Y27254050D01*
X385642200Y27254050D02*
X385642200Y24854050D01*
X385642200Y24854050D02*
X391442200Y24854050D01*
G04 #@! TO.C,D96*
X409665600Y27254050D02*
X409665600Y24854050D01*
X409840600Y27254050D02*
X409840600Y24854050D01*
X410015600Y27254050D02*
X410015600Y24854050D01*
X410415600Y24854050D02*
X410415600Y27254050D01*
X410190600Y27254050D02*
X410190600Y24854050D01*
X410315600Y27254050D02*
X410315600Y24854050D01*
X410390600Y27254050D02*
X404590600Y27254050D01*
X404590600Y27254050D02*
X404590600Y24854050D01*
X404590600Y24854050D02*
X410390600Y24854050D01*
G04 #@! TO.C,D100*
X428614000Y27254050D02*
X428614000Y24854050D01*
X428789000Y27254050D02*
X428789000Y24854050D01*
X428964000Y27254050D02*
X428964000Y24854050D01*
X429364000Y24854050D02*
X429364000Y27254050D01*
X429139000Y27254050D02*
X429139000Y24854050D01*
X429264000Y27254050D02*
X429264000Y24854050D01*
X429339000Y27254050D02*
X423539000Y27254050D01*
X423539000Y27254050D02*
X423539000Y24854050D01*
X423539000Y24854050D02*
X429339000Y24854050D01*
G04 #@! TO.C,D99*
X428614000Y46202450D02*
X428614000Y43802450D01*
X428789000Y46202450D02*
X428789000Y43802450D01*
X428964000Y46202450D02*
X428964000Y43802450D01*
X429364000Y43802450D02*
X429364000Y46202450D01*
X429139000Y46202450D02*
X429139000Y43802450D01*
X429264000Y46202450D02*
X429264000Y43802450D01*
X429339000Y46202450D02*
X423539000Y46202450D01*
X423539000Y46202450D02*
X423539000Y43802450D01*
X423539000Y43802450D02*
X429339000Y43802450D01*
G04 #@! TO.C,D98*
X428614000Y65150850D02*
X428614000Y62750850D01*
X428789000Y65150850D02*
X428789000Y62750850D01*
X428964000Y65150850D02*
X428964000Y62750850D01*
X429364000Y62750850D02*
X429364000Y65150850D01*
X429139000Y65150850D02*
X429139000Y62750850D01*
X429264000Y65150850D02*
X429264000Y62750850D01*
X429339000Y65150850D02*
X423539000Y65150850D01*
X423539000Y65150850D02*
X423539000Y62750850D01*
X423539000Y62750850D02*
X429339000Y62750850D01*
G04 #@! TO.C,D97*
X428614000Y84099250D02*
X428614000Y81699250D01*
X428789000Y84099250D02*
X428789000Y81699250D01*
X428964000Y84099250D02*
X428964000Y81699250D01*
X429364000Y81699250D02*
X429364000Y84099250D01*
X429139000Y84099250D02*
X429139000Y81699250D01*
X429264000Y84099250D02*
X429264000Y81699250D01*
X429339000Y84099250D02*
X423539000Y84099250D01*
X423539000Y84099250D02*
X423539000Y81699250D01*
X423539000Y81699250D02*
X429339000Y81699250D01*
G04 #@! TO.C,D86*
X364663150Y65150850D02*
X364663150Y62750850D01*
X364838150Y65150850D02*
X364838150Y62750850D01*
X365013150Y65150850D02*
X365013150Y62750850D01*
X365413150Y62750850D02*
X365413150Y65150850D01*
X365188150Y65150850D02*
X365188150Y62750850D01*
X365313150Y65150850D02*
X365313150Y62750850D01*
X365388150Y65150850D02*
X359588150Y65150850D01*
X359588150Y65150850D02*
X359588150Y62750850D01*
X359588150Y62750850D02*
X365388150Y62750850D01*
G04 #@! TO.C,D85*
X364663150Y84099250D02*
X364663150Y81699250D01*
X364838150Y84099250D02*
X364838150Y81699250D01*
X365013150Y84099250D02*
X365013150Y81699250D01*
X365413150Y81699250D02*
X365413150Y84099250D01*
X365188150Y84099250D02*
X365188150Y81699250D01*
X365313150Y84099250D02*
X365313150Y81699250D01*
X365388150Y84099250D02*
X359588150Y84099250D01*
X359588150Y84099250D02*
X359588150Y81699250D01*
X359588150Y81699250D02*
X365388150Y81699250D01*
G04 #@! TO.C,D84*
X364663150Y117258950D02*
X364663150Y114858950D01*
X364838150Y117258950D02*
X364838150Y114858950D01*
X365013150Y117258950D02*
X365013150Y114858950D01*
X365413150Y114858950D02*
X365413150Y117258950D01*
X365188150Y117258950D02*
X365188150Y114858950D01*
X365313150Y117258950D02*
X365313150Y114858950D01*
X365388150Y117258950D02*
X359588150Y117258950D01*
X359588150Y117258950D02*
X359588150Y114858950D01*
X359588150Y114858950D02*
X365388150Y114858950D01*
G04 #@! TO.C,D95*
X409665600Y46202450D02*
X409665600Y43802450D01*
X409840600Y46202450D02*
X409840600Y43802450D01*
X410015600Y46202450D02*
X410015600Y43802450D01*
X410415600Y43802450D02*
X410415600Y46202450D01*
X410190600Y46202450D02*
X410190600Y43802450D01*
X410315600Y46202450D02*
X410315600Y43802450D01*
X410390600Y46202450D02*
X404590600Y46202450D01*
X404590600Y46202450D02*
X404590600Y43802450D01*
X404590600Y43802450D02*
X410390600Y43802450D01*
G04 #@! TO.C,D94*
X409665600Y65150850D02*
X409665600Y62750850D01*
X409840600Y65150850D02*
X409840600Y62750850D01*
X410015600Y65150850D02*
X410015600Y62750850D01*
X410415600Y62750850D02*
X410415600Y65150850D01*
X410190600Y65150850D02*
X410190600Y62750850D01*
X410315600Y65150850D02*
X410315600Y62750850D01*
X410390600Y65150850D02*
X404590600Y65150850D01*
X404590600Y65150850D02*
X404590600Y62750850D01*
X404590600Y62750850D02*
X410390600Y62750850D01*
G04 #@! TO.C,D93*
X409665600Y84099250D02*
X409665600Y81699250D01*
X409840600Y84099250D02*
X409840600Y81699250D01*
X410015600Y84099250D02*
X410015600Y81699250D01*
X410415600Y81699250D02*
X410415600Y84099250D01*
X410190600Y84099250D02*
X410190600Y81699250D01*
X410315600Y84099250D02*
X410315600Y81699250D01*
X410390600Y84099250D02*
X404590600Y84099250D01*
X404590600Y84099250D02*
X404590600Y81699250D01*
X404590600Y81699250D02*
X410390600Y81699250D01*
G04 #@! TO.C,D81*
X345714750Y65150850D02*
X345714750Y62750850D01*
X345889750Y65150850D02*
X345889750Y62750850D01*
X346064750Y65150850D02*
X346064750Y62750850D01*
X346464750Y62750850D02*
X346464750Y65150850D01*
X346239750Y65150850D02*
X346239750Y62750850D01*
X346364750Y65150850D02*
X346364750Y62750850D01*
X346439750Y65150850D02*
X340639750Y65150850D01*
X340639750Y65150850D02*
X340639750Y62750850D01*
X340639750Y62750850D02*
X346439750Y62750850D01*
G04 #@! TO.C,D80*
X345714750Y84099250D02*
X345714750Y81699250D01*
X345889750Y84099250D02*
X345889750Y81699250D01*
X346064750Y84099250D02*
X346064750Y81699250D01*
X346464750Y81699250D02*
X346464750Y84099250D01*
X346239750Y84099250D02*
X346239750Y81699250D01*
X346364750Y84099250D02*
X346364750Y81699250D01*
X346439750Y84099250D02*
X340639750Y84099250D01*
X340639750Y84099250D02*
X340639750Y81699250D01*
X340639750Y81699250D02*
X346439750Y81699250D01*
G04 #@! TO.C,D79*
X345714750Y117258950D02*
X345714750Y114858950D01*
X345889750Y117258950D02*
X345889750Y114858950D01*
X346064750Y117258950D02*
X346064750Y114858950D01*
X346464750Y114858950D02*
X346464750Y117258950D01*
X346239750Y117258950D02*
X346239750Y114858950D01*
X346364750Y117258950D02*
X346364750Y114858950D01*
X346439750Y117258950D02*
X340639750Y117258950D01*
X340639750Y117258950D02*
X340639750Y114858950D01*
X340639750Y114858950D02*
X346439750Y114858950D01*
G04 #@! TO.C,D90*
X390717200Y46202450D02*
X390717200Y43802450D01*
X390892200Y46202450D02*
X390892200Y43802450D01*
X391067200Y46202450D02*
X391067200Y43802450D01*
X391467200Y43802450D02*
X391467200Y46202450D01*
X391242200Y46202450D02*
X391242200Y43802450D01*
X391367200Y46202450D02*
X391367200Y43802450D01*
X391442200Y46202450D02*
X385642200Y46202450D01*
X385642200Y46202450D02*
X385642200Y43802450D01*
X385642200Y43802450D02*
X391442200Y43802450D01*
G04 #@! TO.C,D89*
X390717200Y65150850D02*
X390717200Y62750850D01*
X390892200Y65150850D02*
X390892200Y62750850D01*
X391067200Y65150850D02*
X391067200Y62750850D01*
X391467200Y62750850D02*
X391467200Y65150850D01*
X391242200Y65150850D02*
X391242200Y62750850D01*
X391367200Y65150850D02*
X391367200Y62750850D01*
X391442200Y65150850D02*
X385642200Y65150850D01*
X385642200Y65150850D02*
X385642200Y62750850D01*
X385642200Y62750850D02*
X391442200Y62750850D01*
G04 #@! TO.C,D88*
X390717200Y84099250D02*
X390717200Y81699250D01*
X390892200Y84099250D02*
X390892200Y81699250D01*
X391067200Y84099250D02*
X391067200Y81699250D01*
X391467200Y81699250D02*
X391467200Y84099250D01*
X391242200Y84099250D02*
X391242200Y81699250D01*
X391367200Y84099250D02*
X391367200Y81699250D01*
X391442200Y84099250D02*
X385642200Y84099250D01*
X385642200Y84099250D02*
X385642200Y81699250D01*
X385642200Y81699250D02*
X391442200Y81699250D01*
G04 #@! TO.C,D77*
X326766350Y65150850D02*
X326766350Y62750850D01*
X326941350Y65150850D02*
X326941350Y62750850D01*
X327116350Y65150850D02*
X327116350Y62750850D01*
X327516350Y62750850D02*
X327516350Y65150850D01*
X327291350Y65150850D02*
X327291350Y62750850D01*
X327416350Y65150850D02*
X327416350Y62750850D01*
X327491350Y65150850D02*
X321691350Y65150850D01*
X321691350Y65150850D02*
X321691350Y62750850D01*
X321691350Y62750850D02*
X327491350Y62750850D01*
G04 #@! TO.C,D76*
X326766350Y84099250D02*
X326766350Y81699250D01*
X326941350Y84099250D02*
X326941350Y81699250D01*
X327116350Y84099250D02*
X327116350Y81699250D01*
X327516350Y81699250D02*
X327516350Y84099250D01*
X327291350Y84099250D02*
X327291350Y81699250D01*
X327416350Y84099250D02*
X327416350Y81699250D01*
X327491350Y84099250D02*
X321691350Y84099250D01*
X321691350Y84099250D02*
X321691350Y81699250D01*
X321691350Y81699250D02*
X327491350Y81699250D01*
G04 #@! TO.C,D75*
X326766350Y117258950D02*
X326766350Y114858950D01*
X326941350Y117258950D02*
X326941350Y114858950D01*
X327116350Y117258950D02*
X327116350Y114858950D01*
X327516350Y114858950D02*
X327516350Y117258950D01*
X327291350Y117258950D02*
X327291350Y114858950D01*
X327416350Y117258950D02*
X327416350Y114858950D01*
X327491350Y117258950D02*
X321691350Y117258950D01*
X321691350Y117258950D02*
X321691350Y114858950D01*
X321691350Y114858950D02*
X327491350Y114858950D01*
G04 #@! TO.C,D103*
X447562400Y55676650D02*
X447562400Y53276650D01*
X447737400Y55676650D02*
X447737400Y53276650D01*
X447912400Y55676650D02*
X447912400Y53276650D01*
X448312400Y53276650D02*
X448312400Y55676650D01*
X448087400Y55676650D02*
X448087400Y53276650D01*
X448212400Y55676650D02*
X448212400Y53276650D01*
X448287400Y55676650D02*
X442487400Y55676650D01*
X442487400Y55676650D02*
X442487400Y53276650D01*
X442487400Y53276650D02*
X448287400Y53276650D01*
G04 #@! TO.C,D71*
X295975200Y65150850D02*
X295975200Y62750850D01*
X296150200Y65150850D02*
X296150200Y62750850D01*
X296325200Y65150850D02*
X296325200Y62750850D01*
X296725200Y62750850D02*
X296725200Y65150850D01*
X296500200Y65150850D02*
X296500200Y62750850D01*
X296625200Y65150850D02*
X296625200Y62750850D01*
X296700200Y65150850D02*
X290900200Y65150850D01*
X290900200Y65150850D02*
X290900200Y62750850D01*
X290900200Y62750850D02*
X296700200Y62750850D01*
G04 #@! TO.C,D70*
X291238100Y84099250D02*
X291238100Y81699250D01*
X291413100Y84099250D02*
X291413100Y81699250D01*
X291588100Y84099250D02*
X291588100Y81699250D01*
X291988100Y81699250D02*
X291988100Y84099250D01*
X291763100Y84099250D02*
X291763100Y81699250D01*
X291888100Y84099250D02*
X291888100Y81699250D01*
X291963100Y84099250D02*
X286163100Y84099250D01*
X286163100Y84099250D02*
X286163100Y81699250D01*
X286163100Y81699250D02*
X291963100Y81699250D01*
G04 #@! TO.C,D104*
X447562400Y17779850D02*
X447562400Y15379850D01*
X447737400Y17779850D02*
X447737400Y15379850D01*
X447912400Y17779850D02*
X447912400Y15379850D01*
X448312400Y15379850D02*
X448312400Y17779850D01*
X448087400Y17779850D02*
X448087400Y15379850D01*
X448212400Y17779850D02*
X448212400Y15379850D01*
X448287400Y17779850D02*
X442487400Y17779850D01*
X442487400Y17779850D02*
X442487400Y15379850D01*
X442487400Y15379850D02*
X448287400Y15379850D01*
G04 #@! TO.C,D102*
X447562400Y84099250D02*
X447562400Y81699250D01*
X447737400Y84099250D02*
X447737400Y81699250D01*
X447912400Y84099250D02*
X447912400Y81699250D01*
X448312400Y81699250D02*
X448312400Y84099250D01*
X448087400Y84099250D02*
X448087400Y81699250D01*
X448212400Y84099250D02*
X448212400Y81699250D01*
X448287400Y84099250D02*
X442487400Y84099250D01*
X442487400Y84099250D02*
X442487400Y81699250D01*
X442487400Y81699250D02*
X448287400Y81699250D01*
G04 #@! TO.C,D72*
X288869550Y46202450D02*
X288869550Y43802450D01*
X289044550Y46202450D02*
X289044550Y43802450D01*
X289219550Y46202450D02*
X289219550Y43802450D01*
X289619550Y43802450D02*
X289619550Y46202450D01*
X289394550Y46202450D02*
X289394550Y43802450D01*
X289519550Y46202450D02*
X289519550Y43802450D01*
X289594550Y46202450D02*
X283794550Y46202450D01*
X283794550Y46202450D02*
X283794550Y43802450D01*
X283794550Y43802450D02*
X289594550Y43802450D01*
G04 #@! TO.C,D68*
X272289700Y65150850D02*
X272289700Y62750850D01*
X272464700Y65150850D02*
X272464700Y62750850D01*
X272639700Y65150850D02*
X272639700Y62750850D01*
X273039700Y62750850D02*
X273039700Y65150850D01*
X272814700Y65150850D02*
X272814700Y62750850D01*
X272939700Y65150850D02*
X272939700Y62750850D01*
X273014700Y65150850D02*
X267214700Y65150850D01*
X267214700Y65150850D02*
X267214700Y62750850D01*
X267214700Y62750850D02*
X273014700Y62750850D01*
G04 #@! TO.C,D67*
X262815500Y84099250D02*
X262815500Y81699250D01*
X262990500Y84099250D02*
X262990500Y81699250D01*
X263165500Y84099250D02*
X263165500Y81699250D01*
X263565500Y81699250D02*
X263565500Y84099250D01*
X263340500Y84099250D02*
X263340500Y81699250D01*
X263465500Y84099250D02*
X263465500Y81699250D01*
X263540500Y84099250D02*
X257740500Y84099250D01*
X257740500Y84099250D02*
X257740500Y81699250D01*
X257740500Y81699250D02*
X263540500Y81699250D01*
G04 #@! TO.C,D69*
X300712300Y117258950D02*
X300712300Y114858950D01*
X300887300Y117258950D02*
X300887300Y114858950D01*
X301062300Y117258950D02*
X301062300Y114858950D01*
X301462300Y114858950D02*
X301462300Y117258950D01*
X301237300Y117258950D02*
X301237300Y114858950D01*
X301362300Y117258950D02*
X301362300Y114858950D01*
X301437300Y117258950D02*
X295637300Y117258950D01*
X295637300Y117258950D02*
X295637300Y114858950D01*
X295637300Y114858950D02*
X301437300Y114858950D01*
G04 #@! TO.C,D82*
X345714750Y27254050D02*
X345714750Y24854050D01*
X345889750Y27254050D02*
X345889750Y24854050D01*
X346064750Y27254050D02*
X346064750Y24854050D01*
X346464750Y24854050D02*
X346464750Y27254050D01*
X346239750Y27254050D02*
X346239750Y24854050D01*
X346364750Y27254050D02*
X346364750Y24854050D01*
X346439750Y27254050D02*
X340639750Y27254050D01*
X340639750Y27254050D02*
X340639750Y24854050D01*
X340639750Y24854050D02*
X346439750Y24854050D01*
G04 #@! TO.C,D73*
X284132450Y27254050D02*
X284132450Y24854050D01*
X284307450Y27254050D02*
X284307450Y24854050D01*
X284482450Y27254050D02*
X284482450Y24854050D01*
X284882450Y24854050D02*
X284882450Y27254050D01*
X284657450Y27254050D02*
X284657450Y24854050D01*
X284782450Y27254050D02*
X284782450Y24854050D01*
X284857450Y27254050D02*
X279057450Y27254050D01*
X279057450Y27254050D02*
X279057450Y24854050D01*
X279057450Y24854050D02*
X284857450Y24854050D01*
G04 #@! TO.C,D64*
X258078400Y46202450D02*
X258078400Y43802450D01*
X258253400Y46202450D02*
X258253400Y43802450D01*
X258428400Y46202450D02*
X258428400Y43802450D01*
X258828400Y43802450D02*
X258828400Y46202450D01*
X258603400Y46202450D02*
X258603400Y43802450D01*
X258728400Y46202450D02*
X258728400Y43802450D01*
X258803400Y46202450D02*
X253003400Y46202450D01*
X253003400Y46202450D02*
X253003400Y43802450D01*
X253003400Y43802450D02*
X258803400Y43802450D01*
G04 #@! TO.C,D63*
X253341300Y65150850D02*
X253341300Y62750850D01*
X253516300Y65150850D02*
X253516300Y62750850D01*
X253691300Y65150850D02*
X253691300Y62750850D01*
X254091300Y62750850D02*
X254091300Y65150850D01*
X253866300Y65150850D02*
X253866300Y62750850D01*
X253991300Y65150850D02*
X253991300Y62750850D01*
X254066300Y65150850D02*
X248266300Y65150850D01*
X248266300Y65150850D02*
X248266300Y62750850D01*
X248266300Y62750850D02*
X254066300Y62750850D01*
G04 #@! TO.C,D62*
X243867100Y84099250D02*
X243867100Y81699250D01*
X244042100Y84099250D02*
X244042100Y81699250D01*
X244217100Y84099250D02*
X244217100Y81699250D01*
X244617100Y81699250D02*
X244617100Y84099250D01*
X244392100Y84099250D02*
X244392100Y81699250D01*
X244517100Y84099250D02*
X244517100Y81699250D01*
X244592100Y84099250D02*
X238792100Y84099250D01*
X238792100Y84099250D02*
X238792100Y81699250D01*
X238792100Y81699250D02*
X244592100Y81699250D01*
G04 #@! TO.C,D66*
X281763900Y117258950D02*
X281763900Y114858950D01*
X281938900Y117258950D02*
X281938900Y114858950D01*
X282113900Y117258950D02*
X282113900Y114858950D01*
X282513900Y114858950D02*
X282513900Y117258950D01*
X282288900Y117258950D02*
X282288900Y114858950D01*
X282413900Y117258950D02*
X282413900Y114858950D01*
X282488900Y117258950D02*
X276688900Y117258950D01*
X276688900Y117258950D02*
X276688900Y114858950D01*
X276688900Y114858950D02*
X282488900Y114858950D01*
G04 #@! TO.C,D87*
X364663150Y8305650D02*
X364663150Y5905650D01*
X364838150Y8305650D02*
X364838150Y5905650D01*
X365013150Y8305650D02*
X365013150Y5905650D01*
X365413150Y5905650D02*
X365413150Y8305650D01*
X365188150Y8305650D02*
X365188150Y5905650D01*
X365313150Y8305650D02*
X365313150Y5905650D01*
X365388150Y8305650D02*
X359588150Y8305650D01*
X359588150Y8305650D02*
X359588150Y5905650D01*
X359588150Y5905650D02*
X365388150Y5905650D01*
G04 #@! TO.C,D59*
X248604200Y27254050D02*
X248604200Y24854050D01*
X248779200Y27254050D02*
X248779200Y24854050D01*
X248954200Y27254050D02*
X248954200Y24854050D01*
X249354200Y24854050D02*
X249354200Y27254050D01*
X249129200Y27254050D02*
X249129200Y24854050D01*
X249254200Y27254050D02*
X249254200Y24854050D01*
X249329200Y27254050D02*
X243529200Y27254050D01*
X243529200Y27254050D02*
X243529200Y24854050D01*
X243529200Y24854050D02*
X249329200Y24854050D01*
G04 #@! TO.C,D58*
X239130000Y46202450D02*
X239130000Y43802450D01*
X239305000Y46202450D02*
X239305000Y43802450D01*
X239480000Y46202450D02*
X239480000Y43802450D01*
X239880000Y43802450D02*
X239880000Y46202450D01*
X239655000Y46202450D02*
X239655000Y43802450D01*
X239780000Y46202450D02*
X239780000Y43802450D01*
X239855000Y46202450D02*
X234055000Y46202450D01*
X234055000Y46202450D02*
X234055000Y43802450D01*
X234055000Y43802450D02*
X239855000Y43802450D01*
G04 #@! TO.C,D57*
X234392900Y65150850D02*
X234392900Y62750850D01*
X234567900Y65150850D02*
X234567900Y62750850D01*
X234742900Y65150850D02*
X234742900Y62750850D01*
X235142900Y62750850D02*
X235142900Y65150850D01*
X234917900Y65150850D02*
X234917900Y62750850D01*
X235042900Y65150850D02*
X235042900Y62750850D01*
X235117900Y65150850D02*
X229317900Y65150850D01*
X229317900Y65150850D02*
X229317900Y62750850D01*
X229317900Y62750850D02*
X235117900Y62750850D01*
G04 #@! TO.C,D56*
X224918700Y84099250D02*
X224918700Y81699250D01*
X225093700Y84099250D02*
X225093700Y81699250D01*
X225268700Y84099250D02*
X225268700Y81699250D01*
X225668700Y81699250D02*
X225668700Y84099250D01*
X225443700Y84099250D02*
X225443700Y81699250D01*
X225568700Y84099250D02*
X225568700Y81699250D01*
X225643700Y84099250D02*
X219843700Y84099250D01*
X219843700Y84099250D02*
X219843700Y81699250D01*
X219843700Y81699250D02*
X225643700Y81699250D01*
G04 #@! TO.C,D61*
X262815500Y117258950D02*
X262815500Y114858950D01*
X262990500Y117258950D02*
X262990500Y114858950D01*
X263165500Y117258950D02*
X263165500Y114858950D01*
X263565500Y114858950D02*
X263565500Y117258950D01*
X263340500Y117258950D02*
X263340500Y114858950D01*
X263465500Y117258950D02*
X263465500Y114858950D01*
X263540500Y117258950D02*
X257740500Y117258950D01*
X257740500Y117258950D02*
X257740500Y114858950D01*
X257740500Y114858950D02*
X263540500Y114858950D01*
G04 #@! TO.C,D83*
X345714750Y8305650D02*
X345714750Y5905650D01*
X345889750Y8305650D02*
X345889750Y5905650D01*
X346064750Y8305650D02*
X346064750Y5905650D01*
X346464750Y5905650D02*
X346464750Y8305650D01*
X346239750Y8305650D02*
X346239750Y5905650D01*
X346364750Y8305650D02*
X346364750Y5905650D01*
X346439750Y8305650D02*
X340639750Y8305650D01*
X340639750Y8305650D02*
X340639750Y5905650D01*
X340639750Y5905650D02*
X346439750Y5905650D01*
G04 #@! TO.C,D53*
X229655800Y27254050D02*
X229655800Y24854050D01*
X229830800Y27254050D02*
X229830800Y24854050D01*
X230005800Y27254050D02*
X230005800Y24854050D01*
X230405800Y24854050D02*
X230405800Y27254050D01*
X230180800Y27254050D02*
X230180800Y24854050D01*
X230305800Y27254050D02*
X230305800Y24854050D01*
X230380800Y27254050D02*
X224580800Y27254050D01*
X224580800Y27254050D02*
X224580800Y24854050D01*
X224580800Y24854050D02*
X230380800Y24854050D01*
G04 #@! TO.C,D52*
X220181600Y46202450D02*
X220181600Y43802450D01*
X220356600Y46202450D02*
X220356600Y43802450D01*
X220531600Y46202450D02*
X220531600Y43802450D01*
X220931600Y43802450D02*
X220931600Y46202450D01*
X220706600Y46202450D02*
X220706600Y43802450D01*
X220831600Y46202450D02*
X220831600Y43802450D01*
X220906600Y46202450D02*
X215106600Y46202450D01*
X215106600Y46202450D02*
X215106600Y43802450D01*
X215106600Y43802450D02*
X220906600Y43802450D01*
G04 #@! TO.C,D51*
X215444500Y65150850D02*
X215444500Y62750850D01*
X215619500Y65150850D02*
X215619500Y62750850D01*
X215794500Y65150850D02*
X215794500Y62750850D01*
X216194500Y62750850D02*
X216194500Y65150850D01*
X215969500Y65150850D02*
X215969500Y62750850D01*
X216094500Y65150850D02*
X216094500Y62750850D01*
X216169500Y65150850D02*
X210369500Y65150850D01*
X210369500Y65150850D02*
X210369500Y62750850D01*
X210369500Y62750850D02*
X216169500Y62750850D01*
G04 #@! TO.C,D50*
X205970300Y84099250D02*
X205970300Y81699250D01*
X206145300Y84099250D02*
X206145300Y81699250D01*
X206320300Y84099250D02*
X206320300Y81699250D01*
X206720300Y81699250D02*
X206720300Y84099250D01*
X206495300Y84099250D02*
X206495300Y81699250D01*
X206620300Y84099250D02*
X206620300Y81699250D01*
X206695300Y84099250D02*
X200895300Y84099250D01*
X200895300Y84099250D02*
X200895300Y81699250D01*
X200895300Y81699250D02*
X206695300Y81699250D01*
G04 #@! TO.C,D55*
X243867100Y117258950D02*
X243867100Y114858950D01*
X244042100Y117258950D02*
X244042100Y114858950D01*
X244217100Y117258950D02*
X244217100Y114858950D01*
X244617100Y114858950D02*
X244617100Y117258950D01*
X244392100Y117258950D02*
X244392100Y114858950D01*
X244517100Y117258950D02*
X244517100Y114858950D01*
X244592100Y117258950D02*
X238792100Y117258950D01*
X238792100Y117258950D02*
X238792100Y114858950D01*
X238792100Y114858950D02*
X244592100Y114858950D01*
G04 #@! TO.C,D78*
X326766350Y8305650D02*
X326766350Y5905650D01*
X326941350Y8305650D02*
X326941350Y5905650D01*
X327116350Y8305650D02*
X327116350Y5905650D01*
X327516350Y5905650D02*
X327516350Y8305650D01*
X327291350Y8305650D02*
X327291350Y5905650D01*
X327416350Y8305650D02*
X327416350Y5905650D01*
X327491350Y8305650D02*
X321691350Y8305650D01*
X321691350Y8305650D02*
X321691350Y5905650D01*
X321691350Y5905650D02*
X327491350Y5905650D01*
G04 #@! TO.C,D49*
X210707400Y27254050D02*
X210707400Y24854050D01*
X210882400Y27254050D02*
X210882400Y24854050D01*
X211057400Y27254050D02*
X211057400Y24854050D01*
X211457400Y24854050D02*
X211457400Y27254050D01*
X211232400Y27254050D02*
X211232400Y24854050D01*
X211357400Y27254050D02*
X211357400Y24854050D01*
X211432400Y27254050D02*
X205632400Y27254050D01*
X205632400Y27254050D02*
X205632400Y24854050D01*
X205632400Y24854050D02*
X211432400Y24854050D01*
G04 #@! TO.C,D48*
X201233200Y46202450D02*
X201233200Y43802450D01*
X201408200Y46202450D02*
X201408200Y43802450D01*
X201583200Y46202450D02*
X201583200Y43802450D01*
X201983200Y43802450D02*
X201983200Y46202450D01*
X201758200Y46202450D02*
X201758200Y43802450D01*
X201883200Y46202450D02*
X201883200Y43802450D01*
X201958200Y46202450D02*
X196158200Y46202450D01*
X196158200Y46202450D02*
X196158200Y43802450D01*
X196158200Y43802450D02*
X201958200Y43802450D01*
G04 #@! TO.C,D47*
X196496100Y65150850D02*
X196496100Y62750850D01*
X196671100Y65150850D02*
X196671100Y62750850D01*
X196846100Y65150850D02*
X196846100Y62750850D01*
X197246100Y62750850D02*
X197246100Y65150850D01*
X197021100Y65150850D02*
X197021100Y62750850D01*
X197146100Y65150850D02*
X197146100Y62750850D01*
X197221100Y65150850D02*
X191421100Y65150850D01*
X191421100Y65150850D02*
X191421100Y62750850D01*
X191421100Y62750850D02*
X197221100Y62750850D01*
G04 #@! TO.C,D46*
X187021900Y84099250D02*
X187021900Y81699250D01*
X187196900Y84099250D02*
X187196900Y81699250D01*
X187371900Y84099250D02*
X187371900Y81699250D01*
X187771900Y81699250D02*
X187771900Y84099250D01*
X187546900Y84099250D02*
X187546900Y81699250D01*
X187671900Y84099250D02*
X187671900Y81699250D01*
X187746900Y84099250D02*
X181946900Y84099250D01*
X181946900Y84099250D02*
X181946900Y81699250D01*
X181946900Y81699250D02*
X187746900Y81699250D01*
G04 #@! TO.C,D45*
X213075950Y117258950D02*
X213075950Y114858950D01*
X213250950Y117258950D02*
X213250950Y114858950D01*
X213425950Y117258950D02*
X213425950Y114858950D01*
X213825950Y114858950D02*
X213825950Y117258950D01*
X213600950Y117258950D02*
X213600950Y114858950D01*
X213725950Y117258950D02*
X213725950Y114858950D01*
X213800950Y117258950D02*
X208000950Y117258950D01*
X208000950Y117258950D02*
X208000950Y114858950D01*
X208000950Y114858950D02*
X213800950Y114858950D01*
G04 #@! TO.C,D74*
X295975200Y8305650D02*
X295975200Y5905650D01*
X296150200Y8305650D02*
X296150200Y5905650D01*
X296325200Y8305650D02*
X296325200Y5905650D01*
X296725200Y5905650D02*
X296725200Y8305650D01*
X296500200Y8305650D02*
X296500200Y5905650D01*
X296625200Y8305650D02*
X296625200Y5905650D01*
X296700200Y8305650D02*
X290900200Y8305650D01*
X290900200Y8305650D02*
X290900200Y5905650D01*
X290900200Y5905650D02*
X296700200Y5905650D01*
G04 #@! TO.C,D44*
X191759000Y27254050D02*
X191759000Y24854050D01*
X191934000Y27254050D02*
X191934000Y24854050D01*
X192109000Y27254050D02*
X192109000Y24854050D01*
X192509000Y24854050D02*
X192509000Y27254050D01*
X192284000Y27254050D02*
X192284000Y24854050D01*
X192409000Y27254050D02*
X192409000Y24854050D01*
X192484000Y27254050D02*
X186684000Y27254050D01*
X186684000Y27254050D02*
X186684000Y24854050D01*
X186684000Y24854050D02*
X192484000Y24854050D01*
G04 #@! TO.C,D43*
X182284800Y46202450D02*
X182284800Y43802450D01*
X182459800Y46202450D02*
X182459800Y43802450D01*
X182634800Y46202450D02*
X182634800Y43802450D01*
X183034800Y43802450D02*
X183034800Y46202450D01*
X182809800Y46202450D02*
X182809800Y43802450D01*
X182934800Y46202450D02*
X182934800Y43802450D01*
X183009800Y46202450D02*
X177209800Y46202450D01*
X177209800Y46202450D02*
X177209800Y43802450D01*
X177209800Y43802450D02*
X183009800Y43802450D01*
G04 #@! TO.C,D42*
X177547700Y65150850D02*
X177547700Y62750850D01*
X177722700Y65150850D02*
X177722700Y62750850D01*
X177897700Y65150850D02*
X177897700Y62750850D01*
X178297700Y62750850D02*
X178297700Y65150850D01*
X178072700Y65150850D02*
X178072700Y62750850D01*
X178197700Y65150850D02*
X178197700Y62750850D01*
X178272700Y65150850D02*
X172472700Y65150850D01*
X172472700Y65150850D02*
X172472700Y62750850D01*
X172472700Y62750850D02*
X178272700Y62750850D01*
G04 #@! TO.C,D41*
X168073500Y84099250D02*
X168073500Y81699250D01*
X168248500Y84099250D02*
X168248500Y81699250D01*
X168423500Y84099250D02*
X168423500Y81699250D01*
X168823500Y81699250D02*
X168823500Y84099250D01*
X168598500Y84099250D02*
X168598500Y81699250D01*
X168723500Y84099250D02*
X168723500Y81699250D01*
X168798500Y84099250D02*
X162998500Y84099250D01*
X162998500Y84099250D02*
X162998500Y81699250D01*
X162998500Y81699250D02*
X168798500Y81699250D01*
G04 #@! TO.C,D40*
X194127550Y117258950D02*
X194127550Y114858950D01*
X194302550Y117258950D02*
X194302550Y114858950D01*
X194477550Y117258950D02*
X194477550Y114858950D01*
X194877550Y114858950D02*
X194877550Y117258950D01*
X194652550Y117258950D02*
X194652550Y114858950D01*
X194777550Y117258950D02*
X194777550Y114858950D01*
X194852550Y117258950D02*
X189052550Y117258950D01*
X189052550Y117258950D02*
X189052550Y114858950D01*
X189052550Y114858950D02*
X194852550Y114858950D01*
G04 #@! TO.C,D65*
X272289700Y8305650D02*
X272289700Y5905650D01*
X272464700Y8305650D02*
X272464700Y5905650D01*
X272639700Y8305650D02*
X272639700Y5905650D01*
X273039700Y5905650D02*
X273039700Y8305650D01*
X272814700Y8305650D02*
X272814700Y5905650D01*
X272939700Y8305650D02*
X272939700Y5905650D01*
X273014700Y8305650D02*
X267214700Y8305650D01*
X267214700Y8305650D02*
X267214700Y5905650D01*
X267214700Y5905650D02*
X273014700Y5905650D01*
G04 #@! TO.C,D39*
X172810600Y27254050D02*
X172810600Y24854050D01*
X172985600Y27254050D02*
X172985600Y24854050D01*
X173160600Y27254050D02*
X173160600Y24854050D01*
X173560600Y24854050D02*
X173560600Y27254050D01*
X173335600Y27254050D02*
X173335600Y24854050D01*
X173460600Y27254050D02*
X173460600Y24854050D01*
X173535600Y27254050D02*
X167735600Y27254050D01*
X167735600Y27254050D02*
X167735600Y24854050D01*
X167735600Y24854050D02*
X173535600Y24854050D01*
G04 #@! TO.C,D38*
X163336400Y46202450D02*
X163336400Y43802450D01*
X163511400Y46202450D02*
X163511400Y43802450D01*
X163686400Y46202450D02*
X163686400Y43802450D01*
X164086400Y43802450D02*
X164086400Y46202450D01*
X163861400Y46202450D02*
X163861400Y43802450D01*
X163986400Y46202450D02*
X163986400Y43802450D01*
X164061400Y46202450D02*
X158261400Y46202450D01*
X158261400Y46202450D02*
X158261400Y43802450D01*
X158261400Y43802450D02*
X164061400Y43802450D01*
G04 #@! TO.C,D37*
X158599300Y65150850D02*
X158599300Y62750850D01*
X158774300Y65150850D02*
X158774300Y62750850D01*
X158949300Y65150850D02*
X158949300Y62750850D01*
X159349300Y62750850D02*
X159349300Y65150850D01*
X159124300Y65150850D02*
X159124300Y62750850D01*
X159249300Y65150850D02*
X159249300Y62750850D01*
X159324300Y65150850D02*
X153524300Y65150850D01*
X153524300Y65150850D02*
X153524300Y62750850D01*
X153524300Y62750850D02*
X159324300Y62750850D01*
G04 #@! TO.C,D36*
X149125100Y84099250D02*
X149125100Y81699250D01*
X149300100Y84099250D02*
X149300100Y81699250D01*
X149475100Y84099250D02*
X149475100Y81699250D01*
X149875100Y81699250D02*
X149875100Y84099250D01*
X149650100Y84099250D02*
X149650100Y81699250D01*
X149775100Y84099250D02*
X149775100Y81699250D01*
X149850100Y84099250D02*
X144050100Y84099250D01*
X144050100Y84099250D02*
X144050100Y81699250D01*
X144050100Y81699250D02*
X149850100Y81699250D01*
G04 #@! TO.C,D35*
X175179150Y117258950D02*
X175179150Y114858950D01*
X175354150Y117258950D02*
X175354150Y114858950D01*
X175529150Y117258950D02*
X175529150Y114858950D01*
X175929150Y114858950D02*
X175929150Y117258950D01*
X175704150Y117258950D02*
X175704150Y114858950D01*
X175829150Y117258950D02*
X175829150Y114858950D01*
X175904150Y117258950D02*
X170104150Y117258950D01*
X170104150Y117258950D02*
X170104150Y114858950D01*
X170104150Y114858950D02*
X175904150Y114858950D01*
G04 #@! TO.C,D60*
X253341300Y8305650D02*
X253341300Y5905650D01*
X253516300Y8305650D02*
X253516300Y5905650D01*
X253691300Y8305650D02*
X253691300Y5905650D01*
X254091300Y5905650D02*
X254091300Y8305650D01*
X253866300Y8305650D02*
X253866300Y5905650D01*
X253991300Y8305650D02*
X253991300Y5905650D01*
X254066300Y8305650D02*
X248266300Y8305650D01*
X248266300Y8305650D02*
X248266300Y5905650D01*
X248266300Y5905650D02*
X254066300Y5905650D01*
G04 #@! TO.C,D33*
X153862200Y27254050D02*
X153862200Y24854050D01*
X154037200Y27254050D02*
X154037200Y24854050D01*
X154212200Y27254050D02*
X154212200Y24854050D01*
X154612200Y24854050D02*
X154612200Y27254050D01*
X154387200Y27254050D02*
X154387200Y24854050D01*
X154512200Y27254050D02*
X154512200Y24854050D01*
X154587200Y27254050D02*
X148787200Y27254050D01*
X148787200Y27254050D02*
X148787200Y24854050D01*
X148787200Y24854050D02*
X154587200Y24854050D01*
G04 #@! TO.C,D32*
X144388000Y46202450D02*
X144388000Y43802450D01*
X144563000Y46202450D02*
X144563000Y43802450D01*
X144738000Y46202450D02*
X144738000Y43802450D01*
X145138000Y43802450D02*
X145138000Y46202450D01*
X144913000Y46202450D02*
X144913000Y43802450D01*
X145038000Y46202450D02*
X145038000Y43802450D01*
X145113000Y46202450D02*
X139313000Y46202450D01*
X139313000Y46202450D02*
X139313000Y43802450D01*
X139313000Y43802450D02*
X145113000Y43802450D01*
G04 #@! TO.C,D31*
X139650900Y65150850D02*
X139650900Y62750850D01*
X139825900Y65150850D02*
X139825900Y62750850D01*
X140000900Y65150850D02*
X140000900Y62750850D01*
X140400900Y62750850D02*
X140400900Y65150850D01*
X140175900Y65150850D02*
X140175900Y62750850D01*
X140300900Y65150850D02*
X140300900Y62750850D01*
X140375900Y65150850D02*
X134575900Y65150850D01*
X134575900Y65150850D02*
X134575900Y62750850D01*
X134575900Y62750850D02*
X140375900Y62750850D01*
G04 #@! TO.C,D30*
X130176700Y84099250D02*
X130176700Y81699250D01*
X130351700Y84099250D02*
X130351700Y81699250D01*
X130526700Y84099250D02*
X130526700Y81699250D01*
X130926700Y81699250D02*
X130926700Y84099250D01*
X130701700Y84099250D02*
X130701700Y81699250D01*
X130826700Y84099250D02*
X130826700Y81699250D01*
X130901700Y84099250D02*
X125101700Y84099250D01*
X125101700Y84099250D02*
X125101700Y81699250D01*
X125101700Y81699250D02*
X130901700Y81699250D01*
G04 #@! TO.C,D29*
X156230750Y117258950D02*
X156230750Y114858950D01*
X156405750Y117258950D02*
X156405750Y114858950D01*
X156580750Y117258950D02*
X156580750Y114858950D01*
X156980750Y114858950D02*
X156980750Y117258950D01*
X156755750Y117258950D02*
X156755750Y114858950D01*
X156880750Y117258950D02*
X156880750Y114858950D01*
X156955750Y117258950D02*
X151155750Y117258950D01*
X151155750Y117258950D02*
X151155750Y114858950D01*
X151155750Y114858950D02*
X156955750Y114858950D01*
G04 #@! TO.C,D54*
X229655800Y8305650D02*
X229655800Y5905650D01*
X229830800Y8305650D02*
X229830800Y5905650D01*
X230005800Y8305650D02*
X230005800Y5905650D01*
X230405800Y5905650D02*
X230405800Y8305650D01*
X230180800Y8305650D02*
X230180800Y5905650D01*
X230305800Y8305650D02*
X230305800Y5905650D01*
X230380800Y8305650D02*
X224580800Y8305650D01*
X224580800Y8305650D02*
X224580800Y5905650D01*
X224580800Y5905650D02*
X230380800Y5905650D01*
G04 #@! TO.C,D28*
X134913800Y27254050D02*
X134913800Y24854050D01*
X135088800Y27254050D02*
X135088800Y24854050D01*
X135263800Y27254050D02*
X135263800Y24854050D01*
X135663800Y24854050D02*
X135663800Y27254050D01*
X135438800Y27254050D02*
X135438800Y24854050D01*
X135563800Y27254050D02*
X135563800Y24854050D01*
X135638800Y27254050D02*
X129838800Y27254050D01*
X129838800Y27254050D02*
X129838800Y24854050D01*
X129838800Y24854050D02*
X135638800Y24854050D01*
G04 #@! TO.C,D27*
X125439600Y46202450D02*
X125439600Y43802450D01*
X125614600Y46202450D02*
X125614600Y43802450D01*
X125789600Y46202450D02*
X125789600Y43802450D01*
X126189600Y43802450D02*
X126189600Y46202450D01*
X125964600Y46202450D02*
X125964600Y43802450D01*
X126089600Y46202450D02*
X126089600Y43802450D01*
X126164600Y46202450D02*
X120364600Y46202450D01*
X120364600Y46202450D02*
X120364600Y43802450D01*
X120364600Y43802450D02*
X126164600Y43802450D01*
G04 #@! TO.C,D26*
X120702500Y65150850D02*
X120702500Y62750850D01*
X120877500Y65150850D02*
X120877500Y62750850D01*
X121052500Y65150850D02*
X121052500Y62750850D01*
X121452500Y62750850D02*
X121452500Y65150850D01*
X121227500Y65150850D02*
X121227500Y62750850D01*
X121352500Y65150850D02*
X121352500Y62750850D01*
X121427500Y65150850D02*
X115627500Y65150850D01*
X115627500Y65150850D02*
X115627500Y62750850D01*
X115627500Y62750850D02*
X121427500Y62750850D01*
G04 #@! TO.C,D25*
X111228300Y84099250D02*
X111228300Y81699250D01*
X111403300Y84099250D02*
X111403300Y81699250D01*
X111578300Y84099250D02*
X111578300Y81699250D01*
X111978300Y81699250D02*
X111978300Y84099250D01*
X111753300Y84099250D02*
X111753300Y81699250D01*
X111878300Y84099250D02*
X111878300Y81699250D01*
X111953300Y84099250D02*
X106153300Y84099250D01*
X106153300Y84099250D02*
X106153300Y81699250D01*
X106153300Y81699250D02*
X111953300Y81699250D01*
G04 #@! TO.C,D24*
X125439600Y117258950D02*
X125439600Y114858950D01*
X125614600Y117258950D02*
X125614600Y114858950D01*
X125789600Y117258950D02*
X125789600Y114858950D01*
X126189600Y114858950D02*
X126189600Y117258950D01*
X125964600Y117258950D02*
X125964600Y114858950D01*
X126089600Y117258950D02*
X126089600Y114858950D01*
X126164600Y117258950D02*
X120364600Y117258950D01*
X120364600Y117258950D02*
X120364600Y114858950D01*
X120364600Y114858950D02*
X126164600Y114858950D01*
G04 #@! TO.C,D34*
X156230750Y8305650D02*
X156230750Y5905650D01*
X156405750Y8305650D02*
X156405750Y5905650D01*
X156580750Y8305650D02*
X156580750Y5905650D01*
X156980750Y5905650D02*
X156980750Y8305650D01*
X156755750Y8305650D02*
X156755750Y5905650D01*
X156880750Y8305650D02*
X156880750Y5905650D01*
X156955750Y8305650D02*
X151155750Y8305650D01*
X151155750Y8305650D02*
X151155750Y5905650D01*
X151155750Y5905650D02*
X156955750Y5905650D01*
G04 #@! TO.C,D23*
X115965400Y27254050D02*
X115965400Y24854050D01*
X116140400Y27254050D02*
X116140400Y24854050D01*
X116315400Y27254050D02*
X116315400Y24854050D01*
X116715400Y24854050D02*
X116715400Y27254050D01*
X116490400Y27254050D02*
X116490400Y24854050D01*
X116615400Y27254050D02*
X116615400Y24854050D01*
X116690400Y27254050D02*
X110890400Y27254050D01*
X110890400Y27254050D02*
X110890400Y24854050D01*
X110890400Y24854050D02*
X116690400Y24854050D01*
G04 #@! TO.C,D22*
X106491200Y46202450D02*
X106491200Y43802450D01*
X106666200Y46202450D02*
X106666200Y43802450D01*
X106841200Y46202450D02*
X106841200Y43802450D01*
X107241200Y43802450D02*
X107241200Y46202450D01*
X107016200Y46202450D02*
X107016200Y43802450D01*
X107141200Y46202450D02*
X107141200Y43802450D01*
X107216200Y46202450D02*
X101416200Y46202450D01*
X101416200Y46202450D02*
X101416200Y43802450D01*
X101416200Y43802450D02*
X107216200Y43802450D01*
G04 #@! TO.C,D21*
X101754100Y65150850D02*
X101754100Y62750850D01*
X101929100Y65150850D02*
X101929100Y62750850D01*
X102104100Y65150850D02*
X102104100Y62750850D01*
X102504100Y62750850D02*
X102504100Y65150850D01*
X102279100Y65150850D02*
X102279100Y62750850D01*
X102404100Y65150850D02*
X102404100Y62750850D01*
X102479100Y65150850D02*
X96679100Y65150850D01*
X96679100Y65150850D02*
X96679100Y62750850D01*
X96679100Y62750850D02*
X102479100Y62750850D01*
G04 #@! TO.C,D20*
X92279900Y84099250D02*
X92279900Y81699250D01*
X92454900Y84099250D02*
X92454900Y81699250D01*
X92629900Y84099250D02*
X92629900Y81699250D01*
X93029900Y81699250D02*
X93029900Y84099250D01*
X92804900Y84099250D02*
X92804900Y81699250D01*
X92929900Y84099250D02*
X92929900Y81699250D01*
X93004900Y84099250D02*
X87204900Y84099250D01*
X87204900Y84099250D02*
X87204900Y81699250D01*
X87204900Y81699250D02*
X93004900Y81699250D01*
G04 #@! TO.C,D19*
X106491200Y117258950D02*
X106491200Y114858950D01*
X106666200Y117258950D02*
X106666200Y114858950D01*
X106841200Y117258950D02*
X106841200Y114858950D01*
X107241200Y114858950D02*
X107241200Y117258950D01*
X107016200Y117258950D02*
X107016200Y114858950D01*
X107141200Y117258950D02*
X107141200Y114858950D01*
X107216200Y117258950D02*
X101416200Y117258950D01*
X101416200Y117258950D02*
X101416200Y114858950D01*
X101416200Y114858950D02*
X107216200Y114858950D01*
G04 #@! TO.C,D18*
X85174250Y8305650D02*
X85174250Y5905650D01*
X85349250Y8305650D02*
X85349250Y5905650D01*
X85524250Y8305650D02*
X85524250Y5905650D01*
X85924250Y5905650D02*
X85924250Y8305650D01*
X85699250Y8305650D02*
X85699250Y5905650D01*
X85824250Y8305650D02*
X85824250Y5905650D01*
X85899250Y8305650D02*
X80099250Y8305650D01*
X80099250Y8305650D02*
X80099250Y5905650D01*
X80099250Y5905650D02*
X85899250Y5905650D01*
G04 #@! TO.C,D17*
X97017000Y27254050D02*
X97017000Y24854050D01*
X97192000Y27254050D02*
X97192000Y24854050D01*
X97367000Y27254050D02*
X97367000Y24854050D01*
X97767000Y24854050D02*
X97767000Y27254050D01*
X97542000Y27254050D02*
X97542000Y24854050D01*
X97667000Y27254050D02*
X97667000Y24854050D01*
X97742000Y27254050D02*
X91942000Y27254050D01*
X91942000Y27254050D02*
X91942000Y24854050D01*
X91942000Y24854050D02*
X97742000Y24854050D01*
G04 #@! TO.C,D16*
X87542800Y46202450D02*
X87542800Y43802450D01*
X87717800Y46202450D02*
X87717800Y43802450D01*
X87892800Y46202450D02*
X87892800Y43802450D01*
X88292800Y43802450D02*
X88292800Y46202450D01*
X88067800Y46202450D02*
X88067800Y43802450D01*
X88192800Y46202450D02*
X88192800Y43802450D01*
X88267800Y46202450D02*
X82467800Y46202450D01*
X82467800Y46202450D02*
X82467800Y43802450D01*
X82467800Y43802450D02*
X88267800Y43802450D01*
G04 #@! TO.C,D15*
X82805700Y65150850D02*
X82805700Y62750850D01*
X82980700Y65150850D02*
X82980700Y62750850D01*
X83155700Y65150850D02*
X83155700Y62750850D01*
X83555700Y62750850D02*
X83555700Y65150850D01*
X83330700Y65150850D02*
X83330700Y62750850D01*
X83455700Y65150850D02*
X83455700Y62750850D01*
X83530700Y65150850D02*
X77730700Y65150850D01*
X77730700Y65150850D02*
X77730700Y62750850D01*
X77730700Y62750850D02*
X83530700Y62750850D01*
G04 #@! TO.C,D14*
X73331500Y84099250D02*
X73331500Y81699250D01*
X73506500Y84099250D02*
X73506500Y81699250D01*
X73681500Y84099250D02*
X73681500Y81699250D01*
X74081500Y81699250D02*
X74081500Y84099250D01*
X73856500Y84099250D02*
X73856500Y81699250D01*
X73981500Y84099250D02*
X73981500Y81699250D01*
X74056500Y84099250D02*
X68256500Y84099250D01*
X68256500Y84099250D02*
X68256500Y81699250D01*
X68256500Y81699250D02*
X74056500Y81699250D01*
G04 #@! TO.C,D13*
X87542800Y117258950D02*
X87542800Y114858950D01*
X87717800Y117258950D02*
X87717800Y114858950D01*
X87892800Y117258950D02*
X87892800Y114858950D01*
X88292800Y114858950D02*
X88292800Y117258950D01*
X88067800Y117258950D02*
X88067800Y114858950D01*
X88192800Y117258950D02*
X88192800Y114858950D01*
X88267800Y117258950D02*
X82467800Y117258950D01*
X82467800Y117258950D02*
X82467800Y114858950D01*
X82467800Y114858950D02*
X88267800Y114858950D01*
G04 #@! TO.C,D12*
X63857300Y8305650D02*
X63857300Y5905650D01*
X64032300Y8305650D02*
X64032300Y5905650D01*
X64207300Y8305650D02*
X64207300Y5905650D01*
X64607300Y5905650D02*
X64607300Y8305650D01*
X64382300Y8305650D02*
X64382300Y5905650D01*
X64507300Y8305650D02*
X64507300Y5905650D01*
X64582300Y8305650D02*
X58782300Y8305650D01*
X58782300Y8305650D02*
X58782300Y5905650D01*
X58782300Y5905650D02*
X64582300Y5905650D01*
G04 #@! TO.C,D11*
X78068600Y27254050D02*
X78068600Y24854050D01*
X78243600Y27254050D02*
X78243600Y24854050D01*
X78418600Y27254050D02*
X78418600Y24854050D01*
X78818600Y24854050D02*
X78818600Y27254050D01*
X78593600Y27254050D02*
X78593600Y24854050D01*
X78718600Y27254050D02*
X78718600Y24854050D01*
X78793600Y27254050D02*
X72993600Y27254050D01*
X72993600Y27254050D02*
X72993600Y24854050D01*
X72993600Y24854050D02*
X78793600Y24854050D01*
G04 #@! TO.C,D10*
X68594400Y46202450D02*
X68594400Y43802450D01*
X68769400Y46202450D02*
X68769400Y43802450D01*
X68944400Y46202450D02*
X68944400Y43802450D01*
X69344400Y43802450D02*
X69344400Y46202450D01*
X69119400Y46202450D02*
X69119400Y43802450D01*
X69244400Y46202450D02*
X69244400Y43802450D01*
X69319400Y46202450D02*
X63519400Y46202450D01*
X63519400Y46202450D02*
X63519400Y43802450D01*
X63519400Y43802450D02*
X69319400Y43802450D01*
G04 #@! TO.C,D9*
X63857300Y65150850D02*
X63857300Y62750850D01*
X64032300Y65150850D02*
X64032300Y62750850D01*
X64207300Y65150850D02*
X64207300Y62750850D01*
X64607300Y62750850D02*
X64607300Y65150850D01*
X64382300Y65150850D02*
X64382300Y62750850D01*
X64507300Y65150850D02*
X64507300Y62750850D01*
X64582300Y65150850D02*
X58782300Y65150850D01*
X58782300Y65150850D02*
X58782300Y62750850D01*
X58782300Y62750850D02*
X64582300Y62750850D01*
G04 #@! TO.C,D8*
X54383100Y84099250D02*
X54383100Y81699250D01*
X54558100Y84099250D02*
X54558100Y81699250D01*
X54733100Y84099250D02*
X54733100Y81699250D01*
X55133100Y81699250D02*
X55133100Y84099250D01*
X54908100Y84099250D02*
X54908100Y81699250D01*
X55033100Y84099250D02*
X55033100Y81699250D01*
X55108100Y84099250D02*
X49308100Y84099250D01*
X49308100Y84099250D02*
X49308100Y81699250D01*
X49308100Y81699250D02*
X55108100Y81699250D01*
G04 #@! TO.C,D7*
X68594400Y117258950D02*
X68594400Y114858950D01*
X68769400Y117258950D02*
X68769400Y114858950D01*
X68944400Y117258950D02*
X68944400Y114858950D01*
X69344400Y114858950D02*
X69344400Y117258950D01*
X69119400Y117258950D02*
X69119400Y114858950D01*
X69244400Y117258950D02*
X69244400Y114858950D01*
X69319400Y117258950D02*
X63519400Y117258950D01*
X63519400Y117258950D02*
X63519400Y114858950D01*
X63519400Y114858950D02*
X69319400Y114858950D01*
G04 #@! TO.C,D6*
X40171800Y8305650D02*
X40171800Y5905650D01*
X40346800Y8305650D02*
X40346800Y5905650D01*
X40521800Y8305650D02*
X40521800Y5905650D01*
X40921800Y5905650D02*
X40921800Y8305650D01*
X40696800Y8305650D02*
X40696800Y5905650D01*
X40821800Y8305650D02*
X40821800Y5905650D01*
X40896800Y8305650D02*
X35096800Y8305650D01*
X35096800Y8305650D02*
X35096800Y5905650D01*
X35096800Y5905650D02*
X40896800Y5905650D01*
G04 #@! TO.C,D5*
X47277450Y27254050D02*
X47277450Y24854050D01*
X47452450Y27254050D02*
X47452450Y24854050D01*
X47627450Y27254050D02*
X47627450Y24854050D01*
X48027450Y24854050D02*
X48027450Y27254050D01*
X47802450Y27254050D02*
X47802450Y24854050D01*
X47927450Y27254050D02*
X47927450Y24854050D01*
X48002450Y27254050D02*
X42202450Y27254050D01*
X42202450Y27254050D02*
X42202450Y24854050D01*
X42202450Y24854050D02*
X48002450Y24854050D01*
G04 #@! TO.C,D4*
X42540350Y46202450D02*
X42540350Y43802450D01*
X42715350Y46202450D02*
X42715350Y43802450D01*
X42890350Y46202450D02*
X42890350Y43802450D01*
X43290350Y43802450D02*
X43290350Y46202450D01*
X43065350Y46202450D02*
X43065350Y43802450D01*
X43190350Y46202450D02*
X43190350Y43802450D01*
X43265350Y46202450D02*
X37465350Y46202450D01*
X37465350Y46202450D02*
X37465350Y43802450D01*
X37465350Y43802450D02*
X43265350Y43802450D01*
G04 #@! TO.C,D3*
X40171800Y65150850D02*
X40171800Y62750850D01*
X40346800Y65150850D02*
X40346800Y62750850D01*
X40521800Y65150850D02*
X40521800Y62750850D01*
X40921800Y62750850D02*
X40921800Y65150850D01*
X40696800Y65150850D02*
X40696800Y62750850D01*
X40821800Y65150850D02*
X40821800Y62750850D01*
X40896800Y65150850D02*
X35096800Y65150850D01*
X35096800Y65150850D02*
X35096800Y62750850D01*
X35096800Y62750850D02*
X40896800Y62750850D01*
G04 #@! TO.C,D2*
X35434700Y84099250D02*
X35434700Y81699250D01*
X35609700Y84099250D02*
X35609700Y81699250D01*
X35784700Y84099250D02*
X35784700Y81699250D01*
X36184700Y81699250D02*
X36184700Y84099250D01*
X35959700Y84099250D02*
X35959700Y81699250D01*
X36084700Y84099250D02*
X36084700Y81699250D01*
X36159700Y84099250D02*
X30359700Y84099250D01*
X30359700Y84099250D02*
X30359700Y81699250D01*
X30359700Y81699250D02*
X36159700Y81699250D01*
G04 #@! TO.C,D1*
X35434700Y117258950D02*
X35434700Y114858950D01*
X35609700Y117258950D02*
X35609700Y114858950D01*
X35784700Y117258950D02*
X35784700Y114858950D01*
X36184700Y114858950D02*
X36184700Y117258950D01*
X35959700Y117258950D02*
X35959700Y114858950D01*
X36084700Y117258950D02*
X36084700Y114858950D01*
X36159700Y117258950D02*
X30359700Y117258950D01*
X30359700Y117258950D02*
X30359700Y114858950D01*
X30359700Y114858950D02*
X36159700Y114858950D01*
G04 #@! TO.C,D92*
D11*
X398887828Y4818745D02*
X398887828Y5618745D01*
X398697352Y5618745D01*
X398583066Y5580650D01*
X398506876Y5504459D01*
X398468780Y5428269D01*
X398430685Y5275888D01*
X398430685Y5161602D01*
X398468780Y5009221D01*
X398506876Y4933030D01*
X398583066Y4856840D01*
X398697352Y4818745D01*
X398887828Y4818745D01*
X398049733Y4818745D02*
X397897352Y4818745D01*
X397821161Y4856840D01*
X397783066Y4894935D01*
X397706876Y5009221D01*
X397668780Y5161602D01*
X397668780Y5466364D01*
X397706876Y5542554D01*
X397744971Y5580650D01*
X397821161Y5618745D01*
X397973542Y5618745D01*
X398049733Y5580650D01*
X398087828Y5542554D01*
X398125923Y5466364D01*
X398125923Y5275888D01*
X398087828Y5199697D01*
X398049733Y5161602D01*
X397973542Y5123507D01*
X397821161Y5123507D01*
X397744971Y5161602D01*
X397706876Y5199697D01*
X397668780Y5275888D01*
X397364019Y5542554D02*
X397325923Y5580650D01*
X397249733Y5618745D01*
X397059257Y5618745D01*
X396983066Y5580650D01*
X396944971Y5542554D01*
X396906876Y5466364D01*
X396906876Y5390173D01*
X396944971Y5275888D01*
X397402114Y4818745D01*
X396906876Y4818745D01*
G04 #@! TO.C,D101*
X427691380Y4818745D02*
X427691380Y5618745D01*
X427500904Y5618745D01*
X427386619Y5580650D01*
X427310428Y5504459D01*
X427272333Y5428269D01*
X427234238Y5275888D01*
X427234238Y5161602D01*
X427272333Y5009221D01*
X427310428Y4933030D01*
X427386619Y4856840D01*
X427500904Y4818745D01*
X427691380Y4818745D01*
X426472333Y4818745D02*
X426929476Y4818745D01*
X426700904Y4818745D02*
X426700904Y5618745D01*
X426777095Y5504459D01*
X426853285Y5428269D01*
X426929476Y5390173D01*
X425977095Y5618745D02*
X425900904Y5618745D01*
X425824714Y5580650D01*
X425786619Y5542554D01*
X425748523Y5466364D01*
X425710428Y5313983D01*
X425710428Y5123507D01*
X425748523Y4971126D01*
X425786619Y4894935D01*
X425824714Y4856840D01*
X425900904Y4818745D01*
X425977095Y4818745D01*
X426053285Y4856840D01*
X426091380Y4894935D01*
X426129476Y4971126D01*
X426167571Y5123507D01*
X426167571Y5313983D01*
X426129476Y5466364D01*
X426091380Y5542554D01*
X426053285Y5580650D01*
X425977095Y5618745D01*
X424948523Y4818745D02*
X425405666Y4818745D01*
X425177095Y4818745D02*
X425177095Y5618745D01*
X425253285Y5504459D01*
X425329476Y5428269D01*
X425405666Y5390173D01*
G04 #@! TO.C,D91*
X389413628Y23767145D02*
X389413628Y24567145D01*
X389223152Y24567145D01*
X389108866Y24529050D01*
X389032676Y24452859D01*
X388994580Y24376669D01*
X388956485Y24224288D01*
X388956485Y24110002D01*
X388994580Y23957621D01*
X389032676Y23881430D01*
X389108866Y23805240D01*
X389223152Y23767145D01*
X389413628Y23767145D01*
X388575533Y23767145D02*
X388423152Y23767145D01*
X388346961Y23805240D01*
X388308866Y23843335D01*
X388232676Y23957621D01*
X388194580Y24110002D01*
X388194580Y24414764D01*
X388232676Y24490954D01*
X388270771Y24529050D01*
X388346961Y24567145D01*
X388499342Y24567145D01*
X388575533Y24529050D01*
X388613628Y24490954D01*
X388651723Y24414764D01*
X388651723Y24224288D01*
X388613628Y24148097D01*
X388575533Y24110002D01*
X388499342Y24071907D01*
X388346961Y24071907D01*
X388270771Y24110002D01*
X388232676Y24148097D01*
X388194580Y24224288D01*
X387432676Y23767145D02*
X387889819Y23767145D01*
X387661247Y23767145D02*
X387661247Y24567145D01*
X387737438Y24452859D01*
X387813628Y24376669D01*
X387889819Y24338573D01*
G04 #@! TO.C,D96*
X408362028Y23767145D02*
X408362028Y24567145D01*
X408171552Y24567145D01*
X408057266Y24529050D01*
X407981076Y24452859D01*
X407942980Y24376669D01*
X407904885Y24224288D01*
X407904885Y24110002D01*
X407942980Y23957621D01*
X407981076Y23881430D01*
X408057266Y23805240D01*
X408171552Y23767145D01*
X408362028Y23767145D01*
X407523933Y23767145D02*
X407371552Y23767145D01*
X407295361Y23805240D01*
X407257266Y23843335D01*
X407181076Y23957621D01*
X407142980Y24110002D01*
X407142980Y24414764D01*
X407181076Y24490954D01*
X407219171Y24529050D01*
X407295361Y24567145D01*
X407447742Y24567145D01*
X407523933Y24529050D01*
X407562028Y24490954D01*
X407600123Y24414764D01*
X407600123Y24224288D01*
X407562028Y24148097D01*
X407523933Y24110002D01*
X407447742Y24071907D01*
X407295361Y24071907D01*
X407219171Y24110002D01*
X407181076Y24148097D01*
X407142980Y24224288D01*
X406457266Y24567145D02*
X406609647Y24567145D01*
X406685838Y24529050D01*
X406723933Y24490954D01*
X406800123Y24376669D01*
X406838219Y24224288D01*
X406838219Y23919526D01*
X406800123Y23843335D01*
X406762028Y23805240D01*
X406685838Y23767145D01*
X406533457Y23767145D01*
X406457266Y23805240D01*
X406419171Y23843335D01*
X406381076Y23919526D01*
X406381076Y24110002D01*
X406419171Y24186192D01*
X406457266Y24224288D01*
X406533457Y24262383D01*
X406685838Y24262383D01*
X406762028Y24224288D01*
X406800123Y24186192D01*
X406838219Y24110002D01*
G04 #@! TO.C,D100*
X427691380Y23767145D02*
X427691380Y24567145D01*
X427500904Y24567145D01*
X427386619Y24529050D01*
X427310428Y24452859D01*
X427272333Y24376669D01*
X427234238Y24224288D01*
X427234238Y24110002D01*
X427272333Y23957621D01*
X427310428Y23881430D01*
X427386619Y23805240D01*
X427500904Y23767145D01*
X427691380Y23767145D01*
X426472333Y23767145D02*
X426929476Y23767145D01*
X426700904Y23767145D02*
X426700904Y24567145D01*
X426777095Y24452859D01*
X426853285Y24376669D01*
X426929476Y24338573D01*
X425977095Y24567145D02*
X425900904Y24567145D01*
X425824714Y24529050D01*
X425786619Y24490954D01*
X425748523Y24414764D01*
X425710428Y24262383D01*
X425710428Y24071907D01*
X425748523Y23919526D01*
X425786619Y23843335D01*
X425824714Y23805240D01*
X425900904Y23767145D01*
X425977095Y23767145D01*
X426053285Y23805240D01*
X426091380Y23843335D01*
X426129476Y23919526D01*
X426167571Y24071907D01*
X426167571Y24262383D01*
X426129476Y24414764D01*
X426091380Y24490954D01*
X426053285Y24529050D01*
X425977095Y24567145D01*
X425215190Y24567145D02*
X425139000Y24567145D01*
X425062809Y24529050D01*
X425024714Y24490954D01*
X424986619Y24414764D01*
X424948523Y24262383D01*
X424948523Y24071907D01*
X424986619Y23919526D01*
X425024714Y23843335D01*
X425062809Y23805240D01*
X425139000Y23767145D01*
X425215190Y23767145D01*
X425291380Y23805240D01*
X425329476Y23843335D01*
X425367571Y23919526D01*
X425405666Y24071907D01*
X425405666Y24262383D01*
X425367571Y24414764D01*
X425329476Y24490954D01*
X425291380Y24529050D01*
X425215190Y24567145D01*
G04 #@! TO.C,D99*
X427310428Y42715545D02*
X427310428Y43515545D01*
X427119952Y43515545D01*
X427005666Y43477450D01*
X426929476Y43401259D01*
X426891380Y43325069D01*
X426853285Y43172688D01*
X426853285Y43058402D01*
X426891380Y42906021D01*
X426929476Y42829830D01*
X427005666Y42753640D01*
X427119952Y42715545D01*
X427310428Y42715545D01*
X426472333Y42715545D02*
X426319952Y42715545D01*
X426243761Y42753640D01*
X426205666Y42791735D01*
X426129476Y42906021D01*
X426091380Y43058402D01*
X426091380Y43363164D01*
X426129476Y43439354D01*
X426167571Y43477450D01*
X426243761Y43515545D01*
X426396142Y43515545D01*
X426472333Y43477450D01*
X426510428Y43439354D01*
X426548523Y43363164D01*
X426548523Y43172688D01*
X426510428Y43096497D01*
X426472333Y43058402D01*
X426396142Y43020307D01*
X426243761Y43020307D01*
X426167571Y43058402D01*
X426129476Y43096497D01*
X426091380Y43172688D01*
X425710428Y42715545D02*
X425558047Y42715545D01*
X425481857Y42753640D01*
X425443761Y42791735D01*
X425367571Y42906021D01*
X425329476Y43058402D01*
X425329476Y43363164D01*
X425367571Y43439354D01*
X425405666Y43477450D01*
X425481857Y43515545D01*
X425634238Y43515545D01*
X425710428Y43477450D01*
X425748523Y43439354D01*
X425786619Y43363164D01*
X425786619Y43172688D01*
X425748523Y43096497D01*
X425710428Y43058402D01*
X425634238Y43020307D01*
X425481857Y43020307D01*
X425405666Y43058402D01*
X425367571Y43096497D01*
X425329476Y43172688D01*
G04 #@! TO.C,D98*
X427310428Y61663945D02*
X427310428Y62463945D01*
X427119952Y62463945D01*
X427005666Y62425850D01*
X426929476Y62349659D01*
X426891380Y62273469D01*
X426853285Y62121088D01*
X426853285Y62006802D01*
X426891380Y61854421D01*
X426929476Y61778230D01*
X427005666Y61702040D01*
X427119952Y61663945D01*
X427310428Y61663945D01*
X426472333Y61663945D02*
X426319952Y61663945D01*
X426243761Y61702040D01*
X426205666Y61740135D01*
X426129476Y61854421D01*
X426091380Y62006802D01*
X426091380Y62311564D01*
X426129476Y62387754D01*
X426167571Y62425850D01*
X426243761Y62463945D01*
X426396142Y62463945D01*
X426472333Y62425850D01*
X426510428Y62387754D01*
X426548523Y62311564D01*
X426548523Y62121088D01*
X426510428Y62044897D01*
X426472333Y62006802D01*
X426396142Y61968707D01*
X426243761Y61968707D01*
X426167571Y62006802D01*
X426129476Y62044897D01*
X426091380Y62121088D01*
X425634238Y62121088D02*
X425710428Y62159183D01*
X425748523Y62197278D01*
X425786619Y62273469D01*
X425786619Y62311564D01*
X425748523Y62387754D01*
X425710428Y62425850D01*
X425634238Y62463945D01*
X425481857Y62463945D01*
X425405666Y62425850D01*
X425367571Y62387754D01*
X425329476Y62311564D01*
X425329476Y62273469D01*
X425367571Y62197278D01*
X425405666Y62159183D01*
X425481857Y62121088D01*
X425634238Y62121088D01*
X425710428Y62082992D01*
X425748523Y62044897D01*
X425786619Y61968707D01*
X425786619Y61816326D01*
X425748523Y61740135D01*
X425710428Y61702040D01*
X425634238Y61663945D01*
X425481857Y61663945D01*
X425405666Y61702040D01*
X425367571Y61740135D01*
X425329476Y61816326D01*
X425329476Y61968707D01*
X425367571Y62044897D01*
X425405666Y62082992D01*
X425481857Y62121088D01*
G04 #@! TO.C,D97*
X427310428Y80612345D02*
X427310428Y81412345D01*
X427119952Y81412345D01*
X427005666Y81374250D01*
X426929476Y81298059D01*
X426891380Y81221869D01*
X426853285Y81069488D01*
X426853285Y80955202D01*
X426891380Y80802821D01*
X426929476Y80726630D01*
X427005666Y80650440D01*
X427119952Y80612345D01*
X427310428Y80612345D01*
X426472333Y80612345D02*
X426319952Y80612345D01*
X426243761Y80650440D01*
X426205666Y80688535D01*
X426129476Y80802821D01*
X426091380Y80955202D01*
X426091380Y81259964D01*
X426129476Y81336154D01*
X426167571Y81374250D01*
X426243761Y81412345D01*
X426396142Y81412345D01*
X426472333Y81374250D01*
X426510428Y81336154D01*
X426548523Y81259964D01*
X426548523Y81069488D01*
X426510428Y80993297D01*
X426472333Y80955202D01*
X426396142Y80917107D01*
X426243761Y80917107D01*
X426167571Y80955202D01*
X426129476Y80993297D01*
X426091380Y81069488D01*
X425824714Y81412345D02*
X425291380Y81412345D01*
X425634238Y80612345D01*
G04 #@! TO.C,D86*
X363359578Y61663945D02*
X363359578Y62463945D01*
X363169102Y62463945D01*
X363054816Y62425850D01*
X362978626Y62349659D01*
X362940530Y62273469D01*
X362902435Y62121088D01*
X362902435Y62006802D01*
X362940530Y61854421D01*
X362978626Y61778230D01*
X363054816Y61702040D01*
X363169102Y61663945D01*
X363359578Y61663945D01*
X362445292Y62121088D02*
X362521483Y62159183D01*
X362559578Y62197278D01*
X362597673Y62273469D01*
X362597673Y62311564D01*
X362559578Y62387754D01*
X362521483Y62425850D01*
X362445292Y62463945D01*
X362292911Y62463945D01*
X362216721Y62425850D01*
X362178626Y62387754D01*
X362140530Y62311564D01*
X362140530Y62273469D01*
X362178626Y62197278D01*
X362216721Y62159183D01*
X362292911Y62121088D01*
X362445292Y62121088D01*
X362521483Y62082992D01*
X362559578Y62044897D01*
X362597673Y61968707D01*
X362597673Y61816326D01*
X362559578Y61740135D01*
X362521483Y61702040D01*
X362445292Y61663945D01*
X362292911Y61663945D01*
X362216721Y61702040D01*
X362178626Y61740135D01*
X362140530Y61816326D01*
X362140530Y61968707D01*
X362178626Y62044897D01*
X362216721Y62082992D01*
X362292911Y62121088D01*
X361454816Y62463945D02*
X361607197Y62463945D01*
X361683388Y62425850D01*
X361721483Y62387754D01*
X361797673Y62273469D01*
X361835769Y62121088D01*
X361835769Y61816326D01*
X361797673Y61740135D01*
X361759578Y61702040D01*
X361683388Y61663945D01*
X361531007Y61663945D01*
X361454816Y61702040D01*
X361416721Y61740135D01*
X361378626Y61816326D01*
X361378626Y62006802D01*
X361416721Y62082992D01*
X361454816Y62121088D01*
X361531007Y62159183D01*
X361683388Y62159183D01*
X361759578Y62121088D01*
X361797673Y62082992D01*
X361835769Y62006802D01*
G04 #@! TO.C,D85*
X363359578Y80612345D02*
X363359578Y81412345D01*
X363169102Y81412345D01*
X363054816Y81374250D01*
X362978626Y81298059D01*
X362940530Y81221869D01*
X362902435Y81069488D01*
X362902435Y80955202D01*
X362940530Y80802821D01*
X362978626Y80726630D01*
X363054816Y80650440D01*
X363169102Y80612345D01*
X363359578Y80612345D01*
X362445292Y81069488D02*
X362521483Y81107583D01*
X362559578Y81145678D01*
X362597673Y81221869D01*
X362597673Y81259964D01*
X362559578Y81336154D01*
X362521483Y81374250D01*
X362445292Y81412345D01*
X362292911Y81412345D01*
X362216721Y81374250D01*
X362178626Y81336154D01*
X362140530Y81259964D01*
X362140530Y81221869D01*
X362178626Y81145678D01*
X362216721Y81107583D01*
X362292911Y81069488D01*
X362445292Y81069488D01*
X362521483Y81031392D01*
X362559578Y80993297D01*
X362597673Y80917107D01*
X362597673Y80764726D01*
X362559578Y80688535D01*
X362521483Y80650440D01*
X362445292Y80612345D01*
X362292911Y80612345D01*
X362216721Y80650440D01*
X362178626Y80688535D01*
X362140530Y80764726D01*
X362140530Y80917107D01*
X362178626Y80993297D01*
X362216721Y81031392D01*
X362292911Y81069488D01*
X361416721Y81412345D02*
X361797673Y81412345D01*
X361835769Y81031392D01*
X361797673Y81069488D01*
X361721483Y81107583D01*
X361531007Y81107583D01*
X361454816Y81069488D01*
X361416721Y81031392D01*
X361378626Y80955202D01*
X361378626Y80764726D01*
X361416721Y80688535D01*
X361454816Y80650440D01*
X361531007Y80612345D01*
X361721483Y80612345D01*
X361797673Y80650440D01*
X361835769Y80688535D01*
G04 #@! TO.C,D84*
X363359578Y113772045D02*
X363359578Y114572045D01*
X363169102Y114572045D01*
X363054816Y114533950D01*
X362978626Y114457759D01*
X362940530Y114381569D01*
X362902435Y114229188D01*
X362902435Y114114902D01*
X362940530Y113962521D01*
X362978626Y113886330D01*
X363054816Y113810140D01*
X363169102Y113772045D01*
X363359578Y113772045D01*
X362445292Y114229188D02*
X362521483Y114267283D01*
X362559578Y114305378D01*
X362597673Y114381569D01*
X362597673Y114419664D01*
X362559578Y114495854D01*
X362521483Y114533950D01*
X362445292Y114572045D01*
X362292911Y114572045D01*
X362216721Y114533950D01*
X362178626Y114495854D01*
X362140530Y114419664D01*
X362140530Y114381569D01*
X362178626Y114305378D01*
X362216721Y114267283D01*
X362292911Y114229188D01*
X362445292Y114229188D01*
X362521483Y114191092D01*
X362559578Y114152997D01*
X362597673Y114076807D01*
X362597673Y113924426D01*
X362559578Y113848235D01*
X362521483Y113810140D01*
X362445292Y113772045D01*
X362292911Y113772045D01*
X362216721Y113810140D01*
X362178626Y113848235D01*
X362140530Y113924426D01*
X362140530Y114076807D01*
X362178626Y114152997D01*
X362216721Y114191092D01*
X362292911Y114229188D01*
X361454816Y114305378D02*
X361454816Y113772045D01*
X361645292Y114610140D02*
X361835769Y114038711D01*
X361340530Y114038711D01*
G04 #@! TO.C,D95*
X408362028Y42715545D02*
X408362028Y43515545D01*
X408171552Y43515545D01*
X408057266Y43477450D01*
X407981076Y43401259D01*
X407942980Y43325069D01*
X407904885Y43172688D01*
X407904885Y43058402D01*
X407942980Y42906021D01*
X407981076Y42829830D01*
X408057266Y42753640D01*
X408171552Y42715545D01*
X408362028Y42715545D01*
X407523933Y42715545D02*
X407371552Y42715545D01*
X407295361Y42753640D01*
X407257266Y42791735D01*
X407181076Y42906021D01*
X407142980Y43058402D01*
X407142980Y43363164D01*
X407181076Y43439354D01*
X407219171Y43477450D01*
X407295361Y43515545D01*
X407447742Y43515545D01*
X407523933Y43477450D01*
X407562028Y43439354D01*
X407600123Y43363164D01*
X407600123Y43172688D01*
X407562028Y43096497D01*
X407523933Y43058402D01*
X407447742Y43020307D01*
X407295361Y43020307D01*
X407219171Y43058402D01*
X407181076Y43096497D01*
X407142980Y43172688D01*
X406419171Y43515545D02*
X406800123Y43515545D01*
X406838219Y43134592D01*
X406800123Y43172688D01*
X406723933Y43210783D01*
X406533457Y43210783D01*
X406457266Y43172688D01*
X406419171Y43134592D01*
X406381076Y43058402D01*
X406381076Y42867926D01*
X406419171Y42791735D01*
X406457266Y42753640D01*
X406533457Y42715545D01*
X406723933Y42715545D01*
X406800123Y42753640D01*
X406838219Y42791735D01*
G04 #@! TO.C,D94*
X408362028Y61663945D02*
X408362028Y62463945D01*
X408171552Y62463945D01*
X408057266Y62425850D01*
X407981076Y62349659D01*
X407942980Y62273469D01*
X407904885Y62121088D01*
X407904885Y62006802D01*
X407942980Y61854421D01*
X407981076Y61778230D01*
X408057266Y61702040D01*
X408171552Y61663945D01*
X408362028Y61663945D01*
X407523933Y61663945D02*
X407371552Y61663945D01*
X407295361Y61702040D01*
X407257266Y61740135D01*
X407181076Y61854421D01*
X407142980Y62006802D01*
X407142980Y62311564D01*
X407181076Y62387754D01*
X407219171Y62425850D01*
X407295361Y62463945D01*
X407447742Y62463945D01*
X407523933Y62425850D01*
X407562028Y62387754D01*
X407600123Y62311564D01*
X407600123Y62121088D01*
X407562028Y62044897D01*
X407523933Y62006802D01*
X407447742Y61968707D01*
X407295361Y61968707D01*
X407219171Y62006802D01*
X407181076Y62044897D01*
X407142980Y62121088D01*
X406457266Y62197278D02*
X406457266Y61663945D01*
X406647742Y62502040D02*
X406838219Y61930611D01*
X406342980Y61930611D01*
G04 #@! TO.C,D93*
X408362028Y80612345D02*
X408362028Y81412345D01*
X408171552Y81412345D01*
X408057266Y81374250D01*
X407981076Y81298059D01*
X407942980Y81221869D01*
X407904885Y81069488D01*
X407904885Y80955202D01*
X407942980Y80802821D01*
X407981076Y80726630D01*
X408057266Y80650440D01*
X408171552Y80612345D01*
X408362028Y80612345D01*
X407523933Y80612345D02*
X407371552Y80612345D01*
X407295361Y80650440D01*
X407257266Y80688535D01*
X407181076Y80802821D01*
X407142980Y80955202D01*
X407142980Y81259964D01*
X407181076Y81336154D01*
X407219171Y81374250D01*
X407295361Y81412345D01*
X407447742Y81412345D01*
X407523933Y81374250D01*
X407562028Y81336154D01*
X407600123Y81259964D01*
X407600123Y81069488D01*
X407562028Y80993297D01*
X407523933Y80955202D01*
X407447742Y80917107D01*
X407295361Y80917107D01*
X407219171Y80955202D01*
X407181076Y80993297D01*
X407142980Y81069488D01*
X406876314Y81412345D02*
X406381076Y81412345D01*
X406647742Y81107583D01*
X406533457Y81107583D01*
X406457266Y81069488D01*
X406419171Y81031392D01*
X406381076Y80955202D01*
X406381076Y80764726D01*
X406419171Y80688535D01*
X406457266Y80650440D01*
X406533457Y80612345D01*
X406762028Y80612345D01*
X406838219Y80650440D01*
X406876314Y80688535D01*
G04 #@! TO.C,D81*
X344411178Y61663945D02*
X344411178Y62463945D01*
X344220702Y62463945D01*
X344106416Y62425850D01*
X344030226Y62349659D01*
X343992130Y62273469D01*
X343954035Y62121088D01*
X343954035Y62006802D01*
X343992130Y61854421D01*
X344030226Y61778230D01*
X344106416Y61702040D01*
X344220702Y61663945D01*
X344411178Y61663945D01*
X343496892Y62121088D02*
X343573083Y62159183D01*
X343611178Y62197278D01*
X343649273Y62273469D01*
X343649273Y62311564D01*
X343611178Y62387754D01*
X343573083Y62425850D01*
X343496892Y62463945D01*
X343344511Y62463945D01*
X343268321Y62425850D01*
X343230226Y62387754D01*
X343192130Y62311564D01*
X343192130Y62273469D01*
X343230226Y62197278D01*
X343268321Y62159183D01*
X343344511Y62121088D01*
X343496892Y62121088D01*
X343573083Y62082992D01*
X343611178Y62044897D01*
X343649273Y61968707D01*
X343649273Y61816326D01*
X343611178Y61740135D01*
X343573083Y61702040D01*
X343496892Y61663945D01*
X343344511Y61663945D01*
X343268321Y61702040D01*
X343230226Y61740135D01*
X343192130Y61816326D01*
X343192130Y61968707D01*
X343230226Y62044897D01*
X343268321Y62082992D01*
X343344511Y62121088D01*
X342430226Y61663945D02*
X342887369Y61663945D01*
X342658797Y61663945D02*
X342658797Y62463945D01*
X342734988Y62349659D01*
X342811178Y62273469D01*
X342887369Y62235373D01*
G04 #@! TO.C,D80*
X344411178Y80612345D02*
X344411178Y81412345D01*
X344220702Y81412345D01*
X344106416Y81374250D01*
X344030226Y81298059D01*
X343992130Y81221869D01*
X343954035Y81069488D01*
X343954035Y80955202D01*
X343992130Y80802821D01*
X344030226Y80726630D01*
X344106416Y80650440D01*
X344220702Y80612345D01*
X344411178Y80612345D01*
X343496892Y81069488D02*
X343573083Y81107583D01*
X343611178Y81145678D01*
X343649273Y81221869D01*
X343649273Y81259964D01*
X343611178Y81336154D01*
X343573083Y81374250D01*
X343496892Y81412345D01*
X343344511Y81412345D01*
X343268321Y81374250D01*
X343230226Y81336154D01*
X343192130Y81259964D01*
X343192130Y81221869D01*
X343230226Y81145678D01*
X343268321Y81107583D01*
X343344511Y81069488D01*
X343496892Y81069488D01*
X343573083Y81031392D01*
X343611178Y80993297D01*
X343649273Y80917107D01*
X343649273Y80764726D01*
X343611178Y80688535D01*
X343573083Y80650440D01*
X343496892Y80612345D01*
X343344511Y80612345D01*
X343268321Y80650440D01*
X343230226Y80688535D01*
X343192130Y80764726D01*
X343192130Y80917107D01*
X343230226Y80993297D01*
X343268321Y81031392D01*
X343344511Y81069488D01*
X342696892Y81412345D02*
X342620702Y81412345D01*
X342544511Y81374250D01*
X342506416Y81336154D01*
X342468321Y81259964D01*
X342430226Y81107583D01*
X342430226Y80917107D01*
X342468321Y80764726D01*
X342506416Y80688535D01*
X342544511Y80650440D01*
X342620702Y80612345D01*
X342696892Y80612345D01*
X342773083Y80650440D01*
X342811178Y80688535D01*
X342849273Y80764726D01*
X342887369Y80917107D01*
X342887369Y81107583D01*
X342849273Y81259964D01*
X342811178Y81336154D01*
X342773083Y81374250D01*
X342696892Y81412345D01*
G04 #@! TO.C,D79*
X344411178Y113772045D02*
X344411178Y114572045D01*
X344220702Y114572045D01*
X344106416Y114533950D01*
X344030226Y114457759D01*
X343992130Y114381569D01*
X343954035Y114229188D01*
X343954035Y114114902D01*
X343992130Y113962521D01*
X344030226Y113886330D01*
X344106416Y113810140D01*
X344220702Y113772045D01*
X344411178Y113772045D01*
X343687369Y114572045D02*
X343154035Y114572045D01*
X343496892Y113772045D01*
X342811178Y113772045D02*
X342658797Y113772045D01*
X342582607Y113810140D01*
X342544511Y113848235D01*
X342468321Y113962521D01*
X342430226Y114114902D01*
X342430226Y114419664D01*
X342468321Y114495854D01*
X342506416Y114533950D01*
X342582607Y114572045D01*
X342734988Y114572045D01*
X342811178Y114533950D01*
X342849273Y114495854D01*
X342887369Y114419664D01*
X342887369Y114229188D01*
X342849273Y114152997D01*
X342811178Y114114902D01*
X342734988Y114076807D01*
X342582607Y114076807D01*
X342506416Y114114902D01*
X342468321Y114152997D01*
X342430226Y114229188D01*
G04 #@! TO.C,D90*
X389413628Y42715545D02*
X389413628Y43515545D01*
X389223152Y43515545D01*
X389108866Y43477450D01*
X389032676Y43401259D01*
X388994580Y43325069D01*
X388956485Y43172688D01*
X388956485Y43058402D01*
X388994580Y42906021D01*
X389032676Y42829830D01*
X389108866Y42753640D01*
X389223152Y42715545D01*
X389413628Y42715545D01*
X388575533Y42715545D02*
X388423152Y42715545D01*
X388346961Y42753640D01*
X388308866Y42791735D01*
X388232676Y42906021D01*
X388194580Y43058402D01*
X388194580Y43363164D01*
X388232676Y43439354D01*
X388270771Y43477450D01*
X388346961Y43515545D01*
X388499342Y43515545D01*
X388575533Y43477450D01*
X388613628Y43439354D01*
X388651723Y43363164D01*
X388651723Y43172688D01*
X388613628Y43096497D01*
X388575533Y43058402D01*
X388499342Y43020307D01*
X388346961Y43020307D01*
X388270771Y43058402D01*
X388232676Y43096497D01*
X388194580Y43172688D01*
X387699342Y43515545D02*
X387623152Y43515545D01*
X387546961Y43477450D01*
X387508866Y43439354D01*
X387470771Y43363164D01*
X387432676Y43210783D01*
X387432676Y43020307D01*
X387470771Y42867926D01*
X387508866Y42791735D01*
X387546961Y42753640D01*
X387623152Y42715545D01*
X387699342Y42715545D01*
X387775533Y42753640D01*
X387813628Y42791735D01*
X387851723Y42867926D01*
X387889819Y43020307D01*
X387889819Y43210783D01*
X387851723Y43363164D01*
X387813628Y43439354D01*
X387775533Y43477450D01*
X387699342Y43515545D01*
G04 #@! TO.C,D89*
X389413628Y61663945D02*
X389413628Y62463945D01*
X389223152Y62463945D01*
X389108866Y62425850D01*
X389032676Y62349659D01*
X388994580Y62273469D01*
X388956485Y62121088D01*
X388956485Y62006802D01*
X388994580Y61854421D01*
X389032676Y61778230D01*
X389108866Y61702040D01*
X389223152Y61663945D01*
X389413628Y61663945D01*
X388499342Y62121088D02*
X388575533Y62159183D01*
X388613628Y62197278D01*
X388651723Y62273469D01*
X388651723Y62311564D01*
X388613628Y62387754D01*
X388575533Y62425850D01*
X388499342Y62463945D01*
X388346961Y62463945D01*
X388270771Y62425850D01*
X388232676Y62387754D01*
X388194580Y62311564D01*
X388194580Y62273469D01*
X388232676Y62197278D01*
X388270771Y62159183D01*
X388346961Y62121088D01*
X388499342Y62121088D01*
X388575533Y62082992D01*
X388613628Y62044897D01*
X388651723Y61968707D01*
X388651723Y61816326D01*
X388613628Y61740135D01*
X388575533Y61702040D01*
X388499342Y61663945D01*
X388346961Y61663945D01*
X388270771Y61702040D01*
X388232676Y61740135D01*
X388194580Y61816326D01*
X388194580Y61968707D01*
X388232676Y62044897D01*
X388270771Y62082992D01*
X388346961Y62121088D01*
X387813628Y61663945D02*
X387661247Y61663945D01*
X387585057Y61702040D01*
X387546961Y61740135D01*
X387470771Y61854421D01*
X387432676Y62006802D01*
X387432676Y62311564D01*
X387470771Y62387754D01*
X387508866Y62425850D01*
X387585057Y62463945D01*
X387737438Y62463945D01*
X387813628Y62425850D01*
X387851723Y62387754D01*
X387889819Y62311564D01*
X387889819Y62121088D01*
X387851723Y62044897D01*
X387813628Y62006802D01*
X387737438Y61968707D01*
X387585057Y61968707D01*
X387508866Y62006802D01*
X387470771Y62044897D01*
X387432676Y62121088D01*
G04 #@! TO.C,D88*
X389413628Y80612345D02*
X389413628Y81412345D01*
X389223152Y81412345D01*
X389108866Y81374250D01*
X389032676Y81298059D01*
X388994580Y81221869D01*
X388956485Y81069488D01*
X388956485Y80955202D01*
X388994580Y80802821D01*
X389032676Y80726630D01*
X389108866Y80650440D01*
X389223152Y80612345D01*
X389413628Y80612345D01*
X388499342Y81069488D02*
X388575533Y81107583D01*
X388613628Y81145678D01*
X388651723Y81221869D01*
X388651723Y81259964D01*
X388613628Y81336154D01*
X388575533Y81374250D01*
X388499342Y81412345D01*
X388346961Y81412345D01*
X388270771Y81374250D01*
X388232676Y81336154D01*
X388194580Y81259964D01*
X388194580Y81221869D01*
X388232676Y81145678D01*
X388270771Y81107583D01*
X388346961Y81069488D01*
X388499342Y81069488D01*
X388575533Y81031392D01*
X388613628Y80993297D01*
X388651723Y80917107D01*
X388651723Y80764726D01*
X388613628Y80688535D01*
X388575533Y80650440D01*
X388499342Y80612345D01*
X388346961Y80612345D01*
X388270771Y80650440D01*
X388232676Y80688535D01*
X388194580Y80764726D01*
X388194580Y80917107D01*
X388232676Y80993297D01*
X388270771Y81031392D01*
X388346961Y81069488D01*
X387737438Y81069488D02*
X387813628Y81107583D01*
X387851723Y81145678D01*
X387889819Y81221869D01*
X387889819Y81259964D01*
X387851723Y81336154D01*
X387813628Y81374250D01*
X387737438Y81412345D01*
X387585057Y81412345D01*
X387508866Y81374250D01*
X387470771Y81336154D01*
X387432676Y81259964D01*
X387432676Y81221869D01*
X387470771Y81145678D01*
X387508866Y81107583D01*
X387585057Y81069488D01*
X387737438Y81069488D01*
X387813628Y81031392D01*
X387851723Y80993297D01*
X387889819Y80917107D01*
X387889819Y80764726D01*
X387851723Y80688535D01*
X387813628Y80650440D01*
X387737438Y80612345D01*
X387585057Y80612345D01*
X387508866Y80650440D01*
X387470771Y80688535D01*
X387432676Y80764726D01*
X387432676Y80917107D01*
X387470771Y80993297D01*
X387508866Y81031392D01*
X387585057Y81069488D01*
G04 #@! TO.C,D77*
X325462778Y61663945D02*
X325462778Y62463945D01*
X325272302Y62463945D01*
X325158016Y62425850D01*
X325081826Y62349659D01*
X325043730Y62273469D01*
X325005635Y62121088D01*
X325005635Y62006802D01*
X325043730Y61854421D01*
X325081826Y61778230D01*
X325158016Y61702040D01*
X325272302Y61663945D01*
X325462778Y61663945D01*
X324738969Y62463945D02*
X324205635Y62463945D01*
X324548492Y61663945D01*
X323977064Y62463945D02*
X323443730Y62463945D01*
X323786588Y61663945D01*
G04 #@! TO.C,D76*
X325462778Y80612345D02*
X325462778Y81412345D01*
X325272302Y81412345D01*
X325158016Y81374250D01*
X325081826Y81298059D01*
X325043730Y81221869D01*
X325005635Y81069488D01*
X325005635Y80955202D01*
X325043730Y80802821D01*
X325081826Y80726630D01*
X325158016Y80650440D01*
X325272302Y80612345D01*
X325462778Y80612345D01*
X324738969Y81412345D02*
X324205635Y81412345D01*
X324548492Y80612345D01*
X323558016Y81412345D02*
X323710397Y81412345D01*
X323786588Y81374250D01*
X323824683Y81336154D01*
X323900873Y81221869D01*
X323938969Y81069488D01*
X323938969Y80764726D01*
X323900873Y80688535D01*
X323862778Y80650440D01*
X323786588Y80612345D01*
X323634207Y80612345D01*
X323558016Y80650440D01*
X323519921Y80688535D01*
X323481826Y80764726D01*
X323481826Y80955202D01*
X323519921Y81031392D01*
X323558016Y81069488D01*
X323634207Y81107583D01*
X323786588Y81107583D01*
X323862778Y81069488D01*
X323900873Y81031392D01*
X323938969Y80955202D01*
G04 #@! TO.C,D75*
X325462778Y113772045D02*
X325462778Y114572045D01*
X325272302Y114572045D01*
X325158016Y114533950D01*
X325081826Y114457759D01*
X325043730Y114381569D01*
X325005635Y114229188D01*
X325005635Y114114902D01*
X325043730Y113962521D01*
X325081826Y113886330D01*
X325158016Y113810140D01*
X325272302Y113772045D01*
X325462778Y113772045D01*
X324738969Y114572045D02*
X324205635Y114572045D01*
X324548492Y113772045D01*
X323519921Y114572045D02*
X323900873Y114572045D01*
X323938969Y114191092D01*
X323900873Y114229188D01*
X323824683Y114267283D01*
X323634207Y114267283D01*
X323558016Y114229188D01*
X323519921Y114191092D01*
X323481826Y114114902D01*
X323481826Y113924426D01*
X323519921Y113848235D01*
X323558016Y113810140D01*
X323634207Y113772045D01*
X323824683Y113772045D01*
X323900873Y113810140D01*
X323938969Y113848235D01*
G04 #@! TO.C,D103*
X446639780Y52189745D02*
X446639780Y52989745D01*
X446449304Y52989745D01*
X446335019Y52951650D01*
X446258828Y52875459D01*
X446220733Y52799269D01*
X446182638Y52646888D01*
X446182638Y52532602D01*
X446220733Y52380221D01*
X446258828Y52304030D01*
X446335019Y52227840D01*
X446449304Y52189745D01*
X446639780Y52189745D01*
X445420733Y52189745D02*
X445877876Y52189745D01*
X445649304Y52189745D02*
X445649304Y52989745D01*
X445725495Y52875459D01*
X445801685Y52799269D01*
X445877876Y52761173D01*
X444925495Y52989745D02*
X444849304Y52989745D01*
X444773114Y52951650D01*
X444735019Y52913554D01*
X444696923Y52837364D01*
X444658828Y52684983D01*
X444658828Y52494507D01*
X444696923Y52342126D01*
X444735019Y52265935D01*
X444773114Y52227840D01*
X444849304Y52189745D01*
X444925495Y52189745D01*
X445001685Y52227840D01*
X445039780Y52265935D01*
X445077876Y52342126D01*
X445115971Y52494507D01*
X445115971Y52684983D01*
X445077876Y52837364D01*
X445039780Y52913554D01*
X445001685Y52951650D01*
X444925495Y52989745D01*
X444392161Y52989745D02*
X443896923Y52989745D01*
X444163590Y52684983D01*
X444049304Y52684983D01*
X443973114Y52646888D01*
X443935019Y52608792D01*
X443896923Y52532602D01*
X443896923Y52342126D01*
X443935019Y52265935D01*
X443973114Y52227840D01*
X444049304Y52189745D01*
X444277876Y52189745D01*
X444354066Y52227840D01*
X444392161Y52265935D01*
G04 #@! TO.C,D71*
X294671628Y61663945D02*
X294671628Y62463945D01*
X294481152Y62463945D01*
X294366866Y62425850D01*
X294290676Y62349659D01*
X294252580Y62273469D01*
X294214485Y62121088D01*
X294214485Y62006802D01*
X294252580Y61854421D01*
X294290676Y61778230D01*
X294366866Y61702040D01*
X294481152Y61663945D01*
X294671628Y61663945D01*
X293947819Y62463945D02*
X293414485Y62463945D01*
X293757342Y61663945D01*
X292690676Y61663945D02*
X293147819Y61663945D01*
X292919247Y61663945D02*
X292919247Y62463945D01*
X292995438Y62349659D01*
X293071628Y62273469D01*
X293147819Y62235373D01*
G04 #@! TO.C,D70*
X289934528Y80612345D02*
X289934528Y81412345D01*
X289744052Y81412345D01*
X289629766Y81374250D01*
X289553576Y81298059D01*
X289515480Y81221869D01*
X289477385Y81069488D01*
X289477385Y80955202D01*
X289515480Y80802821D01*
X289553576Y80726630D01*
X289629766Y80650440D01*
X289744052Y80612345D01*
X289934528Y80612345D01*
X289210719Y81412345D02*
X288677385Y81412345D01*
X289020242Y80612345D01*
X288220242Y81412345D02*
X288144052Y81412345D01*
X288067861Y81374250D01*
X288029766Y81336154D01*
X287991671Y81259964D01*
X287953576Y81107583D01*
X287953576Y80917107D01*
X287991671Y80764726D01*
X288029766Y80688535D01*
X288067861Y80650440D01*
X288144052Y80612345D01*
X288220242Y80612345D01*
X288296433Y80650440D01*
X288334528Y80688535D01*
X288372623Y80764726D01*
X288410719Y80917107D01*
X288410719Y81107583D01*
X288372623Y81259964D01*
X288334528Y81336154D01*
X288296433Y81374250D01*
X288220242Y81412345D01*
G04 #@! TO.C,D104*
X446639780Y14292945D02*
X446639780Y15092945D01*
X446449304Y15092945D01*
X446335019Y15054850D01*
X446258828Y14978659D01*
X446220733Y14902469D01*
X446182638Y14750088D01*
X446182638Y14635802D01*
X446220733Y14483421D01*
X446258828Y14407230D01*
X446335019Y14331040D01*
X446449304Y14292945D01*
X446639780Y14292945D01*
X445420733Y14292945D02*
X445877876Y14292945D01*
X445649304Y14292945D02*
X445649304Y15092945D01*
X445725495Y14978659D01*
X445801685Y14902469D01*
X445877876Y14864373D01*
X444925495Y15092945D02*
X444849304Y15092945D01*
X444773114Y15054850D01*
X444735019Y15016754D01*
X444696923Y14940564D01*
X444658828Y14788183D01*
X444658828Y14597707D01*
X444696923Y14445326D01*
X444735019Y14369135D01*
X444773114Y14331040D01*
X444849304Y14292945D01*
X444925495Y14292945D01*
X445001685Y14331040D01*
X445039780Y14369135D01*
X445077876Y14445326D01*
X445115971Y14597707D01*
X445115971Y14788183D01*
X445077876Y14940564D01*
X445039780Y15016754D01*
X445001685Y15054850D01*
X444925495Y15092945D01*
X443973114Y14826278D02*
X443973114Y14292945D01*
X444163590Y15131040D02*
X444354066Y14559611D01*
X443858828Y14559611D01*
G04 #@! TO.C,D102*
X446639780Y80612345D02*
X446639780Y81412345D01*
X446449304Y81412345D01*
X446335019Y81374250D01*
X446258828Y81298059D01*
X446220733Y81221869D01*
X446182638Y81069488D01*
X446182638Y80955202D01*
X446220733Y80802821D01*
X446258828Y80726630D01*
X446335019Y80650440D01*
X446449304Y80612345D01*
X446639780Y80612345D01*
X445420733Y80612345D02*
X445877876Y80612345D01*
X445649304Y80612345D02*
X445649304Y81412345D01*
X445725495Y81298059D01*
X445801685Y81221869D01*
X445877876Y81183773D01*
X444925495Y81412345D02*
X444849304Y81412345D01*
X444773114Y81374250D01*
X444735019Y81336154D01*
X444696923Y81259964D01*
X444658828Y81107583D01*
X444658828Y80917107D01*
X444696923Y80764726D01*
X444735019Y80688535D01*
X444773114Y80650440D01*
X444849304Y80612345D01*
X444925495Y80612345D01*
X445001685Y80650440D01*
X445039780Y80688535D01*
X445077876Y80764726D01*
X445115971Y80917107D01*
X445115971Y81107583D01*
X445077876Y81259964D01*
X445039780Y81336154D01*
X445001685Y81374250D01*
X444925495Y81412345D01*
X444354066Y81336154D02*
X444315971Y81374250D01*
X444239780Y81412345D01*
X444049304Y81412345D01*
X443973114Y81374250D01*
X443935019Y81336154D01*
X443896923Y81259964D01*
X443896923Y81183773D01*
X443935019Y81069488D01*
X444392161Y80612345D01*
X443896923Y80612345D01*
G04 #@! TO.C,D72*
X287565978Y42715545D02*
X287565978Y43515545D01*
X287375502Y43515545D01*
X287261216Y43477450D01*
X287185026Y43401259D01*
X287146930Y43325069D01*
X287108835Y43172688D01*
X287108835Y43058402D01*
X287146930Y42906021D01*
X287185026Y42829830D01*
X287261216Y42753640D01*
X287375502Y42715545D01*
X287565978Y42715545D01*
X286842169Y43515545D02*
X286308835Y43515545D01*
X286651692Y42715545D01*
X286042169Y43439354D02*
X286004073Y43477450D01*
X285927883Y43515545D01*
X285737407Y43515545D01*
X285661216Y43477450D01*
X285623121Y43439354D01*
X285585026Y43363164D01*
X285585026Y43286973D01*
X285623121Y43172688D01*
X286080264Y42715545D01*
X285585026Y42715545D01*
G04 #@! TO.C,D68*
X270986128Y61663945D02*
X270986128Y62463945D01*
X270795652Y62463945D01*
X270681366Y62425850D01*
X270605176Y62349659D01*
X270567080Y62273469D01*
X270528985Y62121088D01*
X270528985Y62006802D01*
X270567080Y61854421D01*
X270605176Y61778230D01*
X270681366Y61702040D01*
X270795652Y61663945D01*
X270986128Y61663945D01*
X269843271Y62463945D02*
X269995652Y62463945D01*
X270071842Y62425850D01*
X270109938Y62387754D01*
X270186128Y62273469D01*
X270224223Y62121088D01*
X270224223Y61816326D01*
X270186128Y61740135D01*
X270148033Y61702040D01*
X270071842Y61663945D01*
X269919461Y61663945D01*
X269843271Y61702040D01*
X269805176Y61740135D01*
X269767080Y61816326D01*
X269767080Y62006802D01*
X269805176Y62082992D01*
X269843271Y62121088D01*
X269919461Y62159183D01*
X270071842Y62159183D01*
X270148033Y62121088D01*
X270186128Y62082992D01*
X270224223Y62006802D01*
X269309938Y62121088D02*
X269386128Y62159183D01*
X269424223Y62197278D01*
X269462319Y62273469D01*
X269462319Y62311564D01*
X269424223Y62387754D01*
X269386128Y62425850D01*
X269309938Y62463945D01*
X269157557Y62463945D01*
X269081366Y62425850D01*
X269043271Y62387754D01*
X269005176Y62311564D01*
X269005176Y62273469D01*
X269043271Y62197278D01*
X269081366Y62159183D01*
X269157557Y62121088D01*
X269309938Y62121088D01*
X269386128Y62082992D01*
X269424223Y62044897D01*
X269462319Y61968707D01*
X269462319Y61816326D01*
X269424223Y61740135D01*
X269386128Y61702040D01*
X269309938Y61663945D01*
X269157557Y61663945D01*
X269081366Y61702040D01*
X269043271Y61740135D01*
X269005176Y61816326D01*
X269005176Y61968707D01*
X269043271Y62044897D01*
X269081366Y62082992D01*
X269157557Y62121088D01*
G04 #@! TO.C,D67*
X261511928Y80612345D02*
X261511928Y81412345D01*
X261321452Y81412345D01*
X261207166Y81374250D01*
X261130976Y81298059D01*
X261092880Y81221869D01*
X261054785Y81069488D01*
X261054785Y80955202D01*
X261092880Y80802821D01*
X261130976Y80726630D01*
X261207166Y80650440D01*
X261321452Y80612345D01*
X261511928Y80612345D01*
X260369071Y81412345D02*
X260521452Y81412345D01*
X260597642Y81374250D01*
X260635738Y81336154D01*
X260711928Y81221869D01*
X260750023Y81069488D01*
X260750023Y80764726D01*
X260711928Y80688535D01*
X260673833Y80650440D01*
X260597642Y80612345D01*
X260445261Y80612345D01*
X260369071Y80650440D01*
X260330976Y80688535D01*
X260292880Y80764726D01*
X260292880Y80955202D01*
X260330976Y81031392D01*
X260369071Y81069488D01*
X260445261Y81107583D01*
X260597642Y81107583D01*
X260673833Y81069488D01*
X260711928Y81031392D01*
X260750023Y80955202D01*
X260026214Y81412345D02*
X259492880Y81412345D01*
X259835738Y80612345D01*
G04 #@! TO.C,D69*
X299408728Y113772045D02*
X299408728Y114572045D01*
X299218252Y114572045D01*
X299103966Y114533950D01*
X299027776Y114457759D01*
X298989680Y114381569D01*
X298951585Y114229188D01*
X298951585Y114114902D01*
X298989680Y113962521D01*
X299027776Y113886330D01*
X299103966Y113810140D01*
X299218252Y113772045D01*
X299408728Y113772045D01*
X298265871Y114572045D02*
X298418252Y114572045D01*
X298494442Y114533950D01*
X298532538Y114495854D01*
X298608728Y114381569D01*
X298646823Y114229188D01*
X298646823Y113924426D01*
X298608728Y113848235D01*
X298570633Y113810140D01*
X298494442Y113772045D01*
X298342061Y113772045D01*
X298265871Y113810140D01*
X298227776Y113848235D01*
X298189680Y113924426D01*
X298189680Y114114902D01*
X298227776Y114191092D01*
X298265871Y114229188D01*
X298342061Y114267283D01*
X298494442Y114267283D01*
X298570633Y114229188D01*
X298608728Y114191092D01*
X298646823Y114114902D01*
X297808728Y113772045D02*
X297656347Y113772045D01*
X297580157Y113810140D01*
X297542061Y113848235D01*
X297465871Y113962521D01*
X297427776Y114114902D01*
X297427776Y114419664D01*
X297465871Y114495854D01*
X297503966Y114533950D01*
X297580157Y114572045D01*
X297732538Y114572045D01*
X297808728Y114533950D01*
X297846823Y114495854D01*
X297884919Y114419664D01*
X297884919Y114229188D01*
X297846823Y114152997D01*
X297808728Y114114902D01*
X297732538Y114076807D01*
X297580157Y114076807D01*
X297503966Y114114902D01*
X297465871Y114152997D01*
X297427776Y114229188D01*
G04 #@! TO.C,D82*
X344411178Y23767145D02*
X344411178Y24567145D01*
X344220702Y24567145D01*
X344106416Y24529050D01*
X344030226Y24452859D01*
X343992130Y24376669D01*
X343954035Y24224288D01*
X343954035Y24110002D01*
X343992130Y23957621D01*
X344030226Y23881430D01*
X344106416Y23805240D01*
X344220702Y23767145D01*
X344411178Y23767145D01*
X343496892Y24224288D02*
X343573083Y24262383D01*
X343611178Y24300478D01*
X343649273Y24376669D01*
X343649273Y24414764D01*
X343611178Y24490954D01*
X343573083Y24529050D01*
X343496892Y24567145D01*
X343344511Y24567145D01*
X343268321Y24529050D01*
X343230226Y24490954D01*
X343192130Y24414764D01*
X343192130Y24376669D01*
X343230226Y24300478D01*
X343268321Y24262383D01*
X343344511Y24224288D01*
X343496892Y24224288D01*
X343573083Y24186192D01*
X343611178Y24148097D01*
X343649273Y24071907D01*
X343649273Y23919526D01*
X343611178Y23843335D01*
X343573083Y23805240D01*
X343496892Y23767145D01*
X343344511Y23767145D01*
X343268321Y23805240D01*
X343230226Y23843335D01*
X343192130Y23919526D01*
X343192130Y24071907D01*
X343230226Y24148097D01*
X343268321Y24186192D01*
X343344511Y24224288D01*
X342887369Y24490954D02*
X342849273Y24529050D01*
X342773083Y24567145D01*
X342582607Y24567145D01*
X342506416Y24529050D01*
X342468321Y24490954D01*
X342430226Y24414764D01*
X342430226Y24338573D01*
X342468321Y24224288D01*
X342925464Y23767145D01*
X342430226Y23767145D01*
G04 #@! TO.C,D73*
X282828878Y23767145D02*
X282828878Y24567145D01*
X282638402Y24567145D01*
X282524116Y24529050D01*
X282447926Y24452859D01*
X282409830Y24376669D01*
X282371735Y24224288D01*
X282371735Y24110002D01*
X282409830Y23957621D01*
X282447926Y23881430D01*
X282524116Y23805240D01*
X282638402Y23767145D01*
X282828878Y23767145D01*
X282105069Y24567145D02*
X281571735Y24567145D01*
X281914592Y23767145D01*
X281343164Y24567145D02*
X280847926Y24567145D01*
X281114592Y24262383D01*
X281000307Y24262383D01*
X280924116Y24224288D01*
X280886021Y24186192D01*
X280847926Y24110002D01*
X280847926Y23919526D01*
X280886021Y23843335D01*
X280924116Y23805240D01*
X281000307Y23767145D01*
X281228878Y23767145D01*
X281305069Y23805240D01*
X281343164Y23843335D01*
G04 #@! TO.C,D64*
X256774828Y42715545D02*
X256774828Y43515545D01*
X256584352Y43515545D01*
X256470066Y43477450D01*
X256393876Y43401259D01*
X256355780Y43325069D01*
X256317685Y43172688D01*
X256317685Y43058402D01*
X256355780Y42906021D01*
X256393876Y42829830D01*
X256470066Y42753640D01*
X256584352Y42715545D01*
X256774828Y42715545D01*
X255631971Y43515545D02*
X255784352Y43515545D01*
X255860542Y43477450D01*
X255898638Y43439354D01*
X255974828Y43325069D01*
X256012923Y43172688D01*
X256012923Y42867926D01*
X255974828Y42791735D01*
X255936733Y42753640D01*
X255860542Y42715545D01*
X255708161Y42715545D01*
X255631971Y42753640D01*
X255593876Y42791735D01*
X255555780Y42867926D01*
X255555780Y43058402D01*
X255593876Y43134592D01*
X255631971Y43172688D01*
X255708161Y43210783D01*
X255860542Y43210783D01*
X255936733Y43172688D01*
X255974828Y43134592D01*
X256012923Y43058402D01*
X254870066Y43248878D02*
X254870066Y42715545D01*
X255060542Y43553640D02*
X255251019Y42982211D01*
X254755780Y42982211D01*
G04 #@! TO.C,D63*
X252037728Y61663945D02*
X252037728Y62463945D01*
X251847252Y62463945D01*
X251732966Y62425850D01*
X251656776Y62349659D01*
X251618680Y62273469D01*
X251580585Y62121088D01*
X251580585Y62006802D01*
X251618680Y61854421D01*
X251656776Y61778230D01*
X251732966Y61702040D01*
X251847252Y61663945D01*
X252037728Y61663945D01*
X250894871Y62463945D02*
X251047252Y62463945D01*
X251123442Y62425850D01*
X251161538Y62387754D01*
X251237728Y62273469D01*
X251275823Y62121088D01*
X251275823Y61816326D01*
X251237728Y61740135D01*
X251199633Y61702040D01*
X251123442Y61663945D01*
X250971061Y61663945D01*
X250894871Y61702040D01*
X250856776Y61740135D01*
X250818680Y61816326D01*
X250818680Y62006802D01*
X250856776Y62082992D01*
X250894871Y62121088D01*
X250971061Y62159183D01*
X251123442Y62159183D01*
X251199633Y62121088D01*
X251237728Y62082992D01*
X251275823Y62006802D01*
X250552014Y62463945D02*
X250056776Y62463945D01*
X250323442Y62159183D01*
X250209157Y62159183D01*
X250132966Y62121088D01*
X250094871Y62082992D01*
X250056776Y62006802D01*
X250056776Y61816326D01*
X250094871Y61740135D01*
X250132966Y61702040D01*
X250209157Y61663945D01*
X250437728Y61663945D01*
X250513919Y61702040D01*
X250552014Y61740135D01*
G04 #@! TO.C,D62*
X242563528Y80612345D02*
X242563528Y81412345D01*
X242373052Y81412345D01*
X242258766Y81374250D01*
X242182576Y81298059D01*
X242144480Y81221869D01*
X242106385Y81069488D01*
X242106385Y80955202D01*
X242144480Y80802821D01*
X242182576Y80726630D01*
X242258766Y80650440D01*
X242373052Y80612345D01*
X242563528Y80612345D01*
X241420671Y81412345D02*
X241573052Y81412345D01*
X241649242Y81374250D01*
X241687338Y81336154D01*
X241763528Y81221869D01*
X241801623Y81069488D01*
X241801623Y80764726D01*
X241763528Y80688535D01*
X241725433Y80650440D01*
X241649242Y80612345D01*
X241496861Y80612345D01*
X241420671Y80650440D01*
X241382576Y80688535D01*
X241344480Y80764726D01*
X241344480Y80955202D01*
X241382576Y81031392D01*
X241420671Y81069488D01*
X241496861Y81107583D01*
X241649242Y81107583D01*
X241725433Y81069488D01*
X241763528Y81031392D01*
X241801623Y80955202D01*
X241039719Y81336154D02*
X241001623Y81374250D01*
X240925433Y81412345D01*
X240734957Y81412345D01*
X240658766Y81374250D01*
X240620671Y81336154D01*
X240582576Y81259964D01*
X240582576Y81183773D01*
X240620671Y81069488D01*
X241077814Y80612345D01*
X240582576Y80612345D01*
G04 #@! TO.C,D66*
X280460328Y113772045D02*
X280460328Y114572045D01*
X280269852Y114572045D01*
X280155566Y114533950D01*
X280079376Y114457759D01*
X280041280Y114381569D01*
X280003185Y114229188D01*
X280003185Y114114902D01*
X280041280Y113962521D01*
X280079376Y113886330D01*
X280155566Y113810140D01*
X280269852Y113772045D01*
X280460328Y113772045D01*
X279317471Y114572045D02*
X279469852Y114572045D01*
X279546042Y114533950D01*
X279584138Y114495854D01*
X279660328Y114381569D01*
X279698423Y114229188D01*
X279698423Y113924426D01*
X279660328Y113848235D01*
X279622233Y113810140D01*
X279546042Y113772045D01*
X279393661Y113772045D01*
X279317471Y113810140D01*
X279279376Y113848235D01*
X279241280Y113924426D01*
X279241280Y114114902D01*
X279279376Y114191092D01*
X279317471Y114229188D01*
X279393661Y114267283D01*
X279546042Y114267283D01*
X279622233Y114229188D01*
X279660328Y114191092D01*
X279698423Y114114902D01*
X278555566Y114572045D02*
X278707947Y114572045D01*
X278784138Y114533950D01*
X278822233Y114495854D01*
X278898423Y114381569D01*
X278936519Y114229188D01*
X278936519Y113924426D01*
X278898423Y113848235D01*
X278860328Y113810140D01*
X278784138Y113772045D01*
X278631757Y113772045D01*
X278555566Y113810140D01*
X278517471Y113848235D01*
X278479376Y113924426D01*
X278479376Y114114902D01*
X278517471Y114191092D01*
X278555566Y114229188D01*
X278631757Y114267283D01*
X278784138Y114267283D01*
X278860328Y114229188D01*
X278898423Y114191092D01*
X278936519Y114114902D01*
G04 #@! TO.C,D87*
X363359578Y4818745D02*
X363359578Y5618745D01*
X363169102Y5618745D01*
X363054816Y5580650D01*
X362978626Y5504459D01*
X362940530Y5428269D01*
X362902435Y5275888D01*
X362902435Y5161602D01*
X362940530Y5009221D01*
X362978626Y4933030D01*
X363054816Y4856840D01*
X363169102Y4818745D01*
X363359578Y4818745D01*
X362445292Y5275888D02*
X362521483Y5313983D01*
X362559578Y5352078D01*
X362597673Y5428269D01*
X362597673Y5466364D01*
X362559578Y5542554D01*
X362521483Y5580650D01*
X362445292Y5618745D01*
X362292911Y5618745D01*
X362216721Y5580650D01*
X362178626Y5542554D01*
X362140530Y5466364D01*
X362140530Y5428269D01*
X362178626Y5352078D01*
X362216721Y5313983D01*
X362292911Y5275888D01*
X362445292Y5275888D01*
X362521483Y5237792D01*
X362559578Y5199697D01*
X362597673Y5123507D01*
X362597673Y4971126D01*
X362559578Y4894935D01*
X362521483Y4856840D01*
X362445292Y4818745D01*
X362292911Y4818745D01*
X362216721Y4856840D01*
X362178626Y4894935D01*
X362140530Y4971126D01*
X362140530Y5123507D01*
X362178626Y5199697D01*
X362216721Y5237792D01*
X362292911Y5275888D01*
X361873864Y5618745D02*
X361340530Y5618745D01*
X361683388Y4818745D01*
G04 #@! TO.C,D59*
X247300628Y23767145D02*
X247300628Y24567145D01*
X247110152Y24567145D01*
X246995866Y24529050D01*
X246919676Y24452859D01*
X246881580Y24376669D01*
X246843485Y24224288D01*
X246843485Y24110002D01*
X246881580Y23957621D01*
X246919676Y23881430D01*
X246995866Y23805240D01*
X247110152Y23767145D01*
X247300628Y23767145D01*
X246119676Y24567145D02*
X246500628Y24567145D01*
X246538723Y24186192D01*
X246500628Y24224288D01*
X246424438Y24262383D01*
X246233961Y24262383D01*
X246157771Y24224288D01*
X246119676Y24186192D01*
X246081580Y24110002D01*
X246081580Y23919526D01*
X246119676Y23843335D01*
X246157771Y23805240D01*
X246233961Y23767145D01*
X246424438Y23767145D01*
X246500628Y23805240D01*
X246538723Y23843335D01*
X245700628Y23767145D02*
X245548247Y23767145D01*
X245472057Y23805240D01*
X245433961Y23843335D01*
X245357771Y23957621D01*
X245319676Y24110002D01*
X245319676Y24414764D01*
X245357771Y24490954D01*
X245395866Y24529050D01*
X245472057Y24567145D01*
X245624438Y24567145D01*
X245700628Y24529050D01*
X245738723Y24490954D01*
X245776819Y24414764D01*
X245776819Y24224288D01*
X245738723Y24148097D01*
X245700628Y24110002D01*
X245624438Y24071907D01*
X245472057Y24071907D01*
X245395866Y24110002D01*
X245357771Y24148097D01*
X245319676Y24224288D01*
G04 #@! TO.C,D58*
X237826428Y42715545D02*
X237826428Y43515545D01*
X237635952Y43515545D01*
X237521666Y43477450D01*
X237445476Y43401259D01*
X237407380Y43325069D01*
X237369285Y43172688D01*
X237369285Y43058402D01*
X237407380Y42906021D01*
X237445476Y42829830D01*
X237521666Y42753640D01*
X237635952Y42715545D01*
X237826428Y42715545D01*
X236645476Y43515545D02*
X237026428Y43515545D01*
X237064523Y43134592D01*
X237026428Y43172688D01*
X236950238Y43210783D01*
X236759761Y43210783D01*
X236683571Y43172688D01*
X236645476Y43134592D01*
X236607380Y43058402D01*
X236607380Y42867926D01*
X236645476Y42791735D01*
X236683571Y42753640D01*
X236759761Y42715545D01*
X236950238Y42715545D01*
X237026428Y42753640D01*
X237064523Y42791735D01*
X236150238Y43172688D02*
X236226428Y43210783D01*
X236264523Y43248878D01*
X236302619Y43325069D01*
X236302619Y43363164D01*
X236264523Y43439354D01*
X236226428Y43477450D01*
X236150238Y43515545D01*
X235997857Y43515545D01*
X235921666Y43477450D01*
X235883571Y43439354D01*
X235845476Y43363164D01*
X235845476Y43325069D01*
X235883571Y43248878D01*
X235921666Y43210783D01*
X235997857Y43172688D01*
X236150238Y43172688D01*
X236226428Y43134592D01*
X236264523Y43096497D01*
X236302619Y43020307D01*
X236302619Y42867926D01*
X236264523Y42791735D01*
X236226428Y42753640D01*
X236150238Y42715545D01*
X235997857Y42715545D01*
X235921666Y42753640D01*
X235883571Y42791735D01*
X235845476Y42867926D01*
X235845476Y43020307D01*
X235883571Y43096497D01*
X235921666Y43134592D01*
X235997857Y43172688D01*
G04 #@! TO.C,D57*
X233089328Y61663945D02*
X233089328Y62463945D01*
X232898852Y62463945D01*
X232784566Y62425850D01*
X232708376Y62349659D01*
X232670280Y62273469D01*
X232632185Y62121088D01*
X232632185Y62006802D01*
X232670280Y61854421D01*
X232708376Y61778230D01*
X232784566Y61702040D01*
X232898852Y61663945D01*
X233089328Y61663945D01*
X231908376Y62463945D02*
X232289328Y62463945D01*
X232327423Y62082992D01*
X232289328Y62121088D01*
X232213138Y62159183D01*
X232022661Y62159183D01*
X231946471Y62121088D01*
X231908376Y62082992D01*
X231870280Y62006802D01*
X231870280Y61816326D01*
X231908376Y61740135D01*
X231946471Y61702040D01*
X232022661Y61663945D01*
X232213138Y61663945D01*
X232289328Y61702040D01*
X232327423Y61740135D01*
X231603614Y62463945D02*
X231070280Y62463945D01*
X231413138Y61663945D01*
G04 #@! TO.C,D56*
X223615128Y80612345D02*
X223615128Y81412345D01*
X223424652Y81412345D01*
X223310366Y81374250D01*
X223234176Y81298059D01*
X223196080Y81221869D01*
X223157985Y81069488D01*
X223157985Y80955202D01*
X223196080Y80802821D01*
X223234176Y80726630D01*
X223310366Y80650440D01*
X223424652Y80612345D01*
X223615128Y80612345D01*
X222434176Y81412345D02*
X222815128Y81412345D01*
X222853223Y81031392D01*
X222815128Y81069488D01*
X222738938Y81107583D01*
X222548461Y81107583D01*
X222472271Y81069488D01*
X222434176Y81031392D01*
X222396080Y80955202D01*
X222396080Y80764726D01*
X222434176Y80688535D01*
X222472271Y80650440D01*
X222548461Y80612345D01*
X222738938Y80612345D01*
X222815128Y80650440D01*
X222853223Y80688535D01*
X221710366Y81412345D02*
X221862747Y81412345D01*
X221938938Y81374250D01*
X221977033Y81336154D01*
X222053223Y81221869D01*
X222091319Y81069488D01*
X222091319Y80764726D01*
X222053223Y80688535D01*
X222015128Y80650440D01*
X221938938Y80612345D01*
X221786557Y80612345D01*
X221710366Y80650440D01*
X221672271Y80688535D01*
X221634176Y80764726D01*
X221634176Y80955202D01*
X221672271Y81031392D01*
X221710366Y81069488D01*
X221786557Y81107583D01*
X221938938Y81107583D01*
X222015128Y81069488D01*
X222053223Y81031392D01*
X222091319Y80955202D01*
G04 #@! TO.C,D61*
X261511928Y113772045D02*
X261511928Y114572045D01*
X261321452Y114572045D01*
X261207166Y114533950D01*
X261130976Y114457759D01*
X261092880Y114381569D01*
X261054785Y114229188D01*
X261054785Y114114902D01*
X261092880Y113962521D01*
X261130976Y113886330D01*
X261207166Y113810140D01*
X261321452Y113772045D01*
X261511928Y113772045D01*
X260369071Y114572045D02*
X260521452Y114572045D01*
X260597642Y114533950D01*
X260635738Y114495854D01*
X260711928Y114381569D01*
X260750023Y114229188D01*
X260750023Y113924426D01*
X260711928Y113848235D01*
X260673833Y113810140D01*
X260597642Y113772045D01*
X260445261Y113772045D01*
X260369071Y113810140D01*
X260330976Y113848235D01*
X260292880Y113924426D01*
X260292880Y114114902D01*
X260330976Y114191092D01*
X260369071Y114229188D01*
X260445261Y114267283D01*
X260597642Y114267283D01*
X260673833Y114229188D01*
X260711928Y114191092D01*
X260750023Y114114902D01*
X259530976Y113772045D02*
X259988119Y113772045D01*
X259759547Y113772045D02*
X259759547Y114572045D01*
X259835738Y114457759D01*
X259911928Y114381569D01*
X259988119Y114343473D01*
G04 #@! TO.C,D83*
X344411178Y4818745D02*
X344411178Y5618745D01*
X344220702Y5618745D01*
X344106416Y5580650D01*
X344030226Y5504459D01*
X343992130Y5428269D01*
X343954035Y5275888D01*
X343954035Y5161602D01*
X343992130Y5009221D01*
X344030226Y4933030D01*
X344106416Y4856840D01*
X344220702Y4818745D01*
X344411178Y4818745D01*
X343496892Y5275888D02*
X343573083Y5313983D01*
X343611178Y5352078D01*
X343649273Y5428269D01*
X343649273Y5466364D01*
X343611178Y5542554D01*
X343573083Y5580650D01*
X343496892Y5618745D01*
X343344511Y5618745D01*
X343268321Y5580650D01*
X343230226Y5542554D01*
X343192130Y5466364D01*
X343192130Y5428269D01*
X343230226Y5352078D01*
X343268321Y5313983D01*
X343344511Y5275888D01*
X343496892Y5275888D01*
X343573083Y5237792D01*
X343611178Y5199697D01*
X343649273Y5123507D01*
X343649273Y4971126D01*
X343611178Y4894935D01*
X343573083Y4856840D01*
X343496892Y4818745D01*
X343344511Y4818745D01*
X343268321Y4856840D01*
X343230226Y4894935D01*
X343192130Y4971126D01*
X343192130Y5123507D01*
X343230226Y5199697D01*
X343268321Y5237792D01*
X343344511Y5275888D01*
X342925464Y5618745D02*
X342430226Y5618745D01*
X342696892Y5313983D01*
X342582607Y5313983D01*
X342506416Y5275888D01*
X342468321Y5237792D01*
X342430226Y5161602D01*
X342430226Y4971126D01*
X342468321Y4894935D01*
X342506416Y4856840D01*
X342582607Y4818745D01*
X342811178Y4818745D01*
X342887369Y4856840D01*
X342925464Y4894935D01*
G04 #@! TO.C,D53*
X228352228Y23767145D02*
X228352228Y24567145D01*
X228161752Y24567145D01*
X228047466Y24529050D01*
X227971276Y24452859D01*
X227933180Y24376669D01*
X227895085Y24224288D01*
X227895085Y24110002D01*
X227933180Y23957621D01*
X227971276Y23881430D01*
X228047466Y23805240D01*
X228161752Y23767145D01*
X228352228Y23767145D01*
X227171276Y24567145D02*
X227552228Y24567145D01*
X227590323Y24186192D01*
X227552228Y24224288D01*
X227476038Y24262383D01*
X227285561Y24262383D01*
X227209371Y24224288D01*
X227171276Y24186192D01*
X227133180Y24110002D01*
X227133180Y23919526D01*
X227171276Y23843335D01*
X227209371Y23805240D01*
X227285561Y23767145D01*
X227476038Y23767145D01*
X227552228Y23805240D01*
X227590323Y23843335D01*
X226866514Y24567145D02*
X226371276Y24567145D01*
X226637942Y24262383D01*
X226523657Y24262383D01*
X226447466Y24224288D01*
X226409371Y24186192D01*
X226371276Y24110002D01*
X226371276Y23919526D01*
X226409371Y23843335D01*
X226447466Y23805240D01*
X226523657Y23767145D01*
X226752228Y23767145D01*
X226828419Y23805240D01*
X226866514Y23843335D01*
G04 #@! TO.C,D52*
X218878028Y42715545D02*
X218878028Y43515545D01*
X218687552Y43515545D01*
X218573266Y43477450D01*
X218497076Y43401259D01*
X218458980Y43325069D01*
X218420885Y43172688D01*
X218420885Y43058402D01*
X218458980Y42906021D01*
X218497076Y42829830D01*
X218573266Y42753640D01*
X218687552Y42715545D01*
X218878028Y42715545D01*
X217697076Y43515545D02*
X218078028Y43515545D01*
X218116123Y43134592D01*
X218078028Y43172688D01*
X218001838Y43210783D01*
X217811361Y43210783D01*
X217735171Y43172688D01*
X217697076Y43134592D01*
X217658980Y43058402D01*
X217658980Y42867926D01*
X217697076Y42791735D01*
X217735171Y42753640D01*
X217811361Y42715545D01*
X218001838Y42715545D01*
X218078028Y42753640D01*
X218116123Y42791735D01*
X217354219Y43439354D02*
X217316123Y43477450D01*
X217239933Y43515545D01*
X217049457Y43515545D01*
X216973266Y43477450D01*
X216935171Y43439354D01*
X216897076Y43363164D01*
X216897076Y43286973D01*
X216935171Y43172688D01*
X217392314Y42715545D01*
X216897076Y42715545D01*
G04 #@! TO.C,D51*
X214140928Y61663945D02*
X214140928Y62463945D01*
X213950452Y62463945D01*
X213836166Y62425850D01*
X213759976Y62349659D01*
X213721880Y62273469D01*
X213683785Y62121088D01*
X213683785Y62006802D01*
X213721880Y61854421D01*
X213759976Y61778230D01*
X213836166Y61702040D01*
X213950452Y61663945D01*
X214140928Y61663945D01*
X212959976Y62463945D02*
X213340928Y62463945D01*
X213379023Y62082992D01*
X213340928Y62121088D01*
X213264738Y62159183D01*
X213074261Y62159183D01*
X212998071Y62121088D01*
X212959976Y62082992D01*
X212921880Y62006802D01*
X212921880Y61816326D01*
X212959976Y61740135D01*
X212998071Y61702040D01*
X213074261Y61663945D01*
X213264738Y61663945D01*
X213340928Y61702040D01*
X213379023Y61740135D01*
X212159976Y61663945D02*
X212617119Y61663945D01*
X212388547Y61663945D02*
X212388547Y62463945D01*
X212464738Y62349659D01*
X212540928Y62273469D01*
X212617119Y62235373D01*
G04 #@! TO.C,D50*
X204666728Y80612345D02*
X204666728Y81412345D01*
X204476252Y81412345D01*
X204361966Y81374250D01*
X204285776Y81298059D01*
X204247680Y81221869D01*
X204209585Y81069488D01*
X204209585Y80955202D01*
X204247680Y80802821D01*
X204285776Y80726630D01*
X204361966Y80650440D01*
X204476252Y80612345D01*
X204666728Y80612345D01*
X203485776Y81412345D02*
X203866728Y81412345D01*
X203904823Y81031392D01*
X203866728Y81069488D01*
X203790538Y81107583D01*
X203600061Y81107583D01*
X203523871Y81069488D01*
X203485776Y81031392D01*
X203447680Y80955202D01*
X203447680Y80764726D01*
X203485776Y80688535D01*
X203523871Y80650440D01*
X203600061Y80612345D01*
X203790538Y80612345D01*
X203866728Y80650440D01*
X203904823Y80688535D01*
X202952442Y81412345D02*
X202876252Y81412345D01*
X202800061Y81374250D01*
X202761966Y81336154D01*
X202723871Y81259964D01*
X202685776Y81107583D01*
X202685776Y80917107D01*
X202723871Y80764726D01*
X202761966Y80688535D01*
X202800061Y80650440D01*
X202876252Y80612345D01*
X202952442Y80612345D01*
X203028633Y80650440D01*
X203066728Y80688535D01*
X203104823Y80764726D01*
X203142919Y80917107D01*
X203142919Y81107583D01*
X203104823Y81259964D01*
X203066728Y81336154D01*
X203028633Y81374250D01*
X202952442Y81412345D01*
G04 #@! TO.C,D55*
X242563528Y113772045D02*
X242563528Y114572045D01*
X242373052Y114572045D01*
X242258766Y114533950D01*
X242182576Y114457759D01*
X242144480Y114381569D01*
X242106385Y114229188D01*
X242106385Y114114902D01*
X242144480Y113962521D01*
X242182576Y113886330D01*
X242258766Y113810140D01*
X242373052Y113772045D01*
X242563528Y113772045D01*
X241382576Y114572045D02*
X241763528Y114572045D01*
X241801623Y114191092D01*
X241763528Y114229188D01*
X241687338Y114267283D01*
X241496861Y114267283D01*
X241420671Y114229188D01*
X241382576Y114191092D01*
X241344480Y114114902D01*
X241344480Y113924426D01*
X241382576Y113848235D01*
X241420671Y113810140D01*
X241496861Y113772045D01*
X241687338Y113772045D01*
X241763528Y113810140D01*
X241801623Y113848235D01*
X240620671Y114572045D02*
X241001623Y114572045D01*
X241039719Y114191092D01*
X241001623Y114229188D01*
X240925433Y114267283D01*
X240734957Y114267283D01*
X240658766Y114229188D01*
X240620671Y114191092D01*
X240582576Y114114902D01*
X240582576Y113924426D01*
X240620671Y113848235D01*
X240658766Y113810140D01*
X240734957Y113772045D01*
X240925433Y113772045D01*
X241001623Y113810140D01*
X241039719Y113848235D01*
G04 #@! TO.C,D78*
X325462778Y4818745D02*
X325462778Y5618745D01*
X325272302Y5618745D01*
X325158016Y5580650D01*
X325081826Y5504459D01*
X325043730Y5428269D01*
X325005635Y5275888D01*
X325005635Y5161602D01*
X325043730Y5009221D01*
X325081826Y4933030D01*
X325158016Y4856840D01*
X325272302Y4818745D01*
X325462778Y4818745D01*
X324738969Y5618745D02*
X324205635Y5618745D01*
X324548492Y4818745D01*
X323786588Y5275888D02*
X323862778Y5313983D01*
X323900873Y5352078D01*
X323938969Y5428269D01*
X323938969Y5466364D01*
X323900873Y5542554D01*
X323862778Y5580650D01*
X323786588Y5618745D01*
X323634207Y5618745D01*
X323558016Y5580650D01*
X323519921Y5542554D01*
X323481826Y5466364D01*
X323481826Y5428269D01*
X323519921Y5352078D01*
X323558016Y5313983D01*
X323634207Y5275888D01*
X323786588Y5275888D01*
X323862778Y5237792D01*
X323900873Y5199697D01*
X323938969Y5123507D01*
X323938969Y4971126D01*
X323900873Y4894935D01*
X323862778Y4856840D01*
X323786588Y4818745D01*
X323634207Y4818745D01*
X323558016Y4856840D01*
X323519921Y4894935D01*
X323481826Y4971126D01*
X323481826Y5123507D01*
X323519921Y5199697D01*
X323558016Y5237792D01*
X323634207Y5275888D01*
G04 #@! TO.C,D49*
X209403828Y23767145D02*
X209403828Y24567145D01*
X209213352Y24567145D01*
X209099066Y24529050D01*
X209022876Y24452859D01*
X208984780Y24376669D01*
X208946685Y24224288D01*
X208946685Y24110002D01*
X208984780Y23957621D01*
X209022876Y23881430D01*
X209099066Y23805240D01*
X209213352Y23767145D01*
X209403828Y23767145D01*
X208260971Y24300478D02*
X208260971Y23767145D01*
X208451447Y24605240D02*
X208641923Y24033811D01*
X208146685Y24033811D01*
X207803828Y23767145D02*
X207651447Y23767145D01*
X207575257Y23805240D01*
X207537161Y23843335D01*
X207460971Y23957621D01*
X207422876Y24110002D01*
X207422876Y24414764D01*
X207460971Y24490954D01*
X207499066Y24529050D01*
X207575257Y24567145D01*
X207727638Y24567145D01*
X207803828Y24529050D01*
X207841923Y24490954D01*
X207880019Y24414764D01*
X207880019Y24224288D01*
X207841923Y24148097D01*
X207803828Y24110002D01*
X207727638Y24071907D01*
X207575257Y24071907D01*
X207499066Y24110002D01*
X207460971Y24148097D01*
X207422876Y24224288D01*
G04 #@! TO.C,D48*
X199929628Y42715545D02*
X199929628Y43515545D01*
X199739152Y43515545D01*
X199624866Y43477450D01*
X199548676Y43401259D01*
X199510580Y43325069D01*
X199472485Y43172688D01*
X199472485Y43058402D01*
X199510580Y42906021D01*
X199548676Y42829830D01*
X199624866Y42753640D01*
X199739152Y42715545D01*
X199929628Y42715545D01*
X198786771Y43248878D02*
X198786771Y42715545D01*
X198977247Y43553640D02*
X199167723Y42982211D01*
X198672485Y42982211D01*
X198253438Y43172688D02*
X198329628Y43210783D01*
X198367723Y43248878D01*
X198405819Y43325069D01*
X198405819Y43363164D01*
X198367723Y43439354D01*
X198329628Y43477450D01*
X198253438Y43515545D01*
X198101057Y43515545D01*
X198024866Y43477450D01*
X197986771Y43439354D01*
X197948676Y43363164D01*
X197948676Y43325069D01*
X197986771Y43248878D01*
X198024866Y43210783D01*
X198101057Y43172688D01*
X198253438Y43172688D01*
X198329628Y43134592D01*
X198367723Y43096497D01*
X198405819Y43020307D01*
X198405819Y42867926D01*
X198367723Y42791735D01*
X198329628Y42753640D01*
X198253438Y42715545D01*
X198101057Y42715545D01*
X198024866Y42753640D01*
X197986771Y42791735D01*
X197948676Y42867926D01*
X197948676Y43020307D01*
X197986771Y43096497D01*
X198024866Y43134592D01*
X198101057Y43172688D01*
G04 #@! TO.C,D47*
X195192528Y61663945D02*
X195192528Y62463945D01*
X195002052Y62463945D01*
X194887766Y62425850D01*
X194811576Y62349659D01*
X194773480Y62273469D01*
X194735385Y62121088D01*
X194735385Y62006802D01*
X194773480Y61854421D01*
X194811576Y61778230D01*
X194887766Y61702040D01*
X195002052Y61663945D01*
X195192528Y61663945D01*
X194049671Y62197278D02*
X194049671Y61663945D01*
X194240147Y62502040D02*
X194430623Y61930611D01*
X193935385Y61930611D01*
X193706814Y62463945D02*
X193173480Y62463945D01*
X193516338Y61663945D01*
G04 #@! TO.C,D46*
X185718328Y80612345D02*
X185718328Y81412345D01*
X185527852Y81412345D01*
X185413566Y81374250D01*
X185337376Y81298059D01*
X185299280Y81221869D01*
X185261185Y81069488D01*
X185261185Y80955202D01*
X185299280Y80802821D01*
X185337376Y80726630D01*
X185413566Y80650440D01*
X185527852Y80612345D01*
X185718328Y80612345D01*
X184575471Y81145678D02*
X184575471Y80612345D01*
X184765947Y81450440D02*
X184956423Y80879011D01*
X184461185Y80879011D01*
X183813566Y81412345D02*
X183965947Y81412345D01*
X184042138Y81374250D01*
X184080233Y81336154D01*
X184156423Y81221869D01*
X184194519Y81069488D01*
X184194519Y80764726D01*
X184156423Y80688535D01*
X184118328Y80650440D01*
X184042138Y80612345D01*
X183889757Y80612345D01*
X183813566Y80650440D01*
X183775471Y80688535D01*
X183737376Y80764726D01*
X183737376Y80955202D01*
X183775471Y81031392D01*
X183813566Y81069488D01*
X183889757Y81107583D01*
X184042138Y81107583D01*
X184118328Y81069488D01*
X184156423Y81031392D01*
X184194519Y80955202D01*
G04 #@! TO.C,D45*
X211772378Y113772045D02*
X211772378Y114572045D01*
X211581902Y114572045D01*
X211467616Y114533950D01*
X211391426Y114457759D01*
X211353330Y114381569D01*
X211315235Y114229188D01*
X211315235Y114114902D01*
X211353330Y113962521D01*
X211391426Y113886330D01*
X211467616Y113810140D01*
X211581902Y113772045D01*
X211772378Y113772045D01*
X210629521Y114305378D02*
X210629521Y113772045D01*
X210819997Y114610140D02*
X211010473Y114038711D01*
X210515235Y114038711D01*
X209829521Y114572045D02*
X210210473Y114572045D01*
X210248569Y114191092D01*
X210210473Y114229188D01*
X210134283Y114267283D01*
X209943807Y114267283D01*
X209867616Y114229188D01*
X209829521Y114191092D01*
X209791426Y114114902D01*
X209791426Y113924426D01*
X209829521Y113848235D01*
X209867616Y113810140D01*
X209943807Y113772045D01*
X210134283Y113772045D01*
X210210473Y113810140D01*
X210248569Y113848235D01*
G04 #@! TO.C,D74*
X294671628Y4818745D02*
X294671628Y5618745D01*
X294481152Y5618745D01*
X294366866Y5580650D01*
X294290676Y5504459D01*
X294252580Y5428269D01*
X294214485Y5275888D01*
X294214485Y5161602D01*
X294252580Y5009221D01*
X294290676Y4933030D01*
X294366866Y4856840D01*
X294481152Y4818745D01*
X294671628Y4818745D01*
X293947819Y5618745D02*
X293414485Y5618745D01*
X293757342Y4818745D01*
X292766866Y5352078D02*
X292766866Y4818745D01*
X292957342Y5656840D02*
X293147819Y5085411D01*
X292652580Y5085411D01*
G04 #@! TO.C,D44*
X190455428Y23767145D02*
X190455428Y24567145D01*
X190264952Y24567145D01*
X190150666Y24529050D01*
X190074476Y24452859D01*
X190036380Y24376669D01*
X189998285Y24224288D01*
X189998285Y24110002D01*
X190036380Y23957621D01*
X190074476Y23881430D01*
X190150666Y23805240D01*
X190264952Y23767145D01*
X190455428Y23767145D01*
X189312571Y24300478D02*
X189312571Y23767145D01*
X189503047Y24605240D02*
X189693523Y24033811D01*
X189198285Y24033811D01*
X188550666Y24300478D02*
X188550666Y23767145D01*
X188741142Y24605240D02*
X188931619Y24033811D01*
X188436380Y24033811D01*
G04 #@! TO.C,D43*
X180981228Y42715545D02*
X180981228Y43515545D01*
X180790752Y43515545D01*
X180676466Y43477450D01*
X180600276Y43401259D01*
X180562180Y43325069D01*
X180524085Y43172688D01*
X180524085Y43058402D01*
X180562180Y42906021D01*
X180600276Y42829830D01*
X180676466Y42753640D01*
X180790752Y42715545D01*
X180981228Y42715545D01*
X179838371Y43248878D02*
X179838371Y42715545D01*
X180028847Y43553640D02*
X180219323Y42982211D01*
X179724085Y42982211D01*
X179495514Y43515545D02*
X179000276Y43515545D01*
X179266942Y43210783D01*
X179152657Y43210783D01*
X179076466Y43172688D01*
X179038371Y43134592D01*
X179000276Y43058402D01*
X179000276Y42867926D01*
X179038371Y42791735D01*
X179076466Y42753640D01*
X179152657Y42715545D01*
X179381228Y42715545D01*
X179457419Y42753640D01*
X179495514Y42791735D01*
G04 #@! TO.C,D42*
X176244128Y61663945D02*
X176244128Y62463945D01*
X176053652Y62463945D01*
X175939366Y62425850D01*
X175863176Y62349659D01*
X175825080Y62273469D01*
X175786985Y62121088D01*
X175786985Y62006802D01*
X175825080Y61854421D01*
X175863176Y61778230D01*
X175939366Y61702040D01*
X176053652Y61663945D01*
X176244128Y61663945D01*
X175101271Y62197278D02*
X175101271Y61663945D01*
X175291747Y62502040D02*
X175482223Y61930611D01*
X174986985Y61930611D01*
X174720319Y62387754D02*
X174682223Y62425850D01*
X174606033Y62463945D01*
X174415557Y62463945D01*
X174339366Y62425850D01*
X174301271Y62387754D01*
X174263176Y62311564D01*
X174263176Y62235373D01*
X174301271Y62121088D01*
X174758414Y61663945D01*
X174263176Y61663945D01*
G04 #@! TO.C,D41*
X166769928Y80612345D02*
X166769928Y81412345D01*
X166579452Y81412345D01*
X166465166Y81374250D01*
X166388976Y81298059D01*
X166350880Y81221869D01*
X166312785Y81069488D01*
X166312785Y80955202D01*
X166350880Y80802821D01*
X166388976Y80726630D01*
X166465166Y80650440D01*
X166579452Y80612345D01*
X166769928Y80612345D01*
X165627071Y81145678D02*
X165627071Y80612345D01*
X165817547Y81450440D02*
X166008023Y80879011D01*
X165512785Y80879011D01*
X164788976Y80612345D02*
X165246119Y80612345D01*
X165017547Y80612345D02*
X165017547Y81412345D01*
X165093738Y81298059D01*
X165169928Y81221869D01*
X165246119Y81183773D01*
G04 #@! TO.C,D40*
X192823978Y113772045D02*
X192823978Y114572045D01*
X192633502Y114572045D01*
X192519216Y114533950D01*
X192443026Y114457759D01*
X192404930Y114381569D01*
X192366835Y114229188D01*
X192366835Y114114902D01*
X192404930Y113962521D01*
X192443026Y113886330D01*
X192519216Y113810140D01*
X192633502Y113772045D01*
X192823978Y113772045D01*
X191681121Y114305378D02*
X191681121Y113772045D01*
X191871597Y114610140D02*
X192062073Y114038711D01*
X191566835Y114038711D01*
X191109692Y114572045D02*
X191033502Y114572045D01*
X190957311Y114533950D01*
X190919216Y114495854D01*
X190881121Y114419664D01*
X190843026Y114267283D01*
X190843026Y114076807D01*
X190881121Y113924426D01*
X190919216Y113848235D01*
X190957311Y113810140D01*
X191033502Y113772045D01*
X191109692Y113772045D01*
X191185883Y113810140D01*
X191223978Y113848235D01*
X191262073Y113924426D01*
X191300169Y114076807D01*
X191300169Y114267283D01*
X191262073Y114419664D01*
X191223978Y114495854D01*
X191185883Y114533950D01*
X191109692Y114572045D01*
G04 #@! TO.C,D65*
X270986128Y4818745D02*
X270986128Y5618745D01*
X270795652Y5618745D01*
X270681366Y5580650D01*
X270605176Y5504459D01*
X270567080Y5428269D01*
X270528985Y5275888D01*
X270528985Y5161602D01*
X270567080Y5009221D01*
X270605176Y4933030D01*
X270681366Y4856840D01*
X270795652Y4818745D01*
X270986128Y4818745D01*
X269843271Y5618745D02*
X269995652Y5618745D01*
X270071842Y5580650D01*
X270109938Y5542554D01*
X270186128Y5428269D01*
X270224223Y5275888D01*
X270224223Y4971126D01*
X270186128Y4894935D01*
X270148033Y4856840D01*
X270071842Y4818745D01*
X269919461Y4818745D01*
X269843271Y4856840D01*
X269805176Y4894935D01*
X269767080Y4971126D01*
X269767080Y5161602D01*
X269805176Y5237792D01*
X269843271Y5275888D01*
X269919461Y5313983D01*
X270071842Y5313983D01*
X270148033Y5275888D01*
X270186128Y5237792D01*
X270224223Y5161602D01*
X269043271Y5618745D02*
X269424223Y5618745D01*
X269462319Y5237792D01*
X269424223Y5275888D01*
X269348033Y5313983D01*
X269157557Y5313983D01*
X269081366Y5275888D01*
X269043271Y5237792D01*
X269005176Y5161602D01*
X269005176Y4971126D01*
X269043271Y4894935D01*
X269081366Y4856840D01*
X269157557Y4818745D01*
X269348033Y4818745D01*
X269424223Y4856840D01*
X269462319Y4894935D01*
G04 #@! TO.C,D39*
X171507028Y23767145D02*
X171507028Y24567145D01*
X171316552Y24567145D01*
X171202266Y24529050D01*
X171126076Y24452859D01*
X171087980Y24376669D01*
X171049885Y24224288D01*
X171049885Y24110002D01*
X171087980Y23957621D01*
X171126076Y23881430D01*
X171202266Y23805240D01*
X171316552Y23767145D01*
X171507028Y23767145D01*
X170783219Y24567145D02*
X170287980Y24567145D01*
X170554647Y24262383D01*
X170440361Y24262383D01*
X170364171Y24224288D01*
X170326076Y24186192D01*
X170287980Y24110002D01*
X170287980Y23919526D01*
X170326076Y23843335D01*
X170364171Y23805240D01*
X170440361Y23767145D01*
X170668933Y23767145D01*
X170745123Y23805240D01*
X170783219Y23843335D01*
X169907028Y23767145D02*
X169754647Y23767145D01*
X169678457Y23805240D01*
X169640361Y23843335D01*
X169564171Y23957621D01*
X169526076Y24110002D01*
X169526076Y24414764D01*
X169564171Y24490954D01*
X169602266Y24529050D01*
X169678457Y24567145D01*
X169830838Y24567145D01*
X169907028Y24529050D01*
X169945123Y24490954D01*
X169983219Y24414764D01*
X169983219Y24224288D01*
X169945123Y24148097D01*
X169907028Y24110002D01*
X169830838Y24071907D01*
X169678457Y24071907D01*
X169602266Y24110002D01*
X169564171Y24148097D01*
X169526076Y24224288D01*
G04 #@! TO.C,D38*
X162032828Y42715545D02*
X162032828Y43515545D01*
X161842352Y43515545D01*
X161728066Y43477450D01*
X161651876Y43401259D01*
X161613780Y43325069D01*
X161575685Y43172688D01*
X161575685Y43058402D01*
X161613780Y42906021D01*
X161651876Y42829830D01*
X161728066Y42753640D01*
X161842352Y42715545D01*
X162032828Y42715545D01*
X161309019Y43515545D02*
X160813780Y43515545D01*
X161080447Y43210783D01*
X160966161Y43210783D01*
X160889971Y43172688D01*
X160851876Y43134592D01*
X160813780Y43058402D01*
X160813780Y42867926D01*
X160851876Y42791735D01*
X160889971Y42753640D01*
X160966161Y42715545D01*
X161194733Y42715545D01*
X161270923Y42753640D01*
X161309019Y42791735D01*
X160356638Y43172688D02*
X160432828Y43210783D01*
X160470923Y43248878D01*
X160509019Y43325069D01*
X160509019Y43363164D01*
X160470923Y43439354D01*
X160432828Y43477450D01*
X160356638Y43515545D01*
X160204257Y43515545D01*
X160128066Y43477450D01*
X160089971Y43439354D01*
X160051876Y43363164D01*
X160051876Y43325069D01*
X160089971Y43248878D01*
X160128066Y43210783D01*
X160204257Y43172688D01*
X160356638Y43172688D01*
X160432828Y43134592D01*
X160470923Y43096497D01*
X160509019Y43020307D01*
X160509019Y42867926D01*
X160470923Y42791735D01*
X160432828Y42753640D01*
X160356638Y42715545D01*
X160204257Y42715545D01*
X160128066Y42753640D01*
X160089971Y42791735D01*
X160051876Y42867926D01*
X160051876Y43020307D01*
X160089971Y43096497D01*
X160128066Y43134592D01*
X160204257Y43172688D01*
G04 #@! TO.C,D37*
X157295728Y61663945D02*
X157295728Y62463945D01*
X157105252Y62463945D01*
X156990966Y62425850D01*
X156914776Y62349659D01*
X156876680Y62273469D01*
X156838585Y62121088D01*
X156838585Y62006802D01*
X156876680Y61854421D01*
X156914776Y61778230D01*
X156990966Y61702040D01*
X157105252Y61663945D01*
X157295728Y61663945D01*
X156571919Y62463945D02*
X156076680Y62463945D01*
X156343347Y62159183D01*
X156229061Y62159183D01*
X156152871Y62121088D01*
X156114776Y62082992D01*
X156076680Y62006802D01*
X156076680Y61816326D01*
X156114776Y61740135D01*
X156152871Y61702040D01*
X156229061Y61663945D01*
X156457633Y61663945D01*
X156533823Y61702040D01*
X156571919Y61740135D01*
X155810014Y62463945D02*
X155276680Y62463945D01*
X155619538Y61663945D01*
G04 #@! TO.C,D36*
X147821528Y80612345D02*
X147821528Y81412345D01*
X147631052Y81412345D01*
X147516766Y81374250D01*
X147440576Y81298059D01*
X147402480Y81221869D01*
X147364385Y81069488D01*
X147364385Y80955202D01*
X147402480Y80802821D01*
X147440576Y80726630D01*
X147516766Y80650440D01*
X147631052Y80612345D01*
X147821528Y80612345D01*
X147097719Y81412345D02*
X146602480Y81412345D01*
X146869147Y81107583D01*
X146754861Y81107583D01*
X146678671Y81069488D01*
X146640576Y81031392D01*
X146602480Y80955202D01*
X146602480Y80764726D01*
X146640576Y80688535D01*
X146678671Y80650440D01*
X146754861Y80612345D01*
X146983433Y80612345D01*
X147059623Y80650440D01*
X147097719Y80688535D01*
X145916766Y81412345D02*
X146069147Y81412345D01*
X146145338Y81374250D01*
X146183433Y81336154D01*
X146259623Y81221869D01*
X146297719Y81069488D01*
X146297719Y80764726D01*
X146259623Y80688535D01*
X146221528Y80650440D01*
X146145338Y80612345D01*
X145992957Y80612345D01*
X145916766Y80650440D01*
X145878671Y80688535D01*
X145840576Y80764726D01*
X145840576Y80955202D01*
X145878671Y81031392D01*
X145916766Y81069488D01*
X145992957Y81107583D01*
X146145338Y81107583D01*
X146221528Y81069488D01*
X146259623Y81031392D01*
X146297719Y80955202D01*
G04 #@! TO.C,D35*
X173875578Y113772045D02*
X173875578Y114572045D01*
X173685102Y114572045D01*
X173570816Y114533950D01*
X173494626Y114457759D01*
X173456530Y114381569D01*
X173418435Y114229188D01*
X173418435Y114114902D01*
X173456530Y113962521D01*
X173494626Y113886330D01*
X173570816Y113810140D01*
X173685102Y113772045D01*
X173875578Y113772045D01*
X173151769Y114572045D02*
X172656530Y114572045D01*
X172923197Y114267283D01*
X172808911Y114267283D01*
X172732721Y114229188D01*
X172694626Y114191092D01*
X172656530Y114114902D01*
X172656530Y113924426D01*
X172694626Y113848235D01*
X172732721Y113810140D01*
X172808911Y113772045D01*
X173037483Y113772045D01*
X173113673Y113810140D01*
X173151769Y113848235D01*
X171932721Y114572045D02*
X172313673Y114572045D01*
X172351769Y114191092D01*
X172313673Y114229188D01*
X172237483Y114267283D01*
X172047007Y114267283D01*
X171970816Y114229188D01*
X171932721Y114191092D01*
X171894626Y114114902D01*
X171894626Y113924426D01*
X171932721Y113848235D01*
X171970816Y113810140D01*
X172047007Y113772045D01*
X172237483Y113772045D01*
X172313673Y113810140D01*
X172351769Y113848235D01*
G04 #@! TO.C,D60*
X252037728Y4818745D02*
X252037728Y5618745D01*
X251847252Y5618745D01*
X251732966Y5580650D01*
X251656776Y5504459D01*
X251618680Y5428269D01*
X251580585Y5275888D01*
X251580585Y5161602D01*
X251618680Y5009221D01*
X251656776Y4933030D01*
X251732966Y4856840D01*
X251847252Y4818745D01*
X252037728Y4818745D01*
X250894871Y5618745D02*
X251047252Y5618745D01*
X251123442Y5580650D01*
X251161538Y5542554D01*
X251237728Y5428269D01*
X251275823Y5275888D01*
X251275823Y4971126D01*
X251237728Y4894935D01*
X251199633Y4856840D01*
X251123442Y4818745D01*
X250971061Y4818745D01*
X250894871Y4856840D01*
X250856776Y4894935D01*
X250818680Y4971126D01*
X250818680Y5161602D01*
X250856776Y5237792D01*
X250894871Y5275888D01*
X250971061Y5313983D01*
X251123442Y5313983D01*
X251199633Y5275888D01*
X251237728Y5237792D01*
X251275823Y5161602D01*
X250323442Y5618745D02*
X250247252Y5618745D01*
X250171061Y5580650D01*
X250132966Y5542554D01*
X250094871Y5466364D01*
X250056776Y5313983D01*
X250056776Y5123507D01*
X250094871Y4971126D01*
X250132966Y4894935D01*
X250171061Y4856840D01*
X250247252Y4818745D01*
X250323442Y4818745D01*
X250399633Y4856840D01*
X250437728Y4894935D01*
X250475823Y4971126D01*
X250513919Y5123507D01*
X250513919Y5313983D01*
X250475823Y5466364D01*
X250437728Y5542554D01*
X250399633Y5580650D01*
X250323442Y5618745D01*
G04 #@! TO.C,D33*
X152558628Y23767145D02*
X152558628Y24567145D01*
X152368152Y24567145D01*
X152253866Y24529050D01*
X152177676Y24452859D01*
X152139580Y24376669D01*
X152101485Y24224288D01*
X152101485Y24110002D01*
X152139580Y23957621D01*
X152177676Y23881430D01*
X152253866Y23805240D01*
X152368152Y23767145D01*
X152558628Y23767145D01*
X151834819Y24567145D02*
X151339580Y24567145D01*
X151606247Y24262383D01*
X151491961Y24262383D01*
X151415771Y24224288D01*
X151377676Y24186192D01*
X151339580Y24110002D01*
X151339580Y23919526D01*
X151377676Y23843335D01*
X151415771Y23805240D01*
X151491961Y23767145D01*
X151720533Y23767145D01*
X151796723Y23805240D01*
X151834819Y23843335D01*
X151072914Y24567145D02*
X150577676Y24567145D01*
X150844342Y24262383D01*
X150730057Y24262383D01*
X150653866Y24224288D01*
X150615771Y24186192D01*
X150577676Y24110002D01*
X150577676Y23919526D01*
X150615771Y23843335D01*
X150653866Y23805240D01*
X150730057Y23767145D01*
X150958628Y23767145D01*
X151034819Y23805240D01*
X151072914Y23843335D01*
G04 #@! TO.C,D32*
X143084428Y42715545D02*
X143084428Y43515545D01*
X142893952Y43515545D01*
X142779666Y43477450D01*
X142703476Y43401259D01*
X142665380Y43325069D01*
X142627285Y43172688D01*
X142627285Y43058402D01*
X142665380Y42906021D01*
X142703476Y42829830D01*
X142779666Y42753640D01*
X142893952Y42715545D01*
X143084428Y42715545D01*
X142360619Y43515545D02*
X141865380Y43515545D01*
X142132047Y43210783D01*
X142017761Y43210783D01*
X141941571Y43172688D01*
X141903476Y43134592D01*
X141865380Y43058402D01*
X141865380Y42867926D01*
X141903476Y42791735D01*
X141941571Y42753640D01*
X142017761Y42715545D01*
X142246333Y42715545D01*
X142322523Y42753640D01*
X142360619Y42791735D01*
X141560619Y43439354D02*
X141522523Y43477450D01*
X141446333Y43515545D01*
X141255857Y43515545D01*
X141179666Y43477450D01*
X141141571Y43439354D01*
X141103476Y43363164D01*
X141103476Y43286973D01*
X141141571Y43172688D01*
X141598714Y42715545D01*
X141103476Y42715545D01*
G04 #@! TO.C,D31*
X138347328Y61663945D02*
X138347328Y62463945D01*
X138156852Y62463945D01*
X138042566Y62425850D01*
X137966376Y62349659D01*
X137928280Y62273469D01*
X137890185Y62121088D01*
X137890185Y62006802D01*
X137928280Y61854421D01*
X137966376Y61778230D01*
X138042566Y61702040D01*
X138156852Y61663945D01*
X138347328Y61663945D01*
X137623519Y62463945D02*
X137128280Y62463945D01*
X137394947Y62159183D01*
X137280661Y62159183D01*
X137204471Y62121088D01*
X137166376Y62082992D01*
X137128280Y62006802D01*
X137128280Y61816326D01*
X137166376Y61740135D01*
X137204471Y61702040D01*
X137280661Y61663945D01*
X137509233Y61663945D01*
X137585423Y61702040D01*
X137623519Y61740135D01*
X136366376Y61663945D02*
X136823519Y61663945D01*
X136594947Y61663945D02*
X136594947Y62463945D01*
X136671138Y62349659D01*
X136747328Y62273469D01*
X136823519Y62235373D01*
G04 #@! TO.C,D30*
X128873128Y80612345D02*
X128873128Y81412345D01*
X128682652Y81412345D01*
X128568366Y81374250D01*
X128492176Y81298059D01*
X128454080Y81221869D01*
X128415985Y81069488D01*
X128415985Y80955202D01*
X128454080Y80802821D01*
X128492176Y80726630D01*
X128568366Y80650440D01*
X128682652Y80612345D01*
X128873128Y80612345D01*
X128149319Y81412345D02*
X127654080Y81412345D01*
X127920747Y81107583D01*
X127806461Y81107583D01*
X127730271Y81069488D01*
X127692176Y81031392D01*
X127654080Y80955202D01*
X127654080Y80764726D01*
X127692176Y80688535D01*
X127730271Y80650440D01*
X127806461Y80612345D01*
X128035033Y80612345D01*
X128111223Y80650440D01*
X128149319Y80688535D01*
X127158842Y81412345D02*
X127082652Y81412345D01*
X127006461Y81374250D01*
X126968366Y81336154D01*
X126930271Y81259964D01*
X126892176Y81107583D01*
X126892176Y80917107D01*
X126930271Y80764726D01*
X126968366Y80688535D01*
X127006461Y80650440D01*
X127082652Y80612345D01*
X127158842Y80612345D01*
X127235033Y80650440D01*
X127273128Y80688535D01*
X127311223Y80764726D01*
X127349319Y80917107D01*
X127349319Y81107583D01*
X127311223Y81259964D01*
X127273128Y81336154D01*
X127235033Y81374250D01*
X127158842Y81412345D01*
G04 #@! TO.C,D29*
X154927178Y113772045D02*
X154927178Y114572045D01*
X154736702Y114572045D01*
X154622416Y114533950D01*
X154546226Y114457759D01*
X154508130Y114381569D01*
X154470035Y114229188D01*
X154470035Y114114902D01*
X154508130Y113962521D01*
X154546226Y113886330D01*
X154622416Y113810140D01*
X154736702Y113772045D01*
X154927178Y113772045D01*
X154165273Y114495854D02*
X154127178Y114533950D01*
X154050988Y114572045D01*
X153860511Y114572045D01*
X153784321Y114533950D01*
X153746226Y114495854D01*
X153708130Y114419664D01*
X153708130Y114343473D01*
X153746226Y114229188D01*
X154203369Y113772045D01*
X153708130Y113772045D01*
X153327178Y113772045D02*
X153174797Y113772045D01*
X153098607Y113810140D01*
X153060511Y113848235D01*
X152984321Y113962521D01*
X152946226Y114114902D01*
X152946226Y114419664D01*
X152984321Y114495854D01*
X153022416Y114533950D01*
X153098607Y114572045D01*
X153250988Y114572045D01*
X153327178Y114533950D01*
X153365273Y114495854D01*
X153403369Y114419664D01*
X153403369Y114229188D01*
X153365273Y114152997D01*
X153327178Y114114902D01*
X153250988Y114076807D01*
X153098607Y114076807D01*
X153022416Y114114902D01*
X152984321Y114152997D01*
X152946226Y114229188D01*
G04 #@! TO.C,D54*
X228352228Y4818745D02*
X228352228Y5618745D01*
X228161752Y5618745D01*
X228047466Y5580650D01*
X227971276Y5504459D01*
X227933180Y5428269D01*
X227895085Y5275888D01*
X227895085Y5161602D01*
X227933180Y5009221D01*
X227971276Y4933030D01*
X228047466Y4856840D01*
X228161752Y4818745D01*
X228352228Y4818745D01*
X227171276Y5618745D02*
X227552228Y5618745D01*
X227590323Y5237792D01*
X227552228Y5275888D01*
X227476038Y5313983D01*
X227285561Y5313983D01*
X227209371Y5275888D01*
X227171276Y5237792D01*
X227133180Y5161602D01*
X227133180Y4971126D01*
X227171276Y4894935D01*
X227209371Y4856840D01*
X227285561Y4818745D01*
X227476038Y4818745D01*
X227552228Y4856840D01*
X227590323Y4894935D01*
X226447466Y5352078D02*
X226447466Y4818745D01*
X226637942Y5656840D02*
X226828419Y5085411D01*
X226333180Y5085411D01*
G04 #@! TO.C,D28*
X133610228Y23767145D02*
X133610228Y24567145D01*
X133419752Y24567145D01*
X133305466Y24529050D01*
X133229276Y24452859D01*
X133191180Y24376669D01*
X133153085Y24224288D01*
X133153085Y24110002D01*
X133191180Y23957621D01*
X133229276Y23881430D01*
X133305466Y23805240D01*
X133419752Y23767145D01*
X133610228Y23767145D01*
X132848323Y24490954D02*
X132810228Y24529050D01*
X132734038Y24567145D01*
X132543561Y24567145D01*
X132467371Y24529050D01*
X132429276Y24490954D01*
X132391180Y24414764D01*
X132391180Y24338573D01*
X132429276Y24224288D01*
X132886419Y23767145D01*
X132391180Y23767145D01*
X131934038Y24224288D02*
X132010228Y24262383D01*
X132048323Y24300478D01*
X132086419Y24376669D01*
X132086419Y24414764D01*
X132048323Y24490954D01*
X132010228Y24529050D01*
X131934038Y24567145D01*
X131781657Y24567145D01*
X131705466Y24529050D01*
X131667371Y24490954D01*
X131629276Y24414764D01*
X131629276Y24376669D01*
X131667371Y24300478D01*
X131705466Y24262383D01*
X131781657Y24224288D01*
X131934038Y24224288D01*
X132010228Y24186192D01*
X132048323Y24148097D01*
X132086419Y24071907D01*
X132086419Y23919526D01*
X132048323Y23843335D01*
X132010228Y23805240D01*
X131934038Y23767145D01*
X131781657Y23767145D01*
X131705466Y23805240D01*
X131667371Y23843335D01*
X131629276Y23919526D01*
X131629276Y24071907D01*
X131667371Y24148097D01*
X131705466Y24186192D01*
X131781657Y24224288D01*
G04 #@! TO.C,D27*
X124136028Y42715545D02*
X124136028Y43515545D01*
X123945552Y43515545D01*
X123831266Y43477450D01*
X123755076Y43401259D01*
X123716980Y43325069D01*
X123678885Y43172688D01*
X123678885Y43058402D01*
X123716980Y42906021D01*
X123755076Y42829830D01*
X123831266Y42753640D01*
X123945552Y42715545D01*
X124136028Y42715545D01*
X123374123Y43439354D02*
X123336028Y43477450D01*
X123259838Y43515545D01*
X123069361Y43515545D01*
X122993171Y43477450D01*
X122955076Y43439354D01*
X122916980Y43363164D01*
X122916980Y43286973D01*
X122955076Y43172688D01*
X123412219Y42715545D01*
X122916980Y42715545D01*
X122650314Y43515545D02*
X122116980Y43515545D01*
X122459838Y42715545D01*
G04 #@! TO.C,D26*
X119398928Y61663945D02*
X119398928Y62463945D01*
X119208452Y62463945D01*
X119094166Y62425850D01*
X119017976Y62349659D01*
X118979880Y62273469D01*
X118941785Y62121088D01*
X118941785Y62006802D01*
X118979880Y61854421D01*
X119017976Y61778230D01*
X119094166Y61702040D01*
X119208452Y61663945D01*
X119398928Y61663945D01*
X118637023Y62387754D02*
X118598928Y62425850D01*
X118522738Y62463945D01*
X118332261Y62463945D01*
X118256071Y62425850D01*
X118217976Y62387754D01*
X118179880Y62311564D01*
X118179880Y62235373D01*
X118217976Y62121088D01*
X118675119Y61663945D01*
X118179880Y61663945D01*
X117494166Y62463945D02*
X117646547Y62463945D01*
X117722738Y62425850D01*
X117760833Y62387754D01*
X117837023Y62273469D01*
X117875119Y62121088D01*
X117875119Y61816326D01*
X117837023Y61740135D01*
X117798928Y61702040D01*
X117722738Y61663945D01*
X117570357Y61663945D01*
X117494166Y61702040D01*
X117456071Y61740135D01*
X117417976Y61816326D01*
X117417976Y62006802D01*
X117456071Y62082992D01*
X117494166Y62121088D01*
X117570357Y62159183D01*
X117722738Y62159183D01*
X117798928Y62121088D01*
X117837023Y62082992D01*
X117875119Y62006802D01*
G04 #@! TO.C,D25*
X109924728Y80612345D02*
X109924728Y81412345D01*
X109734252Y81412345D01*
X109619966Y81374250D01*
X109543776Y81298059D01*
X109505680Y81221869D01*
X109467585Y81069488D01*
X109467585Y80955202D01*
X109505680Y80802821D01*
X109543776Y80726630D01*
X109619966Y80650440D01*
X109734252Y80612345D01*
X109924728Y80612345D01*
X109162823Y81336154D02*
X109124728Y81374250D01*
X109048538Y81412345D01*
X108858061Y81412345D01*
X108781871Y81374250D01*
X108743776Y81336154D01*
X108705680Y81259964D01*
X108705680Y81183773D01*
X108743776Y81069488D01*
X109200919Y80612345D01*
X108705680Y80612345D01*
X107981871Y81412345D02*
X108362823Y81412345D01*
X108400919Y81031392D01*
X108362823Y81069488D01*
X108286633Y81107583D01*
X108096157Y81107583D01*
X108019966Y81069488D01*
X107981871Y81031392D01*
X107943776Y80955202D01*
X107943776Y80764726D01*
X107981871Y80688535D01*
X108019966Y80650440D01*
X108096157Y80612345D01*
X108286633Y80612345D01*
X108362823Y80650440D01*
X108400919Y80688535D01*
G04 #@! TO.C,D24*
X124136028Y113772045D02*
X124136028Y114572045D01*
X123945552Y114572045D01*
X123831266Y114533950D01*
X123755076Y114457759D01*
X123716980Y114381569D01*
X123678885Y114229188D01*
X123678885Y114114902D01*
X123716980Y113962521D01*
X123755076Y113886330D01*
X123831266Y113810140D01*
X123945552Y113772045D01*
X124136028Y113772045D01*
X123374123Y114495854D02*
X123336028Y114533950D01*
X123259838Y114572045D01*
X123069361Y114572045D01*
X122993171Y114533950D01*
X122955076Y114495854D01*
X122916980Y114419664D01*
X122916980Y114343473D01*
X122955076Y114229188D01*
X123412219Y113772045D01*
X122916980Y113772045D01*
X122231266Y114305378D02*
X122231266Y113772045D01*
X122421742Y114610140D02*
X122612219Y114038711D01*
X122116980Y114038711D01*
G04 #@! TO.C,D34*
X154927178Y4818745D02*
X154927178Y5618745D01*
X154736702Y5618745D01*
X154622416Y5580650D01*
X154546226Y5504459D01*
X154508130Y5428269D01*
X154470035Y5275888D01*
X154470035Y5161602D01*
X154508130Y5009221D01*
X154546226Y4933030D01*
X154622416Y4856840D01*
X154736702Y4818745D01*
X154927178Y4818745D01*
X154203369Y5618745D02*
X153708130Y5618745D01*
X153974797Y5313983D01*
X153860511Y5313983D01*
X153784321Y5275888D01*
X153746226Y5237792D01*
X153708130Y5161602D01*
X153708130Y4971126D01*
X153746226Y4894935D01*
X153784321Y4856840D01*
X153860511Y4818745D01*
X154089083Y4818745D01*
X154165273Y4856840D01*
X154203369Y4894935D01*
X153022416Y5352078D02*
X153022416Y4818745D01*
X153212892Y5656840D02*
X153403369Y5085411D01*
X152908130Y5085411D01*
G04 #@! TO.C,D23*
X114661828Y23767145D02*
X114661828Y24567145D01*
X114471352Y24567145D01*
X114357066Y24529050D01*
X114280876Y24452859D01*
X114242780Y24376669D01*
X114204685Y24224288D01*
X114204685Y24110002D01*
X114242780Y23957621D01*
X114280876Y23881430D01*
X114357066Y23805240D01*
X114471352Y23767145D01*
X114661828Y23767145D01*
X113899923Y24490954D02*
X113861828Y24529050D01*
X113785638Y24567145D01*
X113595161Y24567145D01*
X113518971Y24529050D01*
X113480876Y24490954D01*
X113442780Y24414764D01*
X113442780Y24338573D01*
X113480876Y24224288D01*
X113938019Y23767145D01*
X113442780Y23767145D01*
X113176114Y24567145D02*
X112680876Y24567145D01*
X112947542Y24262383D01*
X112833257Y24262383D01*
X112757066Y24224288D01*
X112718971Y24186192D01*
X112680876Y24110002D01*
X112680876Y23919526D01*
X112718971Y23843335D01*
X112757066Y23805240D01*
X112833257Y23767145D01*
X113061828Y23767145D01*
X113138019Y23805240D01*
X113176114Y23843335D01*
G04 #@! TO.C,D22*
X105187628Y42715545D02*
X105187628Y43515545D01*
X104997152Y43515545D01*
X104882866Y43477450D01*
X104806676Y43401259D01*
X104768580Y43325069D01*
X104730485Y43172688D01*
X104730485Y43058402D01*
X104768580Y42906021D01*
X104806676Y42829830D01*
X104882866Y42753640D01*
X104997152Y42715545D01*
X105187628Y42715545D01*
X104425723Y43439354D02*
X104387628Y43477450D01*
X104311438Y43515545D01*
X104120961Y43515545D01*
X104044771Y43477450D01*
X104006676Y43439354D01*
X103968580Y43363164D01*
X103968580Y43286973D01*
X104006676Y43172688D01*
X104463819Y42715545D01*
X103968580Y42715545D01*
X103663819Y43439354D02*
X103625723Y43477450D01*
X103549533Y43515545D01*
X103359057Y43515545D01*
X103282866Y43477450D01*
X103244771Y43439354D01*
X103206676Y43363164D01*
X103206676Y43286973D01*
X103244771Y43172688D01*
X103701914Y42715545D01*
X103206676Y42715545D01*
G04 #@! TO.C,D21*
X100450528Y61663945D02*
X100450528Y62463945D01*
X100260052Y62463945D01*
X100145766Y62425850D01*
X100069576Y62349659D01*
X100031480Y62273469D01*
X99993385Y62121088D01*
X99993385Y62006802D01*
X100031480Y61854421D01*
X100069576Y61778230D01*
X100145766Y61702040D01*
X100260052Y61663945D01*
X100450528Y61663945D01*
X99688623Y62387754D02*
X99650528Y62425850D01*
X99574338Y62463945D01*
X99383861Y62463945D01*
X99307671Y62425850D01*
X99269576Y62387754D01*
X99231480Y62311564D01*
X99231480Y62235373D01*
X99269576Y62121088D01*
X99726719Y61663945D01*
X99231480Y61663945D01*
X98469576Y61663945D02*
X98926719Y61663945D01*
X98698147Y61663945D02*
X98698147Y62463945D01*
X98774338Y62349659D01*
X98850528Y62273469D01*
X98926719Y62235373D01*
G04 #@! TO.C,D20*
X90976328Y80612345D02*
X90976328Y81412345D01*
X90785852Y81412345D01*
X90671566Y81374250D01*
X90595376Y81298059D01*
X90557280Y81221869D01*
X90519185Y81069488D01*
X90519185Y80955202D01*
X90557280Y80802821D01*
X90595376Y80726630D01*
X90671566Y80650440D01*
X90785852Y80612345D01*
X90976328Y80612345D01*
X90214423Y81336154D02*
X90176328Y81374250D01*
X90100138Y81412345D01*
X89909661Y81412345D01*
X89833471Y81374250D01*
X89795376Y81336154D01*
X89757280Y81259964D01*
X89757280Y81183773D01*
X89795376Y81069488D01*
X90252519Y80612345D01*
X89757280Y80612345D01*
X89262042Y81412345D02*
X89185852Y81412345D01*
X89109661Y81374250D01*
X89071566Y81336154D01*
X89033471Y81259964D01*
X88995376Y81107583D01*
X88995376Y80917107D01*
X89033471Y80764726D01*
X89071566Y80688535D01*
X89109661Y80650440D01*
X89185852Y80612345D01*
X89262042Y80612345D01*
X89338233Y80650440D01*
X89376328Y80688535D01*
X89414423Y80764726D01*
X89452519Y80917107D01*
X89452519Y81107583D01*
X89414423Y81259964D01*
X89376328Y81336154D01*
X89338233Y81374250D01*
X89262042Y81412345D01*
G04 #@! TO.C,D19*
X105187628Y113772045D02*
X105187628Y114572045D01*
X104997152Y114572045D01*
X104882866Y114533950D01*
X104806676Y114457759D01*
X104768580Y114381569D01*
X104730485Y114229188D01*
X104730485Y114114902D01*
X104768580Y113962521D01*
X104806676Y113886330D01*
X104882866Y113810140D01*
X104997152Y113772045D01*
X105187628Y113772045D01*
X103968580Y113772045D02*
X104425723Y113772045D01*
X104197152Y113772045D02*
X104197152Y114572045D01*
X104273342Y114457759D01*
X104349533Y114381569D01*
X104425723Y114343473D01*
X103587628Y113772045D02*
X103435247Y113772045D01*
X103359057Y113810140D01*
X103320961Y113848235D01*
X103244771Y113962521D01*
X103206676Y114114902D01*
X103206676Y114419664D01*
X103244771Y114495854D01*
X103282866Y114533950D01*
X103359057Y114572045D01*
X103511438Y114572045D01*
X103587628Y114533950D01*
X103625723Y114495854D01*
X103663819Y114419664D01*
X103663819Y114229188D01*
X103625723Y114152997D01*
X103587628Y114114902D01*
X103511438Y114076807D01*
X103359057Y114076807D01*
X103282866Y114114902D01*
X103244771Y114152997D01*
X103206676Y114229188D01*
G04 #@! TO.C,D18*
X83870678Y4818745D02*
X83870678Y5618745D01*
X83680202Y5618745D01*
X83565916Y5580650D01*
X83489726Y5504459D01*
X83451630Y5428269D01*
X83413535Y5275888D01*
X83413535Y5161602D01*
X83451630Y5009221D01*
X83489726Y4933030D01*
X83565916Y4856840D01*
X83680202Y4818745D01*
X83870678Y4818745D01*
X82651630Y4818745D02*
X83108773Y4818745D01*
X82880202Y4818745D02*
X82880202Y5618745D01*
X82956392Y5504459D01*
X83032583Y5428269D01*
X83108773Y5390173D01*
X82194488Y5275888D02*
X82270678Y5313983D01*
X82308773Y5352078D01*
X82346869Y5428269D01*
X82346869Y5466364D01*
X82308773Y5542554D01*
X82270678Y5580650D01*
X82194488Y5618745D01*
X82042107Y5618745D01*
X81965916Y5580650D01*
X81927821Y5542554D01*
X81889726Y5466364D01*
X81889726Y5428269D01*
X81927821Y5352078D01*
X81965916Y5313983D01*
X82042107Y5275888D01*
X82194488Y5275888D01*
X82270678Y5237792D01*
X82308773Y5199697D01*
X82346869Y5123507D01*
X82346869Y4971126D01*
X82308773Y4894935D01*
X82270678Y4856840D01*
X82194488Y4818745D01*
X82042107Y4818745D01*
X81965916Y4856840D01*
X81927821Y4894935D01*
X81889726Y4971126D01*
X81889726Y5123507D01*
X81927821Y5199697D01*
X81965916Y5237792D01*
X82042107Y5275888D01*
G04 #@! TO.C,D17*
X95713428Y23767145D02*
X95713428Y24567145D01*
X95522952Y24567145D01*
X95408666Y24529050D01*
X95332476Y24452859D01*
X95294380Y24376669D01*
X95256285Y24224288D01*
X95256285Y24110002D01*
X95294380Y23957621D01*
X95332476Y23881430D01*
X95408666Y23805240D01*
X95522952Y23767145D01*
X95713428Y23767145D01*
X94494380Y23767145D02*
X94951523Y23767145D01*
X94722952Y23767145D02*
X94722952Y24567145D01*
X94799142Y24452859D01*
X94875333Y24376669D01*
X94951523Y24338573D01*
X94227714Y24567145D02*
X93694380Y24567145D01*
X94037238Y23767145D01*
G04 #@! TO.C,D16*
X86239228Y42715545D02*
X86239228Y43515545D01*
X86048752Y43515545D01*
X85934466Y43477450D01*
X85858276Y43401259D01*
X85820180Y43325069D01*
X85782085Y43172688D01*
X85782085Y43058402D01*
X85820180Y42906021D01*
X85858276Y42829830D01*
X85934466Y42753640D01*
X86048752Y42715545D01*
X86239228Y42715545D01*
X85020180Y42715545D02*
X85477323Y42715545D01*
X85248752Y42715545D02*
X85248752Y43515545D01*
X85324942Y43401259D01*
X85401133Y43325069D01*
X85477323Y43286973D01*
X84334466Y43515545D02*
X84486847Y43515545D01*
X84563038Y43477450D01*
X84601133Y43439354D01*
X84677323Y43325069D01*
X84715419Y43172688D01*
X84715419Y42867926D01*
X84677323Y42791735D01*
X84639228Y42753640D01*
X84563038Y42715545D01*
X84410657Y42715545D01*
X84334466Y42753640D01*
X84296371Y42791735D01*
X84258276Y42867926D01*
X84258276Y43058402D01*
X84296371Y43134592D01*
X84334466Y43172688D01*
X84410657Y43210783D01*
X84563038Y43210783D01*
X84639228Y43172688D01*
X84677323Y43134592D01*
X84715419Y43058402D01*
G04 #@! TO.C,D15*
X81502128Y61663945D02*
X81502128Y62463945D01*
X81311652Y62463945D01*
X81197366Y62425850D01*
X81121176Y62349659D01*
X81083080Y62273469D01*
X81044985Y62121088D01*
X81044985Y62006802D01*
X81083080Y61854421D01*
X81121176Y61778230D01*
X81197366Y61702040D01*
X81311652Y61663945D01*
X81502128Y61663945D01*
X80283080Y61663945D02*
X80740223Y61663945D01*
X80511652Y61663945D02*
X80511652Y62463945D01*
X80587842Y62349659D01*
X80664033Y62273469D01*
X80740223Y62235373D01*
X79559271Y62463945D02*
X79940223Y62463945D01*
X79978319Y62082992D01*
X79940223Y62121088D01*
X79864033Y62159183D01*
X79673557Y62159183D01*
X79597366Y62121088D01*
X79559271Y62082992D01*
X79521176Y62006802D01*
X79521176Y61816326D01*
X79559271Y61740135D01*
X79597366Y61702040D01*
X79673557Y61663945D01*
X79864033Y61663945D01*
X79940223Y61702040D01*
X79978319Y61740135D01*
G04 #@! TO.C,D14*
X72027928Y80612345D02*
X72027928Y81412345D01*
X71837452Y81412345D01*
X71723166Y81374250D01*
X71646976Y81298059D01*
X71608880Y81221869D01*
X71570785Y81069488D01*
X71570785Y80955202D01*
X71608880Y80802821D01*
X71646976Y80726630D01*
X71723166Y80650440D01*
X71837452Y80612345D01*
X72027928Y80612345D01*
X70808880Y80612345D02*
X71266023Y80612345D01*
X71037452Y80612345D02*
X71037452Y81412345D01*
X71113642Y81298059D01*
X71189833Y81221869D01*
X71266023Y81183773D01*
X70123166Y81145678D02*
X70123166Y80612345D01*
X70313642Y81450440D02*
X70504119Y80879011D01*
X70008880Y80879011D01*
G04 #@! TO.C,D13*
X86239228Y113772045D02*
X86239228Y114572045D01*
X86048752Y114572045D01*
X85934466Y114533950D01*
X85858276Y114457759D01*
X85820180Y114381569D01*
X85782085Y114229188D01*
X85782085Y114114902D01*
X85820180Y113962521D01*
X85858276Y113886330D01*
X85934466Y113810140D01*
X86048752Y113772045D01*
X86239228Y113772045D01*
X85020180Y113772045D02*
X85477323Y113772045D01*
X85248752Y113772045D02*
X85248752Y114572045D01*
X85324942Y114457759D01*
X85401133Y114381569D01*
X85477323Y114343473D01*
X84753514Y114572045D02*
X84258276Y114572045D01*
X84524942Y114267283D01*
X84410657Y114267283D01*
X84334466Y114229188D01*
X84296371Y114191092D01*
X84258276Y114114902D01*
X84258276Y113924426D01*
X84296371Y113848235D01*
X84334466Y113810140D01*
X84410657Y113772045D01*
X84639228Y113772045D01*
X84715419Y113810140D01*
X84753514Y113848235D01*
G04 #@! TO.C,D12*
X62553728Y4818745D02*
X62553728Y5618745D01*
X62363252Y5618745D01*
X62248966Y5580650D01*
X62172776Y5504459D01*
X62134680Y5428269D01*
X62096585Y5275888D01*
X62096585Y5161602D01*
X62134680Y5009221D01*
X62172776Y4933030D01*
X62248966Y4856840D01*
X62363252Y4818745D01*
X62553728Y4818745D01*
X61334680Y4818745D02*
X61791823Y4818745D01*
X61563252Y4818745D02*
X61563252Y5618745D01*
X61639442Y5504459D01*
X61715633Y5428269D01*
X61791823Y5390173D01*
X61029919Y5542554D02*
X60991823Y5580650D01*
X60915633Y5618745D01*
X60725157Y5618745D01*
X60648966Y5580650D01*
X60610871Y5542554D01*
X60572776Y5466364D01*
X60572776Y5390173D01*
X60610871Y5275888D01*
X61068014Y4818745D01*
X60572776Y4818745D01*
G04 #@! TO.C,D11*
X76765028Y23767145D02*
X76765028Y24567145D01*
X76574552Y24567145D01*
X76460266Y24529050D01*
X76384076Y24452859D01*
X76345980Y24376669D01*
X76307885Y24224288D01*
X76307885Y24110002D01*
X76345980Y23957621D01*
X76384076Y23881430D01*
X76460266Y23805240D01*
X76574552Y23767145D01*
X76765028Y23767145D01*
X75545980Y23767145D02*
X76003123Y23767145D01*
X75774552Y23767145D02*
X75774552Y24567145D01*
X75850742Y24452859D01*
X75926933Y24376669D01*
X76003123Y24338573D01*
X74784076Y23767145D02*
X75241219Y23767145D01*
X75012647Y23767145D02*
X75012647Y24567145D01*
X75088838Y24452859D01*
X75165028Y24376669D01*
X75241219Y24338573D01*
G04 #@! TO.C,D10*
X67290828Y42715545D02*
X67290828Y43515545D01*
X67100352Y43515545D01*
X66986066Y43477450D01*
X66909876Y43401259D01*
X66871780Y43325069D01*
X66833685Y43172688D01*
X66833685Y43058402D01*
X66871780Y42906021D01*
X66909876Y42829830D01*
X66986066Y42753640D01*
X67100352Y42715545D01*
X67290828Y42715545D01*
X66071780Y42715545D02*
X66528923Y42715545D01*
X66300352Y42715545D02*
X66300352Y43515545D01*
X66376542Y43401259D01*
X66452733Y43325069D01*
X66528923Y43286973D01*
X65576542Y43515545D02*
X65500352Y43515545D01*
X65424161Y43477450D01*
X65386066Y43439354D01*
X65347971Y43363164D01*
X65309876Y43210783D01*
X65309876Y43020307D01*
X65347971Y42867926D01*
X65386066Y42791735D01*
X65424161Y42753640D01*
X65500352Y42715545D01*
X65576542Y42715545D01*
X65652733Y42753640D01*
X65690828Y42791735D01*
X65728923Y42867926D01*
X65767019Y43020307D01*
X65767019Y43210783D01*
X65728923Y43363164D01*
X65690828Y43439354D01*
X65652733Y43477450D01*
X65576542Y43515545D01*
G04 #@! TO.C,D9*
X62172776Y61663945D02*
X62172776Y62463945D01*
X61982300Y62463945D01*
X61868014Y62425850D01*
X61791823Y62349659D01*
X61753728Y62273469D01*
X61715633Y62121088D01*
X61715633Y62006802D01*
X61753728Y61854421D01*
X61791823Y61778230D01*
X61868014Y61702040D01*
X61982300Y61663945D01*
X62172776Y61663945D01*
X61334680Y61663945D02*
X61182300Y61663945D01*
X61106109Y61702040D01*
X61068014Y61740135D01*
X60991823Y61854421D01*
X60953728Y62006802D01*
X60953728Y62311564D01*
X60991823Y62387754D01*
X61029919Y62425850D01*
X61106109Y62463945D01*
X61258490Y62463945D01*
X61334680Y62425850D01*
X61372776Y62387754D01*
X61410871Y62311564D01*
X61410871Y62121088D01*
X61372776Y62044897D01*
X61334680Y62006802D01*
X61258490Y61968707D01*
X61106109Y61968707D01*
X61029919Y62006802D01*
X60991823Y62044897D01*
X60953728Y62121088D01*
G04 #@! TO.C,D8*
X52698576Y80612345D02*
X52698576Y81412345D01*
X52508100Y81412345D01*
X52393814Y81374250D01*
X52317623Y81298059D01*
X52279528Y81221869D01*
X52241433Y81069488D01*
X52241433Y80955202D01*
X52279528Y80802821D01*
X52317623Y80726630D01*
X52393814Y80650440D01*
X52508100Y80612345D01*
X52698576Y80612345D01*
X51784290Y81069488D02*
X51860480Y81107583D01*
X51898576Y81145678D01*
X51936671Y81221869D01*
X51936671Y81259964D01*
X51898576Y81336154D01*
X51860480Y81374250D01*
X51784290Y81412345D01*
X51631909Y81412345D01*
X51555719Y81374250D01*
X51517623Y81336154D01*
X51479528Y81259964D01*
X51479528Y81221869D01*
X51517623Y81145678D01*
X51555719Y81107583D01*
X51631909Y81069488D01*
X51784290Y81069488D01*
X51860480Y81031392D01*
X51898576Y80993297D01*
X51936671Y80917107D01*
X51936671Y80764726D01*
X51898576Y80688535D01*
X51860480Y80650440D01*
X51784290Y80612345D01*
X51631909Y80612345D01*
X51555719Y80650440D01*
X51517623Y80688535D01*
X51479528Y80764726D01*
X51479528Y80917107D01*
X51517623Y80993297D01*
X51555719Y81031392D01*
X51631909Y81069488D01*
G04 #@! TO.C,D7*
X66909876Y113772045D02*
X66909876Y114572045D01*
X66719400Y114572045D01*
X66605114Y114533950D01*
X66528923Y114457759D01*
X66490828Y114381569D01*
X66452733Y114229188D01*
X66452733Y114114902D01*
X66490828Y113962521D01*
X66528923Y113886330D01*
X66605114Y113810140D01*
X66719400Y113772045D01*
X66909876Y113772045D01*
X66186066Y114572045D02*
X65652733Y114572045D01*
X65995590Y113772045D01*
G04 #@! TO.C,D6*
X38487276Y4818745D02*
X38487276Y5618745D01*
X38296800Y5618745D01*
X38182514Y5580650D01*
X38106323Y5504459D01*
X38068228Y5428269D01*
X38030133Y5275888D01*
X38030133Y5161602D01*
X38068228Y5009221D01*
X38106323Y4933030D01*
X38182514Y4856840D01*
X38296800Y4818745D01*
X38487276Y4818745D01*
X37344419Y5618745D02*
X37496800Y5618745D01*
X37572990Y5580650D01*
X37611085Y5542554D01*
X37687276Y5428269D01*
X37725371Y5275888D01*
X37725371Y4971126D01*
X37687276Y4894935D01*
X37649180Y4856840D01*
X37572990Y4818745D01*
X37420609Y4818745D01*
X37344419Y4856840D01*
X37306323Y4894935D01*
X37268228Y4971126D01*
X37268228Y5161602D01*
X37306323Y5237792D01*
X37344419Y5275888D01*
X37420609Y5313983D01*
X37572990Y5313983D01*
X37649180Y5275888D01*
X37687276Y5237792D01*
X37725371Y5161602D01*
G04 #@! TO.C,D5*
X45592926Y23767145D02*
X45592926Y24567145D01*
X45402450Y24567145D01*
X45288164Y24529050D01*
X45211973Y24452859D01*
X45173878Y24376669D01*
X45135783Y24224288D01*
X45135783Y24110002D01*
X45173878Y23957621D01*
X45211973Y23881430D01*
X45288164Y23805240D01*
X45402450Y23767145D01*
X45592926Y23767145D01*
X44411973Y24567145D02*
X44792926Y24567145D01*
X44831021Y24186192D01*
X44792926Y24224288D01*
X44716735Y24262383D01*
X44526259Y24262383D01*
X44450069Y24224288D01*
X44411973Y24186192D01*
X44373878Y24110002D01*
X44373878Y23919526D01*
X44411973Y23843335D01*
X44450069Y23805240D01*
X44526259Y23767145D01*
X44716735Y23767145D01*
X44792926Y23805240D01*
X44831021Y23843335D01*
G04 #@! TO.C,D4*
X40855826Y42715545D02*
X40855826Y43515545D01*
X40665350Y43515545D01*
X40551064Y43477450D01*
X40474873Y43401259D01*
X40436778Y43325069D01*
X40398683Y43172688D01*
X40398683Y43058402D01*
X40436778Y42906021D01*
X40474873Y42829830D01*
X40551064Y42753640D01*
X40665350Y42715545D01*
X40855826Y42715545D01*
X39712969Y43248878D02*
X39712969Y42715545D01*
X39903445Y43553640D02*
X40093921Y42982211D01*
X39598683Y42982211D01*
G04 #@! TO.C,D3*
X38487276Y61663945D02*
X38487276Y62463945D01*
X38296800Y62463945D01*
X38182514Y62425850D01*
X38106323Y62349659D01*
X38068228Y62273469D01*
X38030133Y62121088D01*
X38030133Y62006802D01*
X38068228Y61854421D01*
X38106323Y61778230D01*
X38182514Y61702040D01*
X38296800Y61663945D01*
X38487276Y61663945D01*
X37763466Y62463945D02*
X37268228Y62463945D01*
X37534895Y62159183D01*
X37420609Y62159183D01*
X37344419Y62121088D01*
X37306323Y62082992D01*
X37268228Y62006802D01*
X37268228Y61816326D01*
X37306323Y61740135D01*
X37344419Y61702040D01*
X37420609Y61663945D01*
X37649180Y61663945D01*
X37725371Y61702040D01*
X37763466Y61740135D01*
G04 #@! TO.C,D2*
X33750176Y80612345D02*
X33750176Y81412345D01*
X33559700Y81412345D01*
X33445414Y81374250D01*
X33369223Y81298059D01*
X33331128Y81221869D01*
X33293033Y81069488D01*
X33293033Y80955202D01*
X33331128Y80802821D01*
X33369223Y80726630D01*
X33445414Y80650440D01*
X33559700Y80612345D01*
X33750176Y80612345D01*
X32988271Y81336154D02*
X32950176Y81374250D01*
X32873985Y81412345D01*
X32683509Y81412345D01*
X32607319Y81374250D01*
X32569223Y81336154D01*
X32531128Y81259964D01*
X32531128Y81183773D01*
X32569223Y81069488D01*
X33026366Y80612345D01*
X32531128Y80612345D01*
G04 #@! TO.C,D1*
X33750176Y113772045D02*
X33750176Y114572045D01*
X33559700Y114572045D01*
X33445414Y114533950D01*
X33369223Y114457759D01*
X33331128Y114381569D01*
X33293033Y114229188D01*
X33293033Y114114902D01*
X33331128Y113962521D01*
X33369223Y113886330D01*
X33445414Y113810140D01*
X33559700Y113772045D01*
X33750176Y113772045D01*
X32531128Y113772045D02*
X32988271Y113772045D01*
X32759700Y113772045D02*
X32759700Y114572045D01*
X32835890Y114457759D01*
X32912080Y114381569D01*
X32988271Y114343473D01*
G04 #@! TD*
%LPC*%
D12*
G04 #@! TO.C,J1*
X382611550Y133644450D03*
X384311550Y133644450D03*
X383461550Y133644450D03*
X381761550Y133644450D03*
X380911550Y133644450D03*
X380061550Y133644450D03*
X379211550Y133644450D03*
X378361550Y133644450D03*
X384311550Y134969450D03*
X383456550Y134969450D03*
X382606550Y134969450D03*
X381756550Y134969450D03*
X380906550Y134969450D03*
X380056550Y134969450D03*
X379206550Y134969450D03*
X378356550Y134969450D03*
D13*
X385661550Y134624450D03*
X377011550Y134624450D03*
D14*
X385661550Y138004450D03*
X377011550Y138004450D03*
G04 #@! TD*
D15*
G04 #@! TO.C,K_93*
X412299150Y87293450D03*
X402139150Y87293450D03*
D16*
X407219150Y87293450D03*
D17*
X403409150Y89833450D03*
X409759150Y92373450D03*
G04 #@! TD*
D15*
G04 #@! TO.C,K_11*
X80702150Y30448250D03*
X70542150Y30448250D03*
D16*
X75622150Y30448250D03*
D17*
X71812150Y32988250D03*
X78162150Y35528250D03*
G04 #@! TD*
D15*
G04 #@! TO.C,K_37*
X161232850Y68345050D03*
X151072850Y68345050D03*
D16*
X156152850Y68345050D03*
D17*
X152342850Y70885050D03*
X158692850Y73425050D03*
G04 #@! TD*
D15*
G04 #@! TO.C,K_17*
X99650550Y30448250D03*
X89490550Y30448250D03*
D16*
X94570550Y30448250D03*
D17*
X90760550Y32988250D03*
X97110550Y35528250D03*
G04 #@! TD*
D15*
G04 #@! TO.C,K_12*
X66490850Y11499850D03*
X56330850Y11499850D03*
D16*
X61410850Y11499850D03*
D17*
X57600850Y14039850D03*
X63950850Y16579850D03*
G04 #@! TD*
D15*
G04 #@! TO.C,K_15*
X85439250Y68345050D03*
X75279250Y68345050D03*
D16*
X80359250Y68345050D03*
D17*
X76549250Y70885050D03*
X82899250Y73425050D03*
G04 #@! TD*
D15*
G04 #@! TO.C,K_71*
X298608750Y68345050D03*
X288448750Y68345050D03*
D16*
X293528750Y68345050D03*
D17*
X289718750Y70885050D03*
X296068750Y73425050D03*
G04 #@! TD*
D15*
G04 #@! TO.C,K_28*
X137547350Y30448250D03*
X127387350Y30448250D03*
D16*
X132467350Y30448250D03*
D17*
X128657350Y32988250D03*
X135007350Y35528250D03*
G04 #@! TD*
D15*
G04 #@! TO.C,K_82*
X348348300Y30448250D03*
X338188300Y30448250D03*
D16*
X343268300Y30448250D03*
D17*
X339458300Y32988250D03*
X345808300Y35528250D03*
G04 #@! TD*
D15*
G04 #@! TO.C,K_62*
X246500650Y87293450D03*
X236340650Y87293450D03*
D16*
X241420650Y87293450D03*
D17*
X237610650Y89833450D03*
X243960650Y92373450D03*
G04 #@! TD*
D15*
G04 #@! TO.C,K_42*
X180181250Y68345050D03*
X170021250Y68345050D03*
D16*
X175101250Y68345050D03*
D17*
X171291250Y70885050D03*
X177641250Y73425050D03*
G04 #@! TD*
D15*
G04 #@! TO.C,K_2*
X38068250Y87293450D03*
X27908250Y87293450D03*
D16*
X32988250Y87293450D03*
D17*
X29178250Y89833450D03*
X35528250Y92373450D03*
G04 #@! TD*
D15*
G04 #@! TO.C,K_3*
X42805350Y68345050D03*
X32645350Y68345050D03*
D16*
X37725350Y68345050D03*
D17*
X33915350Y70885050D03*
X40265350Y73425050D03*
G04 #@! TD*
D15*
G04 #@! TO.C,K_31*
X142284450Y68345050D03*
X132124450Y68345050D03*
D16*
X137204450Y68345050D03*
D17*
X133394450Y70885050D03*
X139744450Y73425050D03*
G04 #@! TD*
D18*
G04 #@! TO.C,K_34*
X203784300Y18499850D03*
X103784300Y18499850D03*
D16*
X103784300Y3259850D03*
X203784300Y3259850D03*
D15*
X158864300Y11499850D03*
X148704300Y11499850D03*
D16*
X153784300Y11499850D03*
D17*
X149974300Y14039850D03*
X156324300Y16579850D03*
G04 #@! TD*
D15*
G04 #@! TO.C,K_58*
X241763550Y49396650D03*
X231603550Y49396650D03*
D16*
X236683550Y49396650D03*
D17*
X232873550Y51936650D03*
X239223550Y54476650D03*
G04 #@! TD*
D15*
G04 #@! TO.C,K_79*
X348348300Y120453150D03*
X338188300Y120453150D03*
D16*
X343268300Y120453150D03*
D17*
X339458300Y122993150D03*
X345808300Y125533150D03*
G04 #@! TD*
D15*
G04 #@! TO.C,K_16*
X90176350Y49396650D03*
X80016350Y49396650D03*
D16*
X85096350Y49396650D03*
D17*
X81286350Y51936650D03*
X87636350Y54476650D03*
G04 #@! TD*
D18*
G04 #@! TO.C,K_73*
X293586000Y37448250D03*
X269786000Y37448250D03*
D16*
X269786000Y22208250D03*
X293586000Y22208250D03*
D15*
X286766000Y30448250D03*
X276606000Y30448250D03*
D16*
X281686000Y30448250D03*
D17*
X277876000Y32988250D03*
X284226000Y35528250D03*
G04 #@! TD*
D15*
G04 #@! TO.C,K_74*
X298608750Y11499850D03*
X288448750Y11499850D03*
D16*
X293528750Y11499850D03*
D17*
X289718750Y14039850D03*
X296068750Y16579850D03*
G04 #@! TD*
D15*
G04 #@! TO.C,K_87*
X367296700Y11499850D03*
X357136700Y11499850D03*
D16*
X362216700Y11499850D03*
D17*
X358406700Y14039850D03*
X364756700Y16579850D03*
G04 #@! TD*
D15*
G04 #@! TO.C,K_54*
X232289350Y11499850D03*
X222129350Y11499850D03*
D16*
X227209350Y11499850D03*
D17*
X223399350Y14039850D03*
X229749350Y16579850D03*
G04 #@! TD*
D15*
G04 #@! TO.C,K_68*
X274923250Y68345050D03*
X264763250Y68345050D03*
D16*
X269843250Y68345050D03*
D17*
X266033250Y70885050D03*
X272383250Y73425050D03*
G04 #@! TD*
D15*
G04 #@! TO.C,K_53*
X232289350Y30448250D03*
X222129350Y30448250D03*
D16*
X227209350Y30448250D03*
D17*
X223399350Y32988250D03*
X229749350Y35528250D03*
G04 #@! TD*
D15*
G04 #@! TO.C,K_26*
X123336050Y68345050D03*
X113176050Y68345050D03*
D16*
X118256050Y68345050D03*
D17*
X114446050Y70885050D03*
X120796050Y73425050D03*
G04 #@! TD*
D15*
G04 #@! TO.C,K_64*
X260711950Y49396650D03*
X250551950Y49396650D03*
D16*
X255631950Y49396650D03*
D17*
X251821950Y51936650D03*
X258171950Y54476650D03*
G04 #@! TD*
D15*
G04 #@! TO.C,K_59*
X251237750Y30448250D03*
X241077750Y30448250D03*
D16*
X246157750Y30448250D03*
D17*
X242347750Y32988250D03*
X248697750Y35528250D03*
G04 #@! TD*
D15*
G04 #@! TO.C,K_9*
X66490850Y68345050D03*
X56330850Y68345050D03*
D16*
X61410850Y68345050D03*
D17*
X57600850Y70885050D03*
X63950850Y73425050D03*
G04 #@! TD*
D15*
G04 #@! TO.C,K_75*
X329399900Y120453150D03*
X319239900Y120453150D03*
D16*
X324319900Y120453150D03*
D17*
X320509900Y122993150D03*
X326859900Y125533150D03*
G04 #@! TD*
D15*
G04 #@! TO.C,K_67*
X265449050Y87293450D03*
X255289050Y87293450D03*
D16*
X260369050Y87293450D03*
D17*
X256559050Y89833450D03*
X262909050Y92373450D03*
G04 #@! TD*
D15*
G04 #@! TO.C,K_84*
X367296700Y120453150D03*
X357136700Y120453150D03*
D16*
X362216700Y120453150D03*
D17*
X358406700Y122993150D03*
X364756700Y125533150D03*
G04 #@! TD*
D15*
G04 #@! TO.C,K_85*
X367296700Y87293450D03*
X357136700Y87293450D03*
D16*
X362216700Y87293450D03*
D17*
X358406700Y89833450D03*
X364756700Y92373450D03*
G04 #@! TD*
D15*
G04 #@! TO.C,K_86*
X367296700Y68345050D03*
X357136700Y68345050D03*
D16*
X362216700Y68345050D03*
D17*
X358406700Y70885050D03*
X364756700Y73425050D03*
G04 #@! TD*
D15*
G04 #@! TO.C,K_57*
X237026450Y68345050D03*
X226866450Y68345050D03*
D16*
X231946450Y68345050D03*
D17*
X228136450Y70885050D03*
X234486450Y73425050D03*
G04 #@! TD*
D15*
G04 #@! TO.C,K_51*
X218078050Y68345050D03*
X207918050Y68345050D03*
D16*
X212998050Y68345050D03*
D17*
X209188050Y70885050D03*
X215538050Y73425050D03*
G04 #@! TD*
D15*
G04 #@! TO.C,K_97*
X431247550Y87293450D03*
X421087550Y87293450D03*
D16*
X426167550Y87293450D03*
D17*
X422357550Y89833450D03*
X428707550Y92373450D03*
G04 #@! TD*
D18*
G04 #@! TO.C,K_103*
X438115950Y70770850D03*
X438115950Y46970850D03*
D16*
X453355950Y46970850D03*
X453355950Y70770850D03*
D15*
X450195950Y58870850D03*
X440035950Y58870850D03*
D16*
X445115950Y58870850D03*
D17*
X441305950Y61410850D03*
X447655950Y63950850D03*
G04 #@! TD*
D15*
G04 #@! TO.C,K_102*
X450195950Y87293450D03*
X440035950Y87293450D03*
D16*
X445115950Y87293450D03*
D17*
X441305950Y89833450D03*
X447655950Y92373450D03*
G04 #@! TD*
D18*
G04 #@! TO.C,K_104*
X438115950Y32874050D03*
X438115950Y9074050D03*
D16*
X453355950Y9074050D03*
X453355950Y32874050D03*
D15*
X450195950Y20974050D03*
X440035950Y20974050D03*
D16*
X445115950Y20974050D03*
D17*
X441305950Y23514050D03*
X447655950Y26054050D03*
G04 #@! TD*
D15*
G04 #@! TO.C,K_101*
X431247550Y11499850D03*
X421087550Y11499850D03*
D16*
X426167550Y11499850D03*
D17*
X422357550Y14039850D03*
X428707550Y16579850D03*
G04 #@! TD*
D15*
G04 #@! TO.C,K_98*
X431247550Y68345050D03*
X421087550Y68345050D03*
D16*
X426167550Y68345050D03*
D17*
X422357550Y70885050D03*
X428707550Y73425050D03*
G04 #@! TD*
D15*
G04 #@! TO.C,K_94*
X412299150Y68345050D03*
X402139150Y68345050D03*
D16*
X407219150Y68345050D03*
D17*
X403409150Y70885050D03*
X409759150Y73425050D03*
G04 #@! TD*
D15*
G04 #@! TO.C,K_89*
X393350750Y68345050D03*
X383190750Y68345050D03*
D16*
X388270750Y68345050D03*
D17*
X384460750Y70885050D03*
X390810750Y73425050D03*
G04 #@! TD*
D15*
G04 #@! TO.C,K_99*
X431247550Y49396650D03*
X421087550Y49396650D03*
D16*
X426167550Y49396650D03*
D17*
X422357550Y51936650D03*
X428707550Y54476650D03*
G04 #@! TD*
D15*
G04 #@! TO.C,K_95*
X412299150Y49396650D03*
X402139150Y49396650D03*
D16*
X407219150Y49396650D03*
D17*
X403409150Y51936650D03*
X409759150Y54476650D03*
G04 #@! TD*
D15*
G04 #@! TO.C,K_90*
X393350750Y49396650D03*
X383190750Y49396650D03*
D16*
X388270750Y49396650D03*
D17*
X384460750Y51936650D03*
X390810750Y54476650D03*
G04 #@! TD*
D15*
G04 #@! TO.C,K_100*
X431247550Y30448250D03*
X421087550Y30448250D03*
D16*
X426167550Y30448250D03*
D17*
X422357550Y32988250D03*
X428707550Y35528250D03*
G04 #@! TD*
D15*
G04 #@! TO.C,K_96*
X412299150Y30448250D03*
X402139150Y30448250D03*
D16*
X407219150Y30448250D03*
D17*
X403409150Y32988250D03*
X409759150Y35528250D03*
G04 #@! TD*
D15*
G04 #@! TO.C,K_91*
X393350750Y30448250D03*
X383190750Y30448250D03*
D16*
X388270750Y30448250D03*
D17*
X384460750Y32988250D03*
X390810750Y35528250D03*
G04 #@! TD*
D18*
G04 #@! TO.C,K_92*
X409644950Y18499850D03*
X385844950Y18499850D03*
D16*
X385844950Y3259850D03*
X409644950Y3259850D03*
D15*
X402824950Y11499850D03*
X392664950Y11499850D03*
D16*
X397744950Y11499850D03*
D17*
X393934950Y14039850D03*
X400284950Y16579850D03*
G04 #@! TD*
D15*
G04 #@! TO.C,K_88*
X393350750Y87293450D03*
X383190750Y87293450D03*
D16*
X388270750Y87293450D03*
D17*
X384460750Y89833450D03*
X390810750Y92373450D03*
G04 #@! TD*
D15*
G04 #@! TO.C,K_39*
X175444150Y30448250D03*
X165284150Y30448250D03*
D16*
X170364150Y30448250D03*
D17*
X166554150Y32988250D03*
X172904150Y35528250D03*
G04 #@! TD*
D15*
G04 #@! TO.C,K_60*
X255974850Y11499850D03*
X245814850Y11499850D03*
D16*
X250894850Y11499850D03*
D17*
X247084850Y14039850D03*
X253434850Y16579850D03*
G04 #@! TD*
D15*
G04 #@! TO.C,K_44*
X194392550Y30448250D03*
X184232550Y30448250D03*
D16*
X189312550Y30448250D03*
D17*
X185502550Y32988250D03*
X191852550Y35528250D03*
G04 #@! TD*
D18*
G04 #@! TO.C,K_5*
X56731000Y37448250D03*
X32931000Y37448250D03*
D16*
X32931000Y22208250D03*
X56731000Y22208250D03*
D15*
X49911000Y30448250D03*
X39751000Y30448250D03*
D16*
X44831000Y30448250D03*
D17*
X41021000Y32988250D03*
X47371000Y35528250D03*
G04 #@! TD*
D15*
G04 #@! TO.C,K_6*
X42805350Y11499850D03*
X32645350Y11499850D03*
D16*
X37725350Y11499850D03*
D17*
X33915350Y14039850D03*
X40265350Y16579850D03*
G04 #@! TD*
D15*
G04 #@! TO.C,K_78*
X329399900Y11499850D03*
X319239900Y11499850D03*
D16*
X324319900Y11499850D03*
D17*
X320509900Y14039850D03*
X326859900Y16579850D03*
G04 #@! TD*
D15*
G04 #@! TO.C,K_18*
X87807800Y11499850D03*
X77647800Y11499850D03*
D16*
X82727800Y11499850D03*
D17*
X78917800Y14039850D03*
X85267800Y16579850D03*
G04 #@! TD*
D15*
G04 #@! TO.C,K_63*
X255974850Y68345050D03*
X245814850Y68345050D03*
D16*
X250894850Y68345050D03*
D17*
X247084850Y70885050D03*
X253434850Y73425050D03*
G04 #@! TD*
D15*
G04 #@! TO.C,K_49*
X213340950Y30448250D03*
X203180950Y30448250D03*
D16*
X208260950Y30448250D03*
D17*
X204450950Y32988250D03*
X210800950Y35528250D03*
G04 #@! TD*
D15*
G04 #@! TO.C,K_52*
X222815150Y49396650D03*
X212655150Y49396650D03*
D16*
X217735150Y49396650D03*
D17*
X213925150Y51936650D03*
X220275150Y54476650D03*
G04 #@! TD*
D15*
G04 #@! TO.C,K_48*
X203866750Y49396650D03*
X193706750Y49396650D03*
D16*
X198786750Y49396650D03*
D17*
X194976750Y51936650D03*
X201326750Y54476650D03*
G04 #@! TD*
D15*
G04 #@! TO.C,K_43*
X184918350Y49396650D03*
X174758350Y49396650D03*
D16*
X179838350Y49396650D03*
D17*
X176028350Y51936650D03*
X182378350Y54476650D03*
G04 #@! TD*
D15*
G04 #@! TO.C,K_76*
X329399900Y87293450D03*
X319239900Y87293450D03*
D16*
X324319900Y87293450D03*
D17*
X320509900Y89833450D03*
X326859900Y92373450D03*
G04 #@! TD*
D15*
G04 #@! TO.C,K_47*
X199129650Y68345050D03*
X188969650Y68345050D03*
D16*
X194049650Y68345050D03*
D17*
X190239650Y70885050D03*
X196589650Y73425050D03*
G04 #@! TD*
D15*
G04 #@! TO.C,K_80*
X348348300Y87293450D03*
X338188300Y87293450D03*
D16*
X343268300Y87293450D03*
D17*
X339458300Y89833450D03*
X345808300Y92373450D03*
G04 #@! TD*
D15*
G04 #@! TO.C,K_38*
X165969950Y49396650D03*
X155809950Y49396650D03*
D16*
X160889950Y49396650D03*
D17*
X157079950Y51936650D03*
X163429950Y54476650D03*
G04 #@! TD*
D15*
G04 #@! TO.C,K_32*
X147021550Y49396650D03*
X136861550Y49396650D03*
D16*
X141941550Y49396650D03*
D17*
X138131550Y51936650D03*
X144481550Y54476650D03*
G04 #@! TD*
D15*
G04 #@! TO.C,K_65*
X274923250Y11499850D03*
X264763250Y11499850D03*
D16*
X269843250Y11499850D03*
D17*
X266033250Y14039850D03*
X272383250Y16579850D03*
G04 #@! TD*
D15*
G04 #@! TO.C,K_27*
X128073150Y49396650D03*
X117913150Y49396650D03*
D16*
X122993150Y49396650D03*
D17*
X119183150Y51936650D03*
X125533150Y54476650D03*
G04 #@! TD*
D15*
G04 #@! TO.C,K_69*
X303345850Y120453150D03*
X293185850Y120453150D03*
D16*
X298265850Y120453150D03*
D17*
X294455850Y122993150D03*
X300805850Y125533150D03*
G04 #@! TD*
D15*
G04 #@! TO.C,K_66*
X284397450Y120453150D03*
X274237450Y120453150D03*
D16*
X279317450Y120453150D03*
D17*
X275507450Y122993150D03*
X281857450Y125533150D03*
G04 #@! TD*
D15*
G04 #@! TO.C,K_61*
X265449050Y120453150D03*
X255289050Y120453150D03*
D16*
X260369050Y120453150D03*
D17*
X256559050Y122993150D03*
X262909050Y125533150D03*
G04 #@! TD*
D15*
G04 #@! TO.C,K_55*
X246500650Y120453150D03*
X236340650Y120453150D03*
D16*
X241420650Y120453150D03*
D17*
X237610650Y122993150D03*
X243960650Y125533150D03*
G04 #@! TD*
D15*
G04 #@! TO.C,K_45*
X215709500Y120453150D03*
X205549500Y120453150D03*
D16*
X210629500Y120453150D03*
D17*
X206819500Y122993150D03*
X213169500Y125533150D03*
G04 #@! TD*
D15*
G04 #@! TO.C,K_40*
X196761100Y120453150D03*
X186601100Y120453150D03*
D16*
X191681100Y120453150D03*
D17*
X187871100Y122993150D03*
X194221100Y125533150D03*
G04 #@! TD*
D15*
G04 #@! TO.C,K_35*
X177812700Y120453150D03*
X167652700Y120453150D03*
D16*
X172732700Y120453150D03*
D17*
X168922700Y122993150D03*
X175272700Y125533150D03*
G04 #@! TD*
D15*
G04 #@! TO.C,K_29*
X158864300Y120453150D03*
X148704300Y120453150D03*
D16*
X153784300Y120453150D03*
D17*
X149974300Y122993150D03*
X156324300Y125533150D03*
G04 #@! TD*
D15*
G04 #@! TO.C,K_24*
X128073150Y120453150D03*
X117913150Y120453150D03*
D16*
X122993150Y120453150D03*
D17*
X119183150Y122993150D03*
X125533150Y125533150D03*
G04 #@! TD*
D15*
G04 #@! TO.C,K_19*
X109124750Y120453150D03*
X98964750Y120453150D03*
D16*
X104044750Y120453150D03*
D17*
X100234750Y122993150D03*
X106584750Y125533150D03*
G04 #@! TD*
D15*
G04 #@! TO.C,K_13*
X90176350Y120453150D03*
X80016350Y120453150D03*
D16*
X85096350Y120453150D03*
D17*
X81286350Y122993150D03*
X87636350Y125533150D03*
G04 #@! TD*
D15*
G04 #@! TO.C,K_7*
X71227950Y120453150D03*
X61067950Y120453150D03*
D16*
X66147950Y120453150D03*
D17*
X62337950Y122993150D03*
X68687950Y125533150D03*
G04 #@! TD*
D15*
G04 #@! TO.C,K_1*
X38068250Y120453150D03*
X27908250Y120453150D03*
D16*
X32988250Y120453150D03*
D17*
X29178250Y122993150D03*
X35528250Y125533150D03*
G04 #@! TD*
D18*
G04 #@! TO.C,K_72*
X298323100Y56396650D03*
X274523100Y56396650D03*
D16*
X274523100Y41156650D03*
X298323100Y41156650D03*
D15*
X291503100Y49396650D03*
X281343100Y49396650D03*
D16*
X286423100Y49396650D03*
D17*
X282613100Y51936650D03*
X288963100Y54476650D03*
G04 #@! TD*
D15*
G04 #@! TO.C,K_81*
X348348300Y68345050D03*
X338188300Y68345050D03*
D16*
X343268300Y68345050D03*
D17*
X339458300Y70885050D03*
X345808300Y73425050D03*
G04 #@! TD*
D15*
G04 #@! TO.C,K_21*
X104387650Y68345050D03*
X94227650Y68345050D03*
D16*
X99307650Y68345050D03*
D17*
X95497650Y70885050D03*
X101847650Y73425050D03*
G04 #@! TD*
D15*
G04 #@! TO.C,K_83*
X348348300Y11499850D03*
X338188300Y11499850D03*
D16*
X343268300Y11499850D03*
D17*
X339458300Y14039850D03*
X345808300Y16579850D03*
G04 #@! TD*
D15*
G04 #@! TO.C,K_77*
X329399900Y68345050D03*
X319239900Y68345050D03*
D16*
X324319900Y68345050D03*
D17*
X320509900Y70885050D03*
X326859900Y73425050D03*
G04 #@! TD*
D15*
G04 #@! TO.C,K_22*
X109124750Y49396650D03*
X98964750Y49396650D03*
D16*
X104044750Y49396650D03*
D17*
X100234750Y51936650D03*
X106584750Y54476650D03*
G04 #@! TD*
D15*
G04 #@! TO.C,K_4*
X45173900Y49396650D03*
X35013900Y49396650D03*
D16*
X40093900Y49396650D03*
D17*
X36283900Y51936650D03*
X42633900Y54476650D03*
G04 #@! TD*
D15*
G04 #@! TO.C,K_23*
X118598950Y30448250D03*
X108438950Y30448250D03*
D16*
X113518950Y30448250D03*
D17*
X109708950Y32988250D03*
X116058950Y35528250D03*
G04 #@! TD*
D18*
G04 #@! TO.C,K_70*
X300691650Y94293450D03*
X276891650Y94293450D03*
D16*
X276891650Y79053450D03*
X300691650Y79053450D03*
D15*
X293871650Y87293450D03*
X283711650Y87293450D03*
D16*
X288791650Y87293450D03*
D17*
X284981650Y89833450D03*
X291331650Y92373450D03*
G04 #@! TD*
D15*
G04 #@! TO.C,K_33*
X156495750Y30448250D03*
X146335750Y30448250D03*
D16*
X151415750Y30448250D03*
D17*
X147605750Y32988250D03*
X153955750Y35528250D03*
G04 #@! TD*
D15*
G04 #@! TO.C,K_10*
X71227950Y49396650D03*
X61067950Y49396650D03*
D16*
X66147950Y49396650D03*
D17*
X62337950Y51936650D03*
X68687950Y54476650D03*
G04 #@! TD*
D15*
G04 #@! TO.C,K_50*
X208603850Y87293450D03*
X198443850Y87293450D03*
D16*
X203523850Y87293450D03*
D17*
X199713850Y89833450D03*
X206063850Y92373450D03*
G04 #@! TD*
D15*
G04 #@! TO.C,K_46*
X189655450Y87293450D03*
X179495450Y87293450D03*
D16*
X184575450Y87293450D03*
D17*
X180765450Y89833450D03*
X187115450Y92373450D03*
G04 #@! TD*
D15*
G04 #@! TO.C,K_41*
X170707050Y87293450D03*
X160547050Y87293450D03*
D16*
X165627050Y87293450D03*
D17*
X161817050Y89833450D03*
X168167050Y92373450D03*
G04 #@! TD*
D15*
G04 #@! TO.C,K_36*
X151758650Y87293450D03*
X141598650Y87293450D03*
D16*
X146678650Y87293450D03*
D17*
X142868650Y89833450D03*
X149218650Y92373450D03*
G04 #@! TD*
D15*
G04 #@! TO.C,K_30*
X132810250Y87293450D03*
X122650250Y87293450D03*
D16*
X127730250Y87293450D03*
D17*
X123920250Y89833450D03*
X130270250Y92373450D03*
G04 #@! TD*
D15*
G04 #@! TO.C,K_25*
X113861850Y87293450D03*
X103701850Y87293450D03*
D16*
X108781850Y87293450D03*
D17*
X104971850Y89833450D03*
X111321850Y92373450D03*
G04 #@! TD*
D15*
G04 #@! TO.C,K_20*
X94913450Y87293450D03*
X84753450Y87293450D03*
D16*
X89833450Y87293450D03*
D17*
X86023450Y89833450D03*
X92373450Y92373450D03*
G04 #@! TD*
D15*
G04 #@! TO.C,K_14*
X75965050Y87293450D03*
X65805050Y87293450D03*
D16*
X70885050Y87293450D03*
D17*
X67075050Y89833450D03*
X73425050Y92373450D03*
G04 #@! TD*
D15*
G04 #@! TO.C,K_8*
X57016650Y87293450D03*
X46856650Y87293450D03*
D16*
X51936650Y87293450D03*
D17*
X48126650Y89833450D03*
X54476650Y92373450D03*
G04 #@! TD*
D15*
G04 #@! TO.C,K_56*
X227552250Y87293450D03*
X217392250Y87293450D03*
D16*
X222472250Y87293450D03*
D17*
X218662250Y89833450D03*
X225012250Y92373450D03*
G04 #@! TD*
D19*
G04 #@! TO.C,D92*
X394016400Y7105650D03*
D20*
X401816400Y7105650D03*
D21*
X399491400Y7105650D03*
X396341400Y7105650D03*
G04 #@! TD*
D19*
G04 #@! TO.C,D101*
X422439000Y7105650D03*
D20*
X430239000Y7105650D03*
D21*
X427914000Y7105650D03*
X424764000Y7105650D03*
G04 #@! TD*
D19*
G04 #@! TO.C,D91*
X384542200Y26054050D03*
D20*
X392342200Y26054050D03*
D21*
X390017200Y26054050D03*
X386867200Y26054050D03*
G04 #@! TD*
D19*
G04 #@! TO.C,D96*
X403490600Y26054050D03*
D20*
X411290600Y26054050D03*
D21*
X408965600Y26054050D03*
X405815600Y26054050D03*
G04 #@! TD*
D19*
G04 #@! TO.C,D100*
X422439000Y26054050D03*
D20*
X430239000Y26054050D03*
D21*
X427914000Y26054050D03*
X424764000Y26054050D03*
G04 #@! TD*
D19*
G04 #@! TO.C,D99*
X422439000Y45002450D03*
D20*
X430239000Y45002450D03*
D21*
X427914000Y45002450D03*
X424764000Y45002450D03*
G04 #@! TD*
D19*
G04 #@! TO.C,D98*
X422439000Y63950850D03*
D20*
X430239000Y63950850D03*
D21*
X427914000Y63950850D03*
X424764000Y63950850D03*
G04 #@! TD*
D19*
G04 #@! TO.C,D97*
X422439000Y82899250D03*
D20*
X430239000Y82899250D03*
D21*
X427914000Y82899250D03*
X424764000Y82899250D03*
G04 #@! TD*
D19*
G04 #@! TO.C,D86*
X358488150Y63950850D03*
D20*
X366288150Y63950850D03*
D21*
X363963150Y63950850D03*
X360813150Y63950850D03*
G04 #@! TD*
D19*
G04 #@! TO.C,D85*
X358488150Y82899250D03*
D20*
X366288150Y82899250D03*
D21*
X363963150Y82899250D03*
X360813150Y82899250D03*
G04 #@! TD*
D19*
G04 #@! TO.C,D84*
X358488150Y116058950D03*
D20*
X366288150Y116058950D03*
D21*
X363963150Y116058950D03*
X360813150Y116058950D03*
G04 #@! TD*
D19*
G04 #@! TO.C,D95*
X403490600Y45002450D03*
D20*
X411290600Y45002450D03*
D21*
X408965600Y45002450D03*
X405815600Y45002450D03*
G04 #@! TD*
D19*
G04 #@! TO.C,D94*
X403490600Y63950850D03*
D20*
X411290600Y63950850D03*
D21*
X408965600Y63950850D03*
X405815600Y63950850D03*
G04 #@! TD*
D19*
G04 #@! TO.C,D93*
X403490600Y82899250D03*
D20*
X411290600Y82899250D03*
D21*
X408965600Y82899250D03*
X405815600Y82899250D03*
G04 #@! TD*
D19*
G04 #@! TO.C,D81*
X339539750Y63950850D03*
D20*
X347339750Y63950850D03*
D21*
X345014750Y63950850D03*
X341864750Y63950850D03*
G04 #@! TD*
D19*
G04 #@! TO.C,D80*
X339539750Y82899250D03*
D20*
X347339750Y82899250D03*
D21*
X345014750Y82899250D03*
X341864750Y82899250D03*
G04 #@! TD*
D19*
G04 #@! TO.C,D79*
X339539750Y116058950D03*
D20*
X347339750Y116058950D03*
D21*
X345014750Y116058950D03*
X341864750Y116058950D03*
G04 #@! TD*
D19*
G04 #@! TO.C,D90*
X384542200Y45002450D03*
D20*
X392342200Y45002450D03*
D21*
X390017200Y45002450D03*
X386867200Y45002450D03*
G04 #@! TD*
D19*
G04 #@! TO.C,D89*
X384542200Y63950850D03*
D20*
X392342200Y63950850D03*
D21*
X390017200Y63950850D03*
X386867200Y63950850D03*
G04 #@! TD*
D19*
G04 #@! TO.C,D88*
X384542200Y82899250D03*
D20*
X392342200Y82899250D03*
D21*
X390017200Y82899250D03*
X386867200Y82899250D03*
G04 #@! TD*
D19*
G04 #@! TO.C,D77*
X320591350Y63950850D03*
D20*
X328391350Y63950850D03*
D21*
X326066350Y63950850D03*
X322916350Y63950850D03*
G04 #@! TD*
D19*
G04 #@! TO.C,D76*
X320591350Y82899250D03*
D20*
X328391350Y82899250D03*
D21*
X326066350Y82899250D03*
X322916350Y82899250D03*
G04 #@! TD*
D19*
G04 #@! TO.C,D75*
X320591350Y116058950D03*
D20*
X328391350Y116058950D03*
D21*
X326066350Y116058950D03*
X322916350Y116058950D03*
G04 #@! TD*
D19*
G04 #@! TO.C,D103*
X441387400Y54476650D03*
D20*
X449187400Y54476650D03*
D21*
X446862400Y54476650D03*
X443712400Y54476650D03*
G04 #@! TD*
D19*
G04 #@! TO.C,D71*
X289800200Y63950850D03*
D20*
X297600200Y63950850D03*
D21*
X295275200Y63950850D03*
X292125200Y63950850D03*
G04 #@! TD*
D19*
G04 #@! TO.C,D70*
X285063100Y82899250D03*
D20*
X292863100Y82899250D03*
D21*
X290538100Y82899250D03*
X287388100Y82899250D03*
G04 #@! TD*
D19*
G04 #@! TO.C,D104*
X441387400Y16579850D03*
D20*
X449187400Y16579850D03*
D21*
X446862400Y16579850D03*
X443712400Y16579850D03*
G04 #@! TD*
D19*
G04 #@! TO.C,D102*
X441387400Y82899250D03*
D20*
X449187400Y82899250D03*
D21*
X446862400Y82899250D03*
X443712400Y82899250D03*
G04 #@! TD*
D19*
G04 #@! TO.C,D72*
X282694550Y45002450D03*
D20*
X290494550Y45002450D03*
D21*
X288169550Y45002450D03*
X285019550Y45002450D03*
G04 #@! TD*
D19*
G04 #@! TO.C,D68*
X266114700Y63950850D03*
D20*
X273914700Y63950850D03*
D21*
X271589700Y63950850D03*
X268439700Y63950850D03*
G04 #@! TD*
D19*
G04 #@! TO.C,D67*
X256640500Y82899250D03*
D20*
X264440500Y82899250D03*
D21*
X262115500Y82899250D03*
X258965500Y82899250D03*
G04 #@! TD*
D19*
G04 #@! TO.C,D69*
X294537300Y116058950D03*
D20*
X302337300Y116058950D03*
D21*
X300012300Y116058950D03*
X296862300Y116058950D03*
G04 #@! TD*
D19*
G04 #@! TO.C,D82*
X339539750Y26054050D03*
D20*
X347339750Y26054050D03*
D21*
X345014750Y26054050D03*
X341864750Y26054050D03*
G04 #@! TD*
D19*
G04 #@! TO.C,D73*
X277957450Y26054050D03*
D20*
X285757450Y26054050D03*
D21*
X283432450Y26054050D03*
X280282450Y26054050D03*
G04 #@! TD*
D19*
G04 #@! TO.C,D64*
X251903400Y45002450D03*
D20*
X259703400Y45002450D03*
D21*
X257378400Y45002450D03*
X254228400Y45002450D03*
G04 #@! TD*
D19*
G04 #@! TO.C,D63*
X247166300Y63950850D03*
D20*
X254966300Y63950850D03*
D21*
X252641300Y63950850D03*
X249491300Y63950850D03*
G04 #@! TD*
D19*
G04 #@! TO.C,D62*
X237692100Y82899250D03*
D20*
X245492100Y82899250D03*
D21*
X243167100Y82899250D03*
X240017100Y82899250D03*
G04 #@! TD*
D19*
G04 #@! TO.C,D66*
X275588900Y116058950D03*
D20*
X283388900Y116058950D03*
D21*
X281063900Y116058950D03*
X277913900Y116058950D03*
G04 #@! TD*
D19*
G04 #@! TO.C,D87*
X358488150Y7105650D03*
D20*
X366288150Y7105650D03*
D21*
X363963150Y7105650D03*
X360813150Y7105650D03*
G04 #@! TD*
D19*
G04 #@! TO.C,D59*
X242429200Y26054050D03*
D20*
X250229200Y26054050D03*
D21*
X247904200Y26054050D03*
X244754200Y26054050D03*
G04 #@! TD*
D19*
G04 #@! TO.C,D58*
X232955000Y45002450D03*
D20*
X240755000Y45002450D03*
D21*
X238430000Y45002450D03*
X235280000Y45002450D03*
G04 #@! TD*
D19*
G04 #@! TO.C,D57*
X228217900Y63950850D03*
D20*
X236017900Y63950850D03*
D21*
X233692900Y63950850D03*
X230542900Y63950850D03*
G04 #@! TD*
D19*
G04 #@! TO.C,D56*
X218743700Y82899250D03*
D20*
X226543700Y82899250D03*
D21*
X224218700Y82899250D03*
X221068700Y82899250D03*
G04 #@! TD*
D19*
G04 #@! TO.C,D61*
X256640500Y116058950D03*
D20*
X264440500Y116058950D03*
D21*
X262115500Y116058950D03*
X258965500Y116058950D03*
G04 #@! TD*
D19*
G04 #@! TO.C,D83*
X339539750Y7105650D03*
D20*
X347339750Y7105650D03*
D21*
X345014750Y7105650D03*
X341864750Y7105650D03*
G04 #@! TD*
D19*
G04 #@! TO.C,D53*
X223480800Y26054050D03*
D20*
X231280800Y26054050D03*
D21*
X228955800Y26054050D03*
X225805800Y26054050D03*
G04 #@! TD*
D19*
G04 #@! TO.C,D52*
X214006600Y45002450D03*
D20*
X221806600Y45002450D03*
D21*
X219481600Y45002450D03*
X216331600Y45002450D03*
G04 #@! TD*
D19*
G04 #@! TO.C,D51*
X209269500Y63950850D03*
D20*
X217069500Y63950850D03*
D21*
X214744500Y63950850D03*
X211594500Y63950850D03*
G04 #@! TD*
D19*
G04 #@! TO.C,D50*
X199795300Y82899250D03*
D20*
X207595300Y82899250D03*
D21*
X205270300Y82899250D03*
X202120300Y82899250D03*
G04 #@! TD*
D19*
G04 #@! TO.C,D55*
X237692100Y116058950D03*
D20*
X245492100Y116058950D03*
D21*
X243167100Y116058950D03*
X240017100Y116058950D03*
G04 #@! TD*
D19*
G04 #@! TO.C,D78*
X320591350Y7105650D03*
D20*
X328391350Y7105650D03*
D21*
X326066350Y7105650D03*
X322916350Y7105650D03*
G04 #@! TD*
D19*
G04 #@! TO.C,D49*
X204532400Y26054050D03*
D20*
X212332400Y26054050D03*
D21*
X210007400Y26054050D03*
X206857400Y26054050D03*
G04 #@! TD*
D19*
G04 #@! TO.C,D48*
X195058200Y45002450D03*
D20*
X202858200Y45002450D03*
D21*
X200533200Y45002450D03*
X197383200Y45002450D03*
G04 #@! TD*
D19*
G04 #@! TO.C,D47*
X190321100Y63950850D03*
D20*
X198121100Y63950850D03*
D21*
X195796100Y63950850D03*
X192646100Y63950850D03*
G04 #@! TD*
D19*
G04 #@! TO.C,D46*
X180846900Y82899250D03*
D20*
X188646900Y82899250D03*
D21*
X186321900Y82899250D03*
X183171900Y82899250D03*
G04 #@! TD*
D19*
G04 #@! TO.C,D45*
X206900950Y116058950D03*
D20*
X214700950Y116058950D03*
D21*
X212375950Y116058950D03*
X209225950Y116058950D03*
G04 #@! TD*
D19*
G04 #@! TO.C,D74*
X289800200Y7105650D03*
D20*
X297600200Y7105650D03*
D21*
X295275200Y7105650D03*
X292125200Y7105650D03*
G04 #@! TD*
D19*
G04 #@! TO.C,D44*
X185584000Y26054050D03*
D20*
X193384000Y26054050D03*
D21*
X191059000Y26054050D03*
X187909000Y26054050D03*
G04 #@! TD*
D19*
G04 #@! TO.C,D43*
X176109800Y45002450D03*
D20*
X183909800Y45002450D03*
D21*
X181584800Y45002450D03*
X178434800Y45002450D03*
G04 #@! TD*
D19*
G04 #@! TO.C,D42*
X171372700Y63950850D03*
D20*
X179172700Y63950850D03*
D21*
X176847700Y63950850D03*
X173697700Y63950850D03*
G04 #@! TD*
D19*
G04 #@! TO.C,D41*
X161898500Y82899250D03*
D20*
X169698500Y82899250D03*
D21*
X167373500Y82899250D03*
X164223500Y82899250D03*
G04 #@! TD*
D19*
G04 #@! TO.C,D40*
X187952550Y116058950D03*
D20*
X195752550Y116058950D03*
D21*
X193427550Y116058950D03*
X190277550Y116058950D03*
G04 #@! TD*
D19*
G04 #@! TO.C,D65*
X266114700Y7105650D03*
D20*
X273914700Y7105650D03*
D21*
X271589700Y7105650D03*
X268439700Y7105650D03*
G04 #@! TD*
D19*
G04 #@! TO.C,D39*
X166635600Y26054050D03*
D20*
X174435600Y26054050D03*
D21*
X172110600Y26054050D03*
X168960600Y26054050D03*
G04 #@! TD*
D19*
G04 #@! TO.C,D38*
X157161400Y45002450D03*
D20*
X164961400Y45002450D03*
D21*
X162636400Y45002450D03*
X159486400Y45002450D03*
G04 #@! TD*
D19*
G04 #@! TO.C,D37*
X152424300Y63950850D03*
D20*
X160224300Y63950850D03*
D21*
X157899300Y63950850D03*
X154749300Y63950850D03*
G04 #@! TD*
D19*
G04 #@! TO.C,D36*
X142950100Y82899250D03*
D20*
X150750100Y82899250D03*
D21*
X148425100Y82899250D03*
X145275100Y82899250D03*
G04 #@! TD*
D19*
G04 #@! TO.C,D35*
X169004150Y116058950D03*
D20*
X176804150Y116058950D03*
D21*
X174479150Y116058950D03*
X171329150Y116058950D03*
G04 #@! TD*
D19*
G04 #@! TO.C,D60*
X247166300Y7105650D03*
D20*
X254966300Y7105650D03*
D21*
X252641300Y7105650D03*
X249491300Y7105650D03*
G04 #@! TD*
D19*
G04 #@! TO.C,D33*
X147687200Y26054050D03*
D20*
X155487200Y26054050D03*
D21*
X153162200Y26054050D03*
X150012200Y26054050D03*
G04 #@! TD*
D19*
G04 #@! TO.C,D32*
X138213000Y45002450D03*
D20*
X146013000Y45002450D03*
D21*
X143688000Y45002450D03*
X140538000Y45002450D03*
G04 #@! TD*
D19*
G04 #@! TO.C,D31*
X133475900Y63950850D03*
D20*
X141275900Y63950850D03*
D21*
X138950900Y63950850D03*
X135800900Y63950850D03*
G04 #@! TD*
D19*
G04 #@! TO.C,D30*
X124001700Y82899250D03*
D20*
X131801700Y82899250D03*
D21*
X129476700Y82899250D03*
X126326700Y82899250D03*
G04 #@! TD*
D19*
G04 #@! TO.C,D29*
X150055750Y116058950D03*
D20*
X157855750Y116058950D03*
D21*
X155530750Y116058950D03*
X152380750Y116058950D03*
G04 #@! TD*
D19*
G04 #@! TO.C,D54*
X223480800Y7105650D03*
D20*
X231280800Y7105650D03*
D21*
X228955800Y7105650D03*
X225805800Y7105650D03*
G04 #@! TD*
D19*
G04 #@! TO.C,D28*
X128738800Y26054050D03*
D20*
X136538800Y26054050D03*
D21*
X134213800Y26054050D03*
X131063800Y26054050D03*
G04 #@! TD*
D19*
G04 #@! TO.C,D27*
X119264600Y45002450D03*
D20*
X127064600Y45002450D03*
D21*
X124739600Y45002450D03*
X121589600Y45002450D03*
G04 #@! TD*
D19*
G04 #@! TO.C,D26*
X114527500Y63950850D03*
D20*
X122327500Y63950850D03*
D21*
X120002500Y63950850D03*
X116852500Y63950850D03*
G04 #@! TD*
D19*
G04 #@! TO.C,D25*
X105053300Y82899250D03*
D20*
X112853300Y82899250D03*
D21*
X110528300Y82899250D03*
X107378300Y82899250D03*
G04 #@! TD*
D19*
G04 #@! TO.C,D24*
X119264600Y116058950D03*
D20*
X127064600Y116058950D03*
D21*
X124739600Y116058950D03*
X121589600Y116058950D03*
G04 #@! TD*
D19*
G04 #@! TO.C,D34*
X150055750Y7105650D03*
D20*
X157855750Y7105650D03*
D21*
X155530750Y7105650D03*
X152380750Y7105650D03*
G04 #@! TD*
D19*
G04 #@! TO.C,D23*
X109790400Y26054050D03*
D20*
X117590400Y26054050D03*
D21*
X115265400Y26054050D03*
X112115400Y26054050D03*
G04 #@! TD*
D19*
G04 #@! TO.C,D22*
X100316200Y45002450D03*
D20*
X108116200Y45002450D03*
D21*
X105791200Y45002450D03*
X102641200Y45002450D03*
G04 #@! TD*
D19*
G04 #@! TO.C,D21*
X95579100Y63950850D03*
D20*
X103379100Y63950850D03*
D21*
X101054100Y63950850D03*
X97904100Y63950850D03*
G04 #@! TD*
D19*
G04 #@! TO.C,D20*
X86104900Y82899250D03*
D20*
X93904900Y82899250D03*
D21*
X91579900Y82899250D03*
X88429900Y82899250D03*
G04 #@! TD*
D19*
G04 #@! TO.C,D19*
X100316200Y116058950D03*
D20*
X108116200Y116058950D03*
D21*
X105791200Y116058950D03*
X102641200Y116058950D03*
G04 #@! TD*
D19*
G04 #@! TO.C,D18*
X78999250Y7105650D03*
D20*
X86799250Y7105650D03*
D21*
X84474250Y7105650D03*
X81324250Y7105650D03*
G04 #@! TD*
D19*
G04 #@! TO.C,D17*
X90842000Y26054050D03*
D20*
X98642000Y26054050D03*
D21*
X96317000Y26054050D03*
X93167000Y26054050D03*
G04 #@! TD*
D19*
G04 #@! TO.C,D16*
X81367800Y45002450D03*
D20*
X89167800Y45002450D03*
D21*
X86842800Y45002450D03*
X83692800Y45002450D03*
G04 #@! TD*
D19*
G04 #@! TO.C,D15*
X76630700Y63950850D03*
D20*
X84430700Y63950850D03*
D21*
X82105700Y63950850D03*
X78955700Y63950850D03*
G04 #@! TD*
D19*
G04 #@! TO.C,D14*
X67156500Y82899250D03*
D20*
X74956500Y82899250D03*
D21*
X72631500Y82899250D03*
X69481500Y82899250D03*
G04 #@! TD*
D19*
G04 #@! TO.C,D13*
X81367800Y116058950D03*
D20*
X89167800Y116058950D03*
D21*
X86842800Y116058950D03*
X83692800Y116058950D03*
G04 #@! TD*
D19*
G04 #@! TO.C,D12*
X57682300Y7105650D03*
D20*
X65482300Y7105650D03*
D21*
X63157300Y7105650D03*
X60007300Y7105650D03*
G04 #@! TD*
D19*
G04 #@! TO.C,D11*
X71893600Y26054050D03*
D20*
X79693600Y26054050D03*
D21*
X77368600Y26054050D03*
X74218600Y26054050D03*
G04 #@! TD*
D19*
G04 #@! TO.C,D10*
X62419400Y45002450D03*
D20*
X70219400Y45002450D03*
D21*
X67894400Y45002450D03*
X64744400Y45002450D03*
G04 #@! TD*
D19*
G04 #@! TO.C,D9*
X57682300Y63950850D03*
D20*
X65482300Y63950850D03*
D21*
X63157300Y63950850D03*
X60007300Y63950850D03*
G04 #@! TD*
D19*
G04 #@! TO.C,D8*
X48208100Y82899250D03*
D20*
X56008100Y82899250D03*
D21*
X53683100Y82899250D03*
X50533100Y82899250D03*
G04 #@! TD*
D19*
G04 #@! TO.C,D7*
X62419400Y116058950D03*
D20*
X70219400Y116058950D03*
D21*
X67894400Y116058950D03*
X64744400Y116058950D03*
G04 #@! TD*
D19*
G04 #@! TO.C,D6*
X33996800Y7105650D03*
D20*
X41796800Y7105650D03*
D21*
X39471800Y7105650D03*
X36321800Y7105650D03*
G04 #@! TD*
D19*
G04 #@! TO.C,D5*
X41102450Y26054050D03*
D20*
X48902450Y26054050D03*
D21*
X46577450Y26054050D03*
X43427450Y26054050D03*
G04 #@! TD*
D19*
G04 #@! TO.C,D4*
X36365350Y45002450D03*
D20*
X44165350Y45002450D03*
D21*
X41840350Y45002450D03*
X38690350Y45002450D03*
G04 #@! TD*
D19*
G04 #@! TO.C,D3*
X33996800Y63950850D03*
D20*
X41796800Y63950850D03*
D21*
X39471800Y63950850D03*
X36321800Y63950850D03*
G04 #@! TD*
D19*
G04 #@! TO.C,D2*
X29259700Y82899250D03*
D20*
X37059700Y82899250D03*
D21*
X34734700Y82899250D03*
X31584700Y82899250D03*
G04 #@! TD*
D19*
G04 #@! TO.C,D1*
X29259700Y116058950D03*
D20*
X37059700Y116058950D03*
D21*
X34734700Y116058950D03*
X31584700Y116058950D03*
G04 #@! TD*
M02*
