M48
; DRILL file {KiCad (5.1.9)-1} date 04/17/21 22:02:57
; FORMAT={-:-/ absolute / inch / decimal}
; #@! TF.CreationDate,2021-04-17T22:02:57-05:00
; #@! TF.GenerationSoftware,Kicad,Pcbnew,(5.1.9)-1
; #@! TF.FileFunction,NonPlated,1,2,NPTH
FMAT,2
INCH
T1C0.0669
T2C0.1201
T3C0.1575
%
G90
G05
T1
X1.0987Y4.7423
X1.0987Y3.4367
X1.2853Y2.6907
X1.2853Y0.4527
X1.3785Y1.9447
X1.4988Y4.7423
X1.4988Y3.4367
X1.565Y1.1987
X1.6852Y2.6907
X1.6852Y0.4527
X1.7785Y1.9447
X1.8447Y3.4367
X1.965Y1.1987
X2.2178Y2.6907
X2.2178Y0.4527
X2.2447Y3.4367
X2.4042Y4.7423
X2.4042Y1.9447
X2.5907Y3.4367
X2.6178Y2.6907
X2.6178Y0.4527
X2.7772Y1.1987
X2.8043Y4.7423
X2.8043Y1.9447
X2.9638Y2.6907
X2.9907Y3.4367
X3.057Y0.4527
X3.1502Y4.7423
X3.1502Y1.9447
X3.1772Y1.1987
X3.3367Y3.4367
X3.3638Y2.6907
X3.457Y0.4527
X3.5232Y1.1987
X3.5503Y4.7423
X3.5503Y1.9447
X3.7098Y2.6907
X3.7367Y3.4367
X3.8962Y4.7423
X3.8962Y1.9447
X3.9232Y1.1987
X4.0827Y3.4367
X4.1098Y2.6907
X4.2692Y1.1987
X4.2962Y4.7423
X4.2962Y1.9447
X4.4558Y2.6907
X4.4828Y3.4367
X4.6422Y4.7423
X4.6422Y1.9447
X4.6692Y1.1987
X4.8288Y3.4367
X4.8557Y2.6907
X5.0152Y1.1987
X5.0423Y4.7423
X5.0423Y1.9447
X5.2017Y2.6907
X5.2287Y3.4367
X5.3883Y1.9447
X5.4152Y1.1987
X5.5747Y3.4367
X5.6018Y2.6907
X5.7612Y1.1987
X5.7882Y1.9447
X5.8545Y4.7423
X5.8545Y0.4527
X5.9478Y2.6907
X5.9748Y3.4367
X6.1342Y1.9447
X6.1612Y1.1987
X6.2545Y4.7423
X6.2545Y0.4527
X6.3207Y3.4367
X6.3477Y2.6907
X6.5072Y1.1987
X6.5343Y1.9447
X6.6005Y4.7423
X6.6937Y2.6907
X6.7207Y3.4367
X6.8803Y1.9447
X6.9072Y1.1987
X7.0005Y4.7423
X7.0667Y3.4367
X7.0938Y2.6907
X7.2532Y1.1987
X7.2802Y1.9447
X7.3465Y4.7423
X7.4398Y2.6907
X7.4668Y3.4367
X7.6262Y1.9447
X7.6532Y1.1987
X7.7465Y4.7423
X7.8127Y3.4367
X7.8397Y2.6907
X7.9992Y1.1987
X8.0262Y1.9447
X8.0925Y4.7423
X8.1858Y2.6907
X8.2127Y3.4367
X8.3722Y1.9447
X8.3993Y1.1987
X8.4925Y4.7423
X8.5587Y3.4367
X8.5857Y2.6907
X8.7453Y1.1987
X8.7453Y0.4527
X8.7722Y1.9447
X8.9317Y2.6907
X8.9588Y3.4367
X9.1182Y1.9447
X9.1452Y1.1987
X9.1452Y0.4527
X9.3048Y4.7423
X9.3048Y3.4367
X9.3317Y2.6907
X9.4912Y1.1987
X9.5183Y1.9447
X9.6777Y2.6907
X9.6777Y0.4527
X9.7048Y4.7423
X9.7048Y3.4367
X9.8643Y1.9447
X9.8912Y1.1987
X10.0507Y4.7423
X10.0507Y3.4367
X10.0777Y2.6907
X10.0777Y0.4527
X10.2643Y1.9447
X10.4238Y2.6907
X10.4238Y0.4527
X10.4507Y4.7423
X10.4507Y3.4367
X10.7967Y4.7423
X10.8238Y2.6907
X10.8238Y0.4527
X10.89Y1.1987
X11.0765Y1.9447
X11.1698Y3.4367
X11.1967Y4.7423
X11.29Y1.1987
X11.3562Y2.6907
X11.3562Y0.4527
X11.4765Y1.9447
X11.5427Y4.7423
X11.5697Y3.4367
X11.7562Y2.6907
X11.7562Y0.4527
X11.9428Y4.7423
X12.5685Y4.7423
X12.5685Y3.4367
X12.5685Y2.6907
X12.5685Y0.4527
X12.9685Y4.7423
X12.9685Y3.4367
X12.9685Y2.6907
X12.9685Y0.4527
X13.3145Y4.7423
X13.3145Y3.4367
X13.3145Y2.6907
X13.3145Y1.1987
X13.3145Y0.4527
X13.7145Y4.7423
X13.7145Y3.4367
X13.7145Y2.6907
X13.7145Y1.1987
X13.7145Y0.4527
X14.0605Y4.7423
X14.0605Y3.4367
X14.0605Y2.6907
X14.0605Y0.4527
X14.4605Y4.7423
X14.4605Y3.4367
X14.4605Y2.6907
X14.4605Y0.4527
X15.0862Y3.4367
X15.0862Y2.6907
X15.0862Y1.9447
X15.0862Y1.1987
X15.4592Y0.4527
X15.4863Y3.4367
X15.4863Y2.6907
X15.4863Y1.9447
X15.4863Y1.1987
X15.8323Y3.4367
X15.8323Y2.6907
X15.8323Y1.9447
X15.8323Y1.1987
X15.8592Y0.4527
X16.2323Y3.4367
X16.2323Y2.6907
X16.2323Y1.9447
X16.2323Y1.1987
X16.5783Y3.4367
X16.5783Y2.6907
X16.5783Y1.9447
X16.5783Y1.1987
X16.5783Y0.4527
X16.9782Y3.4367
X16.9782Y2.6907
X16.9782Y1.9447
X16.9782Y1.1987
X16.9782Y0.4527
X17.3242Y3.4367
X17.3242Y2.3177
X17.3242Y0.8257
X17.7242Y3.4367
X17.7242Y2.3177
X17.7242Y0.8257
T2
X1.2965Y1.4743
X2.2335Y1.4743
X4.086Y0.7283
X8.023Y0.7283
X10.6215Y1.4743
X10.808Y2.2203
X10.9012Y3.7123
X11.5585Y1.4743
X11.745Y2.2203
X11.8383Y3.7123
X15.1907Y0.7283
X16.1278Y0.7283
X17.2487Y2.7863
X17.2487Y1.8492
X17.2487Y1.2943
X17.2487Y0.3572
T3
X1.2965Y0.8743
X1.2988Y4.7423
X1.2988Y3.4367
X1.4852Y2.6907
X1.4852Y0.4527
X1.5785Y1.9447
X1.765Y1.1987
X2.0448Y3.4367
X2.2335Y0.8743
X2.4177Y2.6907
X2.4177Y0.4527
X2.6042Y4.7423
X2.6042Y1.9447
X2.7908Y3.4367
X2.9772Y1.1987
X3.1637Y2.6907
X3.257Y0.4527
X3.3502Y4.7423
X3.3502Y1.9447
X3.5368Y3.4367
X3.7232Y1.1987
X3.9097Y2.6907
X4.086Y0.1283
X4.0962Y4.7423
X4.0962Y1.9447
X4.2828Y3.4367
X4.4692Y1.1987
X4.6558Y2.6907
X4.8422Y4.7423
X4.8422Y1.9447
X5.0287Y3.4367
X5.2153Y1.1987
X5.4017Y2.6907
X5.5882Y1.9447
X5.7748Y3.4367
X5.9612Y1.1987
X6.0545Y4.7423
X6.0545Y0.4527
X6.1478Y2.6907
X6.3342Y1.9447
X6.5207Y3.4367
X6.7073Y1.1987
X6.8005Y4.7423
X6.8937Y2.6907
X7.0802Y1.9447
X7.2668Y3.4367
X7.4532Y1.1987
X7.5465Y4.7423
X7.6398Y2.6907
X7.8262Y1.9447
X8.0128Y3.4367
X8.023Y0.1283
X8.1992Y1.1987
X8.2925Y4.7423
X8.3857Y2.6907
X8.5723Y1.9447
X8.7587Y3.4367
X8.9452Y1.1987
X8.9452Y0.4527
X9.1318Y2.6907
X9.3182Y1.9447
X9.5047Y4.7423
X9.5047Y3.4367
X9.6913Y1.1987
X9.8777Y2.6907
X9.8777Y0.4527
X10.0642Y1.9447
X10.2508Y4.7423
X10.2508Y3.4367
X10.6215Y0.8743
X10.6237Y2.6907
X10.6237Y0.4527
X10.808Y1.6203
X10.9012Y3.1123
X10.9968Y4.7423
X11.09Y1.1987
X11.2765Y1.9447
X11.3697Y3.4367
X11.5563Y2.6907
X11.5563Y0.4527
X11.5585Y0.8743
X11.7427Y4.7423
X11.745Y1.6203
X11.8383Y3.1123
X12.7685Y4.7423
X12.7685Y3.4367
X12.7685Y2.6907
X12.7685Y0.4527
X13.5145Y4.7423
X13.5145Y3.4367
X13.5145Y2.6907
X13.5145Y1.1987
X13.5145Y0.4527
X14.2605Y4.7423
X14.2605Y3.4367
X14.2605Y2.6907
X14.2605Y0.4527
X15.1907Y0.1283
X15.2862Y3.4367
X15.2862Y2.6907
X15.2862Y1.9447
X15.2862Y1.1987
X15.6593Y0.4527
X16.0323Y3.4367
X16.0323Y2.6907
X16.0323Y1.9447
X16.0323Y1.1987
X16.1278Y0.1283
X16.7782Y3.4367
X16.7782Y2.6907
X16.7782Y1.9447
X16.7782Y1.1987
X16.7782Y0.4527
X17.5242Y3.4367
X17.5242Y2.3177
X17.5242Y0.8257
X17.8487Y2.7863
X17.8487Y1.8492
X17.8487Y1.2943
X17.8487Y0.3572
T0
M30
