G04 #@! TF.GenerationSoftware,KiCad,Pcbnew,(5.1.9)-1*
G04 #@! TF.CreationDate,2021-04-17T22:02:46-05:00*
G04 #@! TF.ProjectId,try3,74727933-2e6b-4696-9361-645f70636258,rev?*
G04 #@! TF.SameCoordinates,Original*
G04 #@! TF.FileFunction,Soldermask,Bot*
G04 #@! TF.FilePolarity,Negative*
%FSLAX46Y46*%
G04 Gerber Fmt 4.6, Leading zero omitted, Abs format (unit mm)*
G04 Created by KiCad (PCBNEW (5.1.9)-1) date 2021-04-17 22:02:46*
%MOMM*%
%LPD*%
G01*
G04 APERTURE LIST*
%ADD10C,0.650000*%
%ADD11O,0.900000X2.400000*%
%ADD12O,0.900000X1.700000*%
%ADD13C,1.700000*%
%ADD14C,4.000000*%
%ADD15C,2.200000*%
%ADD16C,3.050000*%
%ADD17C,1.600000*%
%ADD18R,1.600000X1.600000*%
%ADD19R,1.200000X1.200000*%
G04 APERTURE END LIST*
D10*
G04 #@! TO.C,J1*
X382611550Y133644450D03*
X384311550Y133644450D03*
X383461550Y133644450D03*
X381761550Y133644450D03*
X380911550Y133644450D03*
X380061550Y133644450D03*
X379211550Y133644450D03*
X378361550Y133644450D03*
X384311550Y134969450D03*
X383456550Y134969450D03*
X382606550Y134969450D03*
X381756550Y134969450D03*
X380906550Y134969450D03*
X380056550Y134969450D03*
X379206550Y134969450D03*
X378356550Y134969450D03*
D11*
X385661550Y134624450D03*
X377011550Y134624450D03*
D12*
X385661550Y138004450D03*
X377011550Y138004450D03*
G04 #@! TD*
D13*
G04 #@! TO.C,K_93*
X412299150Y87293450D03*
X402139150Y87293450D03*
D14*
X407219150Y87293450D03*
D15*
X403409150Y89833450D03*
X409759150Y92373450D03*
G04 #@! TD*
D13*
G04 #@! TO.C,K_11*
X80702150Y30448250D03*
X70542150Y30448250D03*
D14*
X75622150Y30448250D03*
D15*
X71812150Y32988250D03*
X78162150Y35528250D03*
G04 #@! TD*
D13*
G04 #@! TO.C,K_37*
X161232850Y68345050D03*
X151072850Y68345050D03*
D14*
X156152850Y68345050D03*
D15*
X152342850Y70885050D03*
X158692850Y73425050D03*
G04 #@! TD*
D13*
G04 #@! TO.C,K_17*
X99650550Y30448250D03*
X89490550Y30448250D03*
D14*
X94570550Y30448250D03*
D15*
X90760550Y32988250D03*
X97110550Y35528250D03*
G04 #@! TD*
D13*
G04 #@! TO.C,K_12*
X66490850Y11499850D03*
X56330850Y11499850D03*
D14*
X61410850Y11499850D03*
D15*
X57600850Y14039850D03*
X63950850Y16579850D03*
G04 #@! TD*
D13*
G04 #@! TO.C,K_15*
X85439250Y68345050D03*
X75279250Y68345050D03*
D14*
X80359250Y68345050D03*
D15*
X76549250Y70885050D03*
X82899250Y73425050D03*
G04 #@! TD*
D13*
G04 #@! TO.C,K_71*
X298608750Y68345050D03*
X288448750Y68345050D03*
D14*
X293528750Y68345050D03*
D15*
X289718750Y70885050D03*
X296068750Y73425050D03*
G04 #@! TD*
D13*
G04 #@! TO.C,K_28*
X137547350Y30448250D03*
X127387350Y30448250D03*
D14*
X132467350Y30448250D03*
D15*
X128657350Y32988250D03*
X135007350Y35528250D03*
G04 #@! TD*
D13*
G04 #@! TO.C,K_82*
X348348300Y30448250D03*
X338188300Y30448250D03*
D14*
X343268300Y30448250D03*
D15*
X339458300Y32988250D03*
X345808300Y35528250D03*
G04 #@! TD*
D13*
G04 #@! TO.C,K_62*
X246500650Y87293450D03*
X236340650Y87293450D03*
D14*
X241420650Y87293450D03*
D15*
X237610650Y89833450D03*
X243960650Y92373450D03*
G04 #@! TD*
D13*
G04 #@! TO.C,K_42*
X180181250Y68345050D03*
X170021250Y68345050D03*
D14*
X175101250Y68345050D03*
D15*
X171291250Y70885050D03*
X177641250Y73425050D03*
G04 #@! TD*
D13*
G04 #@! TO.C,K_2*
X38068250Y87293450D03*
X27908250Y87293450D03*
D14*
X32988250Y87293450D03*
D15*
X29178250Y89833450D03*
X35528250Y92373450D03*
G04 #@! TD*
D13*
G04 #@! TO.C,K_3*
X42805350Y68345050D03*
X32645350Y68345050D03*
D14*
X37725350Y68345050D03*
D15*
X33915350Y70885050D03*
X40265350Y73425050D03*
G04 #@! TD*
D13*
G04 #@! TO.C,K_31*
X142284450Y68345050D03*
X132124450Y68345050D03*
D14*
X137204450Y68345050D03*
D15*
X133394450Y70885050D03*
X139744450Y73425050D03*
G04 #@! TD*
D16*
G04 #@! TO.C,K_34*
X203784300Y18499850D03*
X103784300Y18499850D03*
D14*
X103784300Y3259850D03*
X203784300Y3259850D03*
D13*
X158864300Y11499850D03*
X148704300Y11499850D03*
D14*
X153784300Y11499850D03*
D15*
X149974300Y14039850D03*
X156324300Y16579850D03*
G04 #@! TD*
D13*
G04 #@! TO.C,K_58*
X241763550Y49396650D03*
X231603550Y49396650D03*
D14*
X236683550Y49396650D03*
D15*
X232873550Y51936650D03*
X239223550Y54476650D03*
G04 #@! TD*
D13*
G04 #@! TO.C,K_79*
X348348300Y120453150D03*
X338188300Y120453150D03*
D14*
X343268300Y120453150D03*
D15*
X339458300Y122993150D03*
X345808300Y125533150D03*
G04 #@! TD*
D13*
G04 #@! TO.C,K_16*
X90176350Y49396650D03*
X80016350Y49396650D03*
D14*
X85096350Y49396650D03*
D15*
X81286350Y51936650D03*
X87636350Y54476650D03*
G04 #@! TD*
D16*
G04 #@! TO.C,K_73*
X293586000Y37448250D03*
X269786000Y37448250D03*
D14*
X269786000Y22208250D03*
X293586000Y22208250D03*
D13*
X286766000Y30448250D03*
X276606000Y30448250D03*
D14*
X281686000Y30448250D03*
D15*
X277876000Y32988250D03*
X284226000Y35528250D03*
G04 #@! TD*
D13*
G04 #@! TO.C,K_74*
X298608750Y11499850D03*
X288448750Y11499850D03*
D14*
X293528750Y11499850D03*
D15*
X289718750Y14039850D03*
X296068750Y16579850D03*
G04 #@! TD*
D13*
G04 #@! TO.C,K_87*
X367296700Y11499850D03*
X357136700Y11499850D03*
D14*
X362216700Y11499850D03*
D15*
X358406700Y14039850D03*
X364756700Y16579850D03*
G04 #@! TD*
D13*
G04 #@! TO.C,K_54*
X232289350Y11499850D03*
X222129350Y11499850D03*
D14*
X227209350Y11499850D03*
D15*
X223399350Y14039850D03*
X229749350Y16579850D03*
G04 #@! TD*
D13*
G04 #@! TO.C,K_68*
X274923250Y68345050D03*
X264763250Y68345050D03*
D14*
X269843250Y68345050D03*
D15*
X266033250Y70885050D03*
X272383250Y73425050D03*
G04 #@! TD*
D13*
G04 #@! TO.C,K_53*
X232289350Y30448250D03*
X222129350Y30448250D03*
D14*
X227209350Y30448250D03*
D15*
X223399350Y32988250D03*
X229749350Y35528250D03*
G04 #@! TD*
D13*
G04 #@! TO.C,K_26*
X123336050Y68345050D03*
X113176050Y68345050D03*
D14*
X118256050Y68345050D03*
D15*
X114446050Y70885050D03*
X120796050Y73425050D03*
G04 #@! TD*
D13*
G04 #@! TO.C,K_64*
X260711950Y49396650D03*
X250551950Y49396650D03*
D14*
X255631950Y49396650D03*
D15*
X251821950Y51936650D03*
X258171950Y54476650D03*
G04 #@! TD*
D13*
G04 #@! TO.C,K_59*
X251237750Y30448250D03*
X241077750Y30448250D03*
D14*
X246157750Y30448250D03*
D15*
X242347750Y32988250D03*
X248697750Y35528250D03*
G04 #@! TD*
D13*
G04 #@! TO.C,K_9*
X66490850Y68345050D03*
X56330850Y68345050D03*
D14*
X61410850Y68345050D03*
D15*
X57600850Y70885050D03*
X63950850Y73425050D03*
G04 #@! TD*
D13*
G04 #@! TO.C,K_75*
X329399900Y120453150D03*
X319239900Y120453150D03*
D14*
X324319900Y120453150D03*
D15*
X320509900Y122993150D03*
X326859900Y125533150D03*
G04 #@! TD*
D13*
G04 #@! TO.C,K_67*
X265449050Y87293450D03*
X255289050Y87293450D03*
D14*
X260369050Y87293450D03*
D15*
X256559050Y89833450D03*
X262909050Y92373450D03*
G04 #@! TD*
D13*
G04 #@! TO.C,K_84*
X367296700Y120453150D03*
X357136700Y120453150D03*
D14*
X362216700Y120453150D03*
D15*
X358406700Y122993150D03*
X364756700Y125533150D03*
G04 #@! TD*
D13*
G04 #@! TO.C,K_85*
X367296700Y87293450D03*
X357136700Y87293450D03*
D14*
X362216700Y87293450D03*
D15*
X358406700Y89833450D03*
X364756700Y92373450D03*
G04 #@! TD*
D13*
G04 #@! TO.C,K_86*
X367296700Y68345050D03*
X357136700Y68345050D03*
D14*
X362216700Y68345050D03*
D15*
X358406700Y70885050D03*
X364756700Y73425050D03*
G04 #@! TD*
D13*
G04 #@! TO.C,K_57*
X237026450Y68345050D03*
X226866450Y68345050D03*
D14*
X231946450Y68345050D03*
D15*
X228136450Y70885050D03*
X234486450Y73425050D03*
G04 #@! TD*
D13*
G04 #@! TO.C,K_51*
X218078050Y68345050D03*
X207918050Y68345050D03*
D14*
X212998050Y68345050D03*
D15*
X209188050Y70885050D03*
X215538050Y73425050D03*
G04 #@! TD*
D13*
G04 #@! TO.C,K_97*
X431247550Y87293450D03*
X421087550Y87293450D03*
D14*
X426167550Y87293450D03*
D15*
X422357550Y89833450D03*
X428707550Y92373450D03*
G04 #@! TD*
D16*
G04 #@! TO.C,K_103*
X438115950Y70770850D03*
X438115950Y46970850D03*
D14*
X453355950Y46970850D03*
X453355950Y70770850D03*
D13*
X450195950Y58870850D03*
X440035950Y58870850D03*
D14*
X445115950Y58870850D03*
D15*
X441305950Y61410850D03*
X447655950Y63950850D03*
G04 #@! TD*
D13*
G04 #@! TO.C,K_102*
X450195950Y87293450D03*
X440035950Y87293450D03*
D14*
X445115950Y87293450D03*
D15*
X441305950Y89833450D03*
X447655950Y92373450D03*
G04 #@! TD*
D16*
G04 #@! TO.C,K_104*
X438115950Y32874050D03*
X438115950Y9074050D03*
D14*
X453355950Y9074050D03*
X453355950Y32874050D03*
D13*
X450195950Y20974050D03*
X440035950Y20974050D03*
D14*
X445115950Y20974050D03*
D15*
X441305950Y23514050D03*
X447655950Y26054050D03*
G04 #@! TD*
D13*
G04 #@! TO.C,K_101*
X431247550Y11499850D03*
X421087550Y11499850D03*
D14*
X426167550Y11499850D03*
D15*
X422357550Y14039850D03*
X428707550Y16579850D03*
G04 #@! TD*
D13*
G04 #@! TO.C,K_98*
X431247550Y68345050D03*
X421087550Y68345050D03*
D14*
X426167550Y68345050D03*
D15*
X422357550Y70885050D03*
X428707550Y73425050D03*
G04 #@! TD*
D13*
G04 #@! TO.C,K_94*
X412299150Y68345050D03*
X402139150Y68345050D03*
D14*
X407219150Y68345050D03*
D15*
X403409150Y70885050D03*
X409759150Y73425050D03*
G04 #@! TD*
D13*
G04 #@! TO.C,K_89*
X393350750Y68345050D03*
X383190750Y68345050D03*
D14*
X388270750Y68345050D03*
D15*
X384460750Y70885050D03*
X390810750Y73425050D03*
G04 #@! TD*
D13*
G04 #@! TO.C,K_99*
X431247550Y49396650D03*
X421087550Y49396650D03*
D14*
X426167550Y49396650D03*
D15*
X422357550Y51936650D03*
X428707550Y54476650D03*
G04 #@! TD*
D13*
G04 #@! TO.C,K_95*
X412299150Y49396650D03*
X402139150Y49396650D03*
D14*
X407219150Y49396650D03*
D15*
X403409150Y51936650D03*
X409759150Y54476650D03*
G04 #@! TD*
D13*
G04 #@! TO.C,K_90*
X393350750Y49396650D03*
X383190750Y49396650D03*
D14*
X388270750Y49396650D03*
D15*
X384460750Y51936650D03*
X390810750Y54476650D03*
G04 #@! TD*
D13*
G04 #@! TO.C,K_100*
X431247550Y30448250D03*
X421087550Y30448250D03*
D14*
X426167550Y30448250D03*
D15*
X422357550Y32988250D03*
X428707550Y35528250D03*
G04 #@! TD*
D13*
G04 #@! TO.C,K_96*
X412299150Y30448250D03*
X402139150Y30448250D03*
D14*
X407219150Y30448250D03*
D15*
X403409150Y32988250D03*
X409759150Y35528250D03*
G04 #@! TD*
D13*
G04 #@! TO.C,K_91*
X393350750Y30448250D03*
X383190750Y30448250D03*
D14*
X388270750Y30448250D03*
D15*
X384460750Y32988250D03*
X390810750Y35528250D03*
G04 #@! TD*
D16*
G04 #@! TO.C,K_92*
X409644950Y18499850D03*
X385844950Y18499850D03*
D14*
X385844950Y3259850D03*
X409644950Y3259850D03*
D13*
X402824950Y11499850D03*
X392664950Y11499850D03*
D14*
X397744950Y11499850D03*
D15*
X393934950Y14039850D03*
X400284950Y16579850D03*
G04 #@! TD*
D13*
G04 #@! TO.C,K_88*
X393350750Y87293450D03*
X383190750Y87293450D03*
D14*
X388270750Y87293450D03*
D15*
X384460750Y89833450D03*
X390810750Y92373450D03*
G04 #@! TD*
D13*
G04 #@! TO.C,K_39*
X175444150Y30448250D03*
X165284150Y30448250D03*
D14*
X170364150Y30448250D03*
D15*
X166554150Y32988250D03*
X172904150Y35528250D03*
G04 #@! TD*
D13*
G04 #@! TO.C,K_60*
X255974850Y11499850D03*
X245814850Y11499850D03*
D14*
X250894850Y11499850D03*
D15*
X247084850Y14039850D03*
X253434850Y16579850D03*
G04 #@! TD*
D13*
G04 #@! TO.C,K_44*
X194392550Y30448250D03*
X184232550Y30448250D03*
D14*
X189312550Y30448250D03*
D15*
X185502550Y32988250D03*
X191852550Y35528250D03*
G04 #@! TD*
D16*
G04 #@! TO.C,K_5*
X56731000Y37448250D03*
X32931000Y37448250D03*
D14*
X32931000Y22208250D03*
X56731000Y22208250D03*
D13*
X49911000Y30448250D03*
X39751000Y30448250D03*
D14*
X44831000Y30448250D03*
D15*
X41021000Y32988250D03*
X47371000Y35528250D03*
G04 #@! TD*
D13*
G04 #@! TO.C,K_6*
X42805350Y11499850D03*
X32645350Y11499850D03*
D14*
X37725350Y11499850D03*
D15*
X33915350Y14039850D03*
X40265350Y16579850D03*
G04 #@! TD*
D13*
G04 #@! TO.C,K_78*
X329399900Y11499850D03*
X319239900Y11499850D03*
D14*
X324319900Y11499850D03*
D15*
X320509900Y14039850D03*
X326859900Y16579850D03*
G04 #@! TD*
D13*
G04 #@! TO.C,K_18*
X87807800Y11499850D03*
X77647800Y11499850D03*
D14*
X82727800Y11499850D03*
D15*
X78917800Y14039850D03*
X85267800Y16579850D03*
G04 #@! TD*
D13*
G04 #@! TO.C,K_63*
X255974850Y68345050D03*
X245814850Y68345050D03*
D14*
X250894850Y68345050D03*
D15*
X247084850Y70885050D03*
X253434850Y73425050D03*
G04 #@! TD*
D13*
G04 #@! TO.C,K_49*
X213340950Y30448250D03*
X203180950Y30448250D03*
D14*
X208260950Y30448250D03*
D15*
X204450950Y32988250D03*
X210800950Y35528250D03*
G04 #@! TD*
D13*
G04 #@! TO.C,K_52*
X222815150Y49396650D03*
X212655150Y49396650D03*
D14*
X217735150Y49396650D03*
D15*
X213925150Y51936650D03*
X220275150Y54476650D03*
G04 #@! TD*
D13*
G04 #@! TO.C,K_48*
X203866750Y49396650D03*
X193706750Y49396650D03*
D14*
X198786750Y49396650D03*
D15*
X194976750Y51936650D03*
X201326750Y54476650D03*
G04 #@! TD*
D13*
G04 #@! TO.C,K_43*
X184918350Y49396650D03*
X174758350Y49396650D03*
D14*
X179838350Y49396650D03*
D15*
X176028350Y51936650D03*
X182378350Y54476650D03*
G04 #@! TD*
D13*
G04 #@! TO.C,K_76*
X329399900Y87293450D03*
X319239900Y87293450D03*
D14*
X324319900Y87293450D03*
D15*
X320509900Y89833450D03*
X326859900Y92373450D03*
G04 #@! TD*
D13*
G04 #@! TO.C,K_47*
X199129650Y68345050D03*
X188969650Y68345050D03*
D14*
X194049650Y68345050D03*
D15*
X190239650Y70885050D03*
X196589650Y73425050D03*
G04 #@! TD*
D13*
G04 #@! TO.C,K_80*
X348348300Y87293450D03*
X338188300Y87293450D03*
D14*
X343268300Y87293450D03*
D15*
X339458300Y89833450D03*
X345808300Y92373450D03*
G04 #@! TD*
D13*
G04 #@! TO.C,K_38*
X165969950Y49396650D03*
X155809950Y49396650D03*
D14*
X160889950Y49396650D03*
D15*
X157079950Y51936650D03*
X163429950Y54476650D03*
G04 #@! TD*
D13*
G04 #@! TO.C,K_32*
X147021550Y49396650D03*
X136861550Y49396650D03*
D14*
X141941550Y49396650D03*
D15*
X138131550Y51936650D03*
X144481550Y54476650D03*
G04 #@! TD*
D13*
G04 #@! TO.C,K_65*
X274923250Y11499850D03*
X264763250Y11499850D03*
D14*
X269843250Y11499850D03*
D15*
X266033250Y14039850D03*
X272383250Y16579850D03*
G04 #@! TD*
D13*
G04 #@! TO.C,K_27*
X128073150Y49396650D03*
X117913150Y49396650D03*
D14*
X122993150Y49396650D03*
D15*
X119183150Y51936650D03*
X125533150Y54476650D03*
G04 #@! TD*
D13*
G04 #@! TO.C,K_69*
X303345850Y120453150D03*
X293185850Y120453150D03*
D14*
X298265850Y120453150D03*
D15*
X294455850Y122993150D03*
X300805850Y125533150D03*
G04 #@! TD*
D13*
G04 #@! TO.C,K_66*
X284397450Y120453150D03*
X274237450Y120453150D03*
D14*
X279317450Y120453150D03*
D15*
X275507450Y122993150D03*
X281857450Y125533150D03*
G04 #@! TD*
D13*
G04 #@! TO.C,K_61*
X265449050Y120453150D03*
X255289050Y120453150D03*
D14*
X260369050Y120453150D03*
D15*
X256559050Y122993150D03*
X262909050Y125533150D03*
G04 #@! TD*
D13*
G04 #@! TO.C,K_55*
X246500650Y120453150D03*
X236340650Y120453150D03*
D14*
X241420650Y120453150D03*
D15*
X237610650Y122993150D03*
X243960650Y125533150D03*
G04 #@! TD*
D13*
G04 #@! TO.C,K_45*
X215709500Y120453150D03*
X205549500Y120453150D03*
D14*
X210629500Y120453150D03*
D15*
X206819500Y122993150D03*
X213169500Y125533150D03*
G04 #@! TD*
D13*
G04 #@! TO.C,K_40*
X196761100Y120453150D03*
X186601100Y120453150D03*
D14*
X191681100Y120453150D03*
D15*
X187871100Y122993150D03*
X194221100Y125533150D03*
G04 #@! TD*
D13*
G04 #@! TO.C,K_35*
X177812700Y120453150D03*
X167652700Y120453150D03*
D14*
X172732700Y120453150D03*
D15*
X168922700Y122993150D03*
X175272700Y125533150D03*
G04 #@! TD*
D13*
G04 #@! TO.C,K_29*
X158864300Y120453150D03*
X148704300Y120453150D03*
D14*
X153784300Y120453150D03*
D15*
X149974300Y122993150D03*
X156324300Y125533150D03*
G04 #@! TD*
D13*
G04 #@! TO.C,K_24*
X128073150Y120453150D03*
X117913150Y120453150D03*
D14*
X122993150Y120453150D03*
D15*
X119183150Y122993150D03*
X125533150Y125533150D03*
G04 #@! TD*
D13*
G04 #@! TO.C,K_19*
X109124750Y120453150D03*
X98964750Y120453150D03*
D14*
X104044750Y120453150D03*
D15*
X100234750Y122993150D03*
X106584750Y125533150D03*
G04 #@! TD*
D13*
G04 #@! TO.C,K_13*
X90176350Y120453150D03*
X80016350Y120453150D03*
D14*
X85096350Y120453150D03*
D15*
X81286350Y122993150D03*
X87636350Y125533150D03*
G04 #@! TD*
D13*
G04 #@! TO.C,K_7*
X71227950Y120453150D03*
X61067950Y120453150D03*
D14*
X66147950Y120453150D03*
D15*
X62337950Y122993150D03*
X68687950Y125533150D03*
G04 #@! TD*
D13*
G04 #@! TO.C,K_1*
X38068250Y120453150D03*
X27908250Y120453150D03*
D14*
X32988250Y120453150D03*
D15*
X29178250Y122993150D03*
X35528250Y125533150D03*
G04 #@! TD*
D16*
G04 #@! TO.C,K_72*
X298323100Y56396650D03*
X274523100Y56396650D03*
D14*
X274523100Y41156650D03*
X298323100Y41156650D03*
D13*
X291503100Y49396650D03*
X281343100Y49396650D03*
D14*
X286423100Y49396650D03*
D15*
X282613100Y51936650D03*
X288963100Y54476650D03*
G04 #@! TD*
D13*
G04 #@! TO.C,K_81*
X348348300Y68345050D03*
X338188300Y68345050D03*
D14*
X343268300Y68345050D03*
D15*
X339458300Y70885050D03*
X345808300Y73425050D03*
G04 #@! TD*
D13*
G04 #@! TO.C,K_21*
X104387650Y68345050D03*
X94227650Y68345050D03*
D14*
X99307650Y68345050D03*
D15*
X95497650Y70885050D03*
X101847650Y73425050D03*
G04 #@! TD*
D13*
G04 #@! TO.C,K_83*
X348348300Y11499850D03*
X338188300Y11499850D03*
D14*
X343268300Y11499850D03*
D15*
X339458300Y14039850D03*
X345808300Y16579850D03*
G04 #@! TD*
D13*
G04 #@! TO.C,K_77*
X329399900Y68345050D03*
X319239900Y68345050D03*
D14*
X324319900Y68345050D03*
D15*
X320509900Y70885050D03*
X326859900Y73425050D03*
G04 #@! TD*
D13*
G04 #@! TO.C,K_22*
X109124750Y49396650D03*
X98964750Y49396650D03*
D14*
X104044750Y49396650D03*
D15*
X100234750Y51936650D03*
X106584750Y54476650D03*
G04 #@! TD*
D13*
G04 #@! TO.C,K_4*
X45173900Y49396650D03*
X35013900Y49396650D03*
D14*
X40093900Y49396650D03*
D15*
X36283900Y51936650D03*
X42633900Y54476650D03*
G04 #@! TD*
D13*
G04 #@! TO.C,K_23*
X118598950Y30448250D03*
X108438950Y30448250D03*
D14*
X113518950Y30448250D03*
D15*
X109708950Y32988250D03*
X116058950Y35528250D03*
G04 #@! TD*
D16*
G04 #@! TO.C,K_70*
X300691650Y94293450D03*
X276891650Y94293450D03*
D14*
X276891650Y79053450D03*
X300691650Y79053450D03*
D13*
X293871650Y87293450D03*
X283711650Y87293450D03*
D14*
X288791650Y87293450D03*
D15*
X284981650Y89833450D03*
X291331650Y92373450D03*
G04 #@! TD*
D13*
G04 #@! TO.C,K_33*
X156495750Y30448250D03*
X146335750Y30448250D03*
D14*
X151415750Y30448250D03*
D15*
X147605750Y32988250D03*
X153955750Y35528250D03*
G04 #@! TD*
D13*
G04 #@! TO.C,K_10*
X71227950Y49396650D03*
X61067950Y49396650D03*
D14*
X66147950Y49396650D03*
D15*
X62337950Y51936650D03*
X68687950Y54476650D03*
G04 #@! TD*
D13*
G04 #@! TO.C,K_50*
X208603850Y87293450D03*
X198443850Y87293450D03*
D14*
X203523850Y87293450D03*
D15*
X199713850Y89833450D03*
X206063850Y92373450D03*
G04 #@! TD*
D13*
G04 #@! TO.C,K_46*
X189655450Y87293450D03*
X179495450Y87293450D03*
D14*
X184575450Y87293450D03*
D15*
X180765450Y89833450D03*
X187115450Y92373450D03*
G04 #@! TD*
D13*
G04 #@! TO.C,K_41*
X170707050Y87293450D03*
X160547050Y87293450D03*
D14*
X165627050Y87293450D03*
D15*
X161817050Y89833450D03*
X168167050Y92373450D03*
G04 #@! TD*
D13*
G04 #@! TO.C,K_36*
X151758650Y87293450D03*
X141598650Y87293450D03*
D14*
X146678650Y87293450D03*
D15*
X142868650Y89833450D03*
X149218650Y92373450D03*
G04 #@! TD*
D13*
G04 #@! TO.C,K_30*
X132810250Y87293450D03*
X122650250Y87293450D03*
D14*
X127730250Y87293450D03*
D15*
X123920250Y89833450D03*
X130270250Y92373450D03*
G04 #@! TD*
D13*
G04 #@! TO.C,K_25*
X113861850Y87293450D03*
X103701850Y87293450D03*
D14*
X108781850Y87293450D03*
D15*
X104971850Y89833450D03*
X111321850Y92373450D03*
G04 #@! TD*
D13*
G04 #@! TO.C,K_20*
X94913450Y87293450D03*
X84753450Y87293450D03*
D14*
X89833450Y87293450D03*
D15*
X86023450Y89833450D03*
X92373450Y92373450D03*
G04 #@! TD*
D13*
G04 #@! TO.C,K_14*
X75965050Y87293450D03*
X65805050Y87293450D03*
D14*
X70885050Y87293450D03*
D15*
X67075050Y89833450D03*
X73425050Y92373450D03*
G04 #@! TD*
D13*
G04 #@! TO.C,K_8*
X57016650Y87293450D03*
X46856650Y87293450D03*
D14*
X51936650Y87293450D03*
D15*
X48126650Y89833450D03*
X54476650Y92373450D03*
G04 #@! TD*
D13*
G04 #@! TO.C,K_56*
X227552250Y87293450D03*
X217392250Y87293450D03*
D14*
X222472250Y87293450D03*
D15*
X218662250Y89833450D03*
X225012250Y92373450D03*
G04 #@! TD*
D17*
G04 #@! TO.C,D92*
X394016400Y7105650D03*
D18*
X401816400Y7105650D03*
D19*
X399491400Y7105650D03*
X396341400Y7105650D03*
G04 #@! TD*
D17*
G04 #@! TO.C,D101*
X422439000Y7105650D03*
D18*
X430239000Y7105650D03*
D19*
X427914000Y7105650D03*
X424764000Y7105650D03*
G04 #@! TD*
D17*
G04 #@! TO.C,D91*
X384542200Y26054050D03*
D18*
X392342200Y26054050D03*
D19*
X390017200Y26054050D03*
X386867200Y26054050D03*
G04 #@! TD*
D17*
G04 #@! TO.C,D96*
X403490600Y26054050D03*
D18*
X411290600Y26054050D03*
D19*
X408965600Y26054050D03*
X405815600Y26054050D03*
G04 #@! TD*
D17*
G04 #@! TO.C,D100*
X422439000Y26054050D03*
D18*
X430239000Y26054050D03*
D19*
X427914000Y26054050D03*
X424764000Y26054050D03*
G04 #@! TD*
D17*
G04 #@! TO.C,D99*
X422439000Y45002450D03*
D18*
X430239000Y45002450D03*
D19*
X427914000Y45002450D03*
X424764000Y45002450D03*
G04 #@! TD*
D17*
G04 #@! TO.C,D98*
X422439000Y63950850D03*
D18*
X430239000Y63950850D03*
D19*
X427914000Y63950850D03*
X424764000Y63950850D03*
G04 #@! TD*
D17*
G04 #@! TO.C,D97*
X422439000Y82899250D03*
D18*
X430239000Y82899250D03*
D19*
X427914000Y82899250D03*
X424764000Y82899250D03*
G04 #@! TD*
D17*
G04 #@! TO.C,D86*
X358488150Y63950850D03*
D18*
X366288150Y63950850D03*
D19*
X363963150Y63950850D03*
X360813150Y63950850D03*
G04 #@! TD*
D17*
G04 #@! TO.C,D85*
X358488150Y82899250D03*
D18*
X366288150Y82899250D03*
D19*
X363963150Y82899250D03*
X360813150Y82899250D03*
G04 #@! TD*
D17*
G04 #@! TO.C,D84*
X358488150Y116058950D03*
D18*
X366288150Y116058950D03*
D19*
X363963150Y116058950D03*
X360813150Y116058950D03*
G04 #@! TD*
D17*
G04 #@! TO.C,D95*
X403490600Y45002450D03*
D18*
X411290600Y45002450D03*
D19*
X408965600Y45002450D03*
X405815600Y45002450D03*
G04 #@! TD*
D17*
G04 #@! TO.C,D94*
X403490600Y63950850D03*
D18*
X411290600Y63950850D03*
D19*
X408965600Y63950850D03*
X405815600Y63950850D03*
G04 #@! TD*
D17*
G04 #@! TO.C,D93*
X403490600Y82899250D03*
D18*
X411290600Y82899250D03*
D19*
X408965600Y82899250D03*
X405815600Y82899250D03*
G04 #@! TD*
D17*
G04 #@! TO.C,D81*
X339539750Y63950850D03*
D18*
X347339750Y63950850D03*
D19*
X345014750Y63950850D03*
X341864750Y63950850D03*
G04 #@! TD*
D17*
G04 #@! TO.C,D80*
X339539750Y82899250D03*
D18*
X347339750Y82899250D03*
D19*
X345014750Y82899250D03*
X341864750Y82899250D03*
G04 #@! TD*
D17*
G04 #@! TO.C,D79*
X339539750Y116058950D03*
D18*
X347339750Y116058950D03*
D19*
X345014750Y116058950D03*
X341864750Y116058950D03*
G04 #@! TD*
D17*
G04 #@! TO.C,D90*
X384542200Y45002450D03*
D18*
X392342200Y45002450D03*
D19*
X390017200Y45002450D03*
X386867200Y45002450D03*
G04 #@! TD*
D17*
G04 #@! TO.C,D89*
X384542200Y63950850D03*
D18*
X392342200Y63950850D03*
D19*
X390017200Y63950850D03*
X386867200Y63950850D03*
G04 #@! TD*
D17*
G04 #@! TO.C,D88*
X384542200Y82899250D03*
D18*
X392342200Y82899250D03*
D19*
X390017200Y82899250D03*
X386867200Y82899250D03*
G04 #@! TD*
D17*
G04 #@! TO.C,D77*
X320591350Y63950850D03*
D18*
X328391350Y63950850D03*
D19*
X326066350Y63950850D03*
X322916350Y63950850D03*
G04 #@! TD*
D17*
G04 #@! TO.C,D76*
X320591350Y82899250D03*
D18*
X328391350Y82899250D03*
D19*
X326066350Y82899250D03*
X322916350Y82899250D03*
G04 #@! TD*
D17*
G04 #@! TO.C,D75*
X320591350Y116058950D03*
D18*
X328391350Y116058950D03*
D19*
X326066350Y116058950D03*
X322916350Y116058950D03*
G04 #@! TD*
D17*
G04 #@! TO.C,D103*
X441387400Y54476650D03*
D18*
X449187400Y54476650D03*
D19*
X446862400Y54476650D03*
X443712400Y54476650D03*
G04 #@! TD*
D17*
G04 #@! TO.C,D71*
X289800200Y63950850D03*
D18*
X297600200Y63950850D03*
D19*
X295275200Y63950850D03*
X292125200Y63950850D03*
G04 #@! TD*
D17*
G04 #@! TO.C,D70*
X285063100Y82899250D03*
D18*
X292863100Y82899250D03*
D19*
X290538100Y82899250D03*
X287388100Y82899250D03*
G04 #@! TD*
D17*
G04 #@! TO.C,D104*
X441387400Y16579850D03*
D18*
X449187400Y16579850D03*
D19*
X446862400Y16579850D03*
X443712400Y16579850D03*
G04 #@! TD*
D17*
G04 #@! TO.C,D102*
X441387400Y82899250D03*
D18*
X449187400Y82899250D03*
D19*
X446862400Y82899250D03*
X443712400Y82899250D03*
G04 #@! TD*
D17*
G04 #@! TO.C,D72*
X282694550Y45002450D03*
D18*
X290494550Y45002450D03*
D19*
X288169550Y45002450D03*
X285019550Y45002450D03*
G04 #@! TD*
D17*
G04 #@! TO.C,D68*
X266114700Y63950850D03*
D18*
X273914700Y63950850D03*
D19*
X271589700Y63950850D03*
X268439700Y63950850D03*
G04 #@! TD*
D17*
G04 #@! TO.C,D67*
X256640500Y82899250D03*
D18*
X264440500Y82899250D03*
D19*
X262115500Y82899250D03*
X258965500Y82899250D03*
G04 #@! TD*
D17*
G04 #@! TO.C,D69*
X294537300Y116058950D03*
D18*
X302337300Y116058950D03*
D19*
X300012300Y116058950D03*
X296862300Y116058950D03*
G04 #@! TD*
D17*
G04 #@! TO.C,D82*
X339539750Y26054050D03*
D18*
X347339750Y26054050D03*
D19*
X345014750Y26054050D03*
X341864750Y26054050D03*
G04 #@! TD*
D17*
G04 #@! TO.C,D73*
X277957450Y26054050D03*
D18*
X285757450Y26054050D03*
D19*
X283432450Y26054050D03*
X280282450Y26054050D03*
G04 #@! TD*
D17*
G04 #@! TO.C,D64*
X251903400Y45002450D03*
D18*
X259703400Y45002450D03*
D19*
X257378400Y45002450D03*
X254228400Y45002450D03*
G04 #@! TD*
D17*
G04 #@! TO.C,D63*
X247166300Y63950850D03*
D18*
X254966300Y63950850D03*
D19*
X252641300Y63950850D03*
X249491300Y63950850D03*
G04 #@! TD*
D17*
G04 #@! TO.C,D62*
X237692100Y82899250D03*
D18*
X245492100Y82899250D03*
D19*
X243167100Y82899250D03*
X240017100Y82899250D03*
G04 #@! TD*
D17*
G04 #@! TO.C,D66*
X275588900Y116058950D03*
D18*
X283388900Y116058950D03*
D19*
X281063900Y116058950D03*
X277913900Y116058950D03*
G04 #@! TD*
D17*
G04 #@! TO.C,D87*
X358488150Y7105650D03*
D18*
X366288150Y7105650D03*
D19*
X363963150Y7105650D03*
X360813150Y7105650D03*
G04 #@! TD*
D17*
G04 #@! TO.C,D59*
X242429200Y26054050D03*
D18*
X250229200Y26054050D03*
D19*
X247904200Y26054050D03*
X244754200Y26054050D03*
G04 #@! TD*
D17*
G04 #@! TO.C,D58*
X232955000Y45002450D03*
D18*
X240755000Y45002450D03*
D19*
X238430000Y45002450D03*
X235280000Y45002450D03*
G04 #@! TD*
D17*
G04 #@! TO.C,D57*
X228217900Y63950850D03*
D18*
X236017900Y63950850D03*
D19*
X233692900Y63950850D03*
X230542900Y63950850D03*
G04 #@! TD*
D17*
G04 #@! TO.C,D56*
X218743700Y82899250D03*
D18*
X226543700Y82899250D03*
D19*
X224218700Y82899250D03*
X221068700Y82899250D03*
G04 #@! TD*
D17*
G04 #@! TO.C,D61*
X256640500Y116058950D03*
D18*
X264440500Y116058950D03*
D19*
X262115500Y116058950D03*
X258965500Y116058950D03*
G04 #@! TD*
D17*
G04 #@! TO.C,D83*
X339539750Y7105650D03*
D18*
X347339750Y7105650D03*
D19*
X345014750Y7105650D03*
X341864750Y7105650D03*
G04 #@! TD*
D17*
G04 #@! TO.C,D53*
X223480800Y26054050D03*
D18*
X231280800Y26054050D03*
D19*
X228955800Y26054050D03*
X225805800Y26054050D03*
G04 #@! TD*
D17*
G04 #@! TO.C,D52*
X214006600Y45002450D03*
D18*
X221806600Y45002450D03*
D19*
X219481600Y45002450D03*
X216331600Y45002450D03*
G04 #@! TD*
D17*
G04 #@! TO.C,D51*
X209269500Y63950850D03*
D18*
X217069500Y63950850D03*
D19*
X214744500Y63950850D03*
X211594500Y63950850D03*
G04 #@! TD*
D17*
G04 #@! TO.C,D50*
X199795300Y82899250D03*
D18*
X207595300Y82899250D03*
D19*
X205270300Y82899250D03*
X202120300Y82899250D03*
G04 #@! TD*
D17*
G04 #@! TO.C,D55*
X237692100Y116058950D03*
D18*
X245492100Y116058950D03*
D19*
X243167100Y116058950D03*
X240017100Y116058950D03*
G04 #@! TD*
D17*
G04 #@! TO.C,D78*
X320591350Y7105650D03*
D18*
X328391350Y7105650D03*
D19*
X326066350Y7105650D03*
X322916350Y7105650D03*
G04 #@! TD*
D17*
G04 #@! TO.C,D49*
X204532400Y26054050D03*
D18*
X212332400Y26054050D03*
D19*
X210007400Y26054050D03*
X206857400Y26054050D03*
G04 #@! TD*
D17*
G04 #@! TO.C,D48*
X195058200Y45002450D03*
D18*
X202858200Y45002450D03*
D19*
X200533200Y45002450D03*
X197383200Y45002450D03*
G04 #@! TD*
D17*
G04 #@! TO.C,D47*
X190321100Y63950850D03*
D18*
X198121100Y63950850D03*
D19*
X195796100Y63950850D03*
X192646100Y63950850D03*
G04 #@! TD*
D17*
G04 #@! TO.C,D46*
X180846900Y82899250D03*
D18*
X188646900Y82899250D03*
D19*
X186321900Y82899250D03*
X183171900Y82899250D03*
G04 #@! TD*
D17*
G04 #@! TO.C,D45*
X206900950Y116058950D03*
D18*
X214700950Y116058950D03*
D19*
X212375950Y116058950D03*
X209225950Y116058950D03*
G04 #@! TD*
D17*
G04 #@! TO.C,D74*
X289800200Y7105650D03*
D18*
X297600200Y7105650D03*
D19*
X295275200Y7105650D03*
X292125200Y7105650D03*
G04 #@! TD*
D17*
G04 #@! TO.C,D44*
X185584000Y26054050D03*
D18*
X193384000Y26054050D03*
D19*
X191059000Y26054050D03*
X187909000Y26054050D03*
G04 #@! TD*
D17*
G04 #@! TO.C,D43*
X176109800Y45002450D03*
D18*
X183909800Y45002450D03*
D19*
X181584800Y45002450D03*
X178434800Y45002450D03*
G04 #@! TD*
D17*
G04 #@! TO.C,D42*
X171372700Y63950850D03*
D18*
X179172700Y63950850D03*
D19*
X176847700Y63950850D03*
X173697700Y63950850D03*
G04 #@! TD*
D17*
G04 #@! TO.C,D41*
X161898500Y82899250D03*
D18*
X169698500Y82899250D03*
D19*
X167373500Y82899250D03*
X164223500Y82899250D03*
G04 #@! TD*
D17*
G04 #@! TO.C,D40*
X187952550Y116058950D03*
D18*
X195752550Y116058950D03*
D19*
X193427550Y116058950D03*
X190277550Y116058950D03*
G04 #@! TD*
D17*
G04 #@! TO.C,D65*
X266114700Y7105650D03*
D18*
X273914700Y7105650D03*
D19*
X271589700Y7105650D03*
X268439700Y7105650D03*
G04 #@! TD*
D17*
G04 #@! TO.C,D39*
X166635600Y26054050D03*
D18*
X174435600Y26054050D03*
D19*
X172110600Y26054050D03*
X168960600Y26054050D03*
G04 #@! TD*
D17*
G04 #@! TO.C,D38*
X157161400Y45002450D03*
D18*
X164961400Y45002450D03*
D19*
X162636400Y45002450D03*
X159486400Y45002450D03*
G04 #@! TD*
D17*
G04 #@! TO.C,D37*
X152424300Y63950850D03*
D18*
X160224300Y63950850D03*
D19*
X157899300Y63950850D03*
X154749300Y63950850D03*
G04 #@! TD*
D17*
G04 #@! TO.C,D36*
X142950100Y82899250D03*
D18*
X150750100Y82899250D03*
D19*
X148425100Y82899250D03*
X145275100Y82899250D03*
G04 #@! TD*
D17*
G04 #@! TO.C,D35*
X169004150Y116058950D03*
D18*
X176804150Y116058950D03*
D19*
X174479150Y116058950D03*
X171329150Y116058950D03*
G04 #@! TD*
D17*
G04 #@! TO.C,D60*
X247166300Y7105650D03*
D18*
X254966300Y7105650D03*
D19*
X252641300Y7105650D03*
X249491300Y7105650D03*
G04 #@! TD*
D17*
G04 #@! TO.C,D33*
X147687200Y26054050D03*
D18*
X155487200Y26054050D03*
D19*
X153162200Y26054050D03*
X150012200Y26054050D03*
G04 #@! TD*
D17*
G04 #@! TO.C,D32*
X138213000Y45002450D03*
D18*
X146013000Y45002450D03*
D19*
X143688000Y45002450D03*
X140538000Y45002450D03*
G04 #@! TD*
D17*
G04 #@! TO.C,D31*
X133475900Y63950850D03*
D18*
X141275900Y63950850D03*
D19*
X138950900Y63950850D03*
X135800900Y63950850D03*
G04 #@! TD*
D17*
G04 #@! TO.C,D30*
X124001700Y82899250D03*
D18*
X131801700Y82899250D03*
D19*
X129476700Y82899250D03*
X126326700Y82899250D03*
G04 #@! TD*
D17*
G04 #@! TO.C,D29*
X150055750Y116058950D03*
D18*
X157855750Y116058950D03*
D19*
X155530750Y116058950D03*
X152380750Y116058950D03*
G04 #@! TD*
D17*
G04 #@! TO.C,D54*
X223480800Y7105650D03*
D18*
X231280800Y7105650D03*
D19*
X228955800Y7105650D03*
X225805800Y7105650D03*
G04 #@! TD*
D17*
G04 #@! TO.C,D28*
X128738800Y26054050D03*
D18*
X136538800Y26054050D03*
D19*
X134213800Y26054050D03*
X131063800Y26054050D03*
G04 #@! TD*
D17*
G04 #@! TO.C,D27*
X119264600Y45002450D03*
D18*
X127064600Y45002450D03*
D19*
X124739600Y45002450D03*
X121589600Y45002450D03*
G04 #@! TD*
D17*
G04 #@! TO.C,D26*
X114527500Y63950850D03*
D18*
X122327500Y63950850D03*
D19*
X120002500Y63950850D03*
X116852500Y63950850D03*
G04 #@! TD*
D17*
G04 #@! TO.C,D25*
X105053300Y82899250D03*
D18*
X112853300Y82899250D03*
D19*
X110528300Y82899250D03*
X107378300Y82899250D03*
G04 #@! TD*
D17*
G04 #@! TO.C,D24*
X119264600Y116058950D03*
D18*
X127064600Y116058950D03*
D19*
X124739600Y116058950D03*
X121589600Y116058950D03*
G04 #@! TD*
D17*
G04 #@! TO.C,D34*
X150055750Y7105650D03*
D18*
X157855750Y7105650D03*
D19*
X155530750Y7105650D03*
X152380750Y7105650D03*
G04 #@! TD*
D17*
G04 #@! TO.C,D23*
X109790400Y26054050D03*
D18*
X117590400Y26054050D03*
D19*
X115265400Y26054050D03*
X112115400Y26054050D03*
G04 #@! TD*
D17*
G04 #@! TO.C,D22*
X100316200Y45002450D03*
D18*
X108116200Y45002450D03*
D19*
X105791200Y45002450D03*
X102641200Y45002450D03*
G04 #@! TD*
D17*
G04 #@! TO.C,D21*
X95579100Y63950850D03*
D18*
X103379100Y63950850D03*
D19*
X101054100Y63950850D03*
X97904100Y63950850D03*
G04 #@! TD*
D17*
G04 #@! TO.C,D20*
X86104900Y82899250D03*
D18*
X93904900Y82899250D03*
D19*
X91579900Y82899250D03*
X88429900Y82899250D03*
G04 #@! TD*
D17*
G04 #@! TO.C,D19*
X100316200Y116058950D03*
D18*
X108116200Y116058950D03*
D19*
X105791200Y116058950D03*
X102641200Y116058950D03*
G04 #@! TD*
D17*
G04 #@! TO.C,D18*
X78999250Y7105650D03*
D18*
X86799250Y7105650D03*
D19*
X84474250Y7105650D03*
X81324250Y7105650D03*
G04 #@! TD*
D17*
G04 #@! TO.C,D17*
X90842000Y26054050D03*
D18*
X98642000Y26054050D03*
D19*
X96317000Y26054050D03*
X93167000Y26054050D03*
G04 #@! TD*
D17*
G04 #@! TO.C,D16*
X81367800Y45002450D03*
D18*
X89167800Y45002450D03*
D19*
X86842800Y45002450D03*
X83692800Y45002450D03*
G04 #@! TD*
D17*
G04 #@! TO.C,D15*
X76630700Y63950850D03*
D18*
X84430700Y63950850D03*
D19*
X82105700Y63950850D03*
X78955700Y63950850D03*
G04 #@! TD*
D17*
G04 #@! TO.C,D14*
X67156500Y82899250D03*
D18*
X74956500Y82899250D03*
D19*
X72631500Y82899250D03*
X69481500Y82899250D03*
G04 #@! TD*
D17*
G04 #@! TO.C,D13*
X81367800Y116058950D03*
D18*
X89167800Y116058950D03*
D19*
X86842800Y116058950D03*
X83692800Y116058950D03*
G04 #@! TD*
D17*
G04 #@! TO.C,D12*
X57682300Y7105650D03*
D18*
X65482300Y7105650D03*
D19*
X63157300Y7105650D03*
X60007300Y7105650D03*
G04 #@! TD*
D17*
G04 #@! TO.C,D11*
X71893600Y26054050D03*
D18*
X79693600Y26054050D03*
D19*
X77368600Y26054050D03*
X74218600Y26054050D03*
G04 #@! TD*
D17*
G04 #@! TO.C,D10*
X62419400Y45002450D03*
D18*
X70219400Y45002450D03*
D19*
X67894400Y45002450D03*
X64744400Y45002450D03*
G04 #@! TD*
D17*
G04 #@! TO.C,D9*
X57682300Y63950850D03*
D18*
X65482300Y63950850D03*
D19*
X63157300Y63950850D03*
X60007300Y63950850D03*
G04 #@! TD*
D17*
G04 #@! TO.C,D8*
X48208100Y82899250D03*
D18*
X56008100Y82899250D03*
D19*
X53683100Y82899250D03*
X50533100Y82899250D03*
G04 #@! TD*
D17*
G04 #@! TO.C,D7*
X62419400Y116058950D03*
D18*
X70219400Y116058950D03*
D19*
X67894400Y116058950D03*
X64744400Y116058950D03*
G04 #@! TD*
D17*
G04 #@! TO.C,D6*
X33996800Y7105650D03*
D18*
X41796800Y7105650D03*
D19*
X39471800Y7105650D03*
X36321800Y7105650D03*
G04 #@! TD*
D17*
G04 #@! TO.C,D5*
X41102450Y26054050D03*
D18*
X48902450Y26054050D03*
D19*
X46577450Y26054050D03*
X43427450Y26054050D03*
G04 #@! TD*
D17*
G04 #@! TO.C,D4*
X36365350Y45002450D03*
D18*
X44165350Y45002450D03*
D19*
X41840350Y45002450D03*
X38690350Y45002450D03*
G04 #@! TD*
D17*
G04 #@! TO.C,D3*
X33996800Y63950850D03*
D18*
X41796800Y63950850D03*
D19*
X39471800Y63950850D03*
X36321800Y63950850D03*
G04 #@! TD*
D17*
G04 #@! TO.C,D2*
X29259700Y82899250D03*
D18*
X37059700Y82899250D03*
D19*
X34734700Y82899250D03*
X31584700Y82899250D03*
G04 #@! TD*
D17*
G04 #@! TO.C,D1*
X29259700Y116058950D03*
D18*
X37059700Y116058950D03*
D19*
X34734700Y116058950D03*
X31584700Y116058950D03*
G04 #@! TD*
M02*
