M48
; DRILL file {KiCad (5.1.9)-1} date 04/17/21 22:02:57
; FORMAT={-:-/ absolute / inch / decimal}
; #@! TF.CreationDate,2021-04-17T22:02:57-05:00
; #@! TF.GenerationSoftware,Kicad,Pcbnew,(5.1.9)-1
; #@! TF.FileFunction,Plated,1,2,PTH
FMAT,2
INCH
T1C0.0157
T2C0.0236
T3C0.0276
T4C0.0591
%
G90
G05
T1
X14.8959Y5.3138
X14.8961Y5.2616
X14.9294Y5.3138
X14.9296Y5.2616
X14.9629Y5.3138
X14.9631Y5.2616
X14.9963Y5.3138
X14.9965Y5.2616
X15.0098Y5.187
X15.0298Y5.3138
X15.03Y5.2616
X15.0633Y5.3138
X15.0634Y5.2616
X15.0967Y5.3138
X15.0969Y5.2616
X15.1304Y5.3138
X15.1304Y5.2616
X15.4843Y5.3947
X15.4843Y5.3533
X15.8425Y4.6693
X16.1732Y4.3386
X16.4882Y4.0531
X16.8661Y4.0551
X16.9724Y4.7913
X17.0079Y4.311
X17.0079Y4.2717
X17.0197Y4.4016
X17.0551Y4.2441
X17.3819Y4.7874
X17.6969Y1.7795
T3
X1.152Y4.5693
X1.152Y3.2637
X1.3385Y2.5177
X1.3385Y0.2797
X1.4317Y1.7717
X1.459Y4.5693
X1.459Y3.2637
X1.6182Y1.0257
X1.6455Y2.5177
X1.6455Y0.2797
X1.7388Y1.7717
X1.898Y3.2637
X1.9253Y1.0257
X2.205Y3.2637
X2.271Y2.5177
X2.271Y0.2797
X2.4575Y4.5693
X2.4575Y1.7717
X2.578Y2.5177
X2.578Y0.2797
X2.644Y3.2637
X2.7645Y4.5693
X2.7645Y1.7717
X2.8305Y1.0257
X2.951Y3.2637
X3.017Y2.5177
X3.1102Y0.2797
X3.1375Y1.0257
X3.2035Y4.5693
X3.2035Y1.7717
X3.324Y2.5177
X3.39Y3.2637
X3.4173Y0.2797
X3.5105Y4.5693
X3.5105Y1.7717
X3.5765Y1.0257
X3.697Y3.2637
X3.763Y2.5177
X3.8835Y1.0257
X3.9495Y4.5693
X3.9495Y1.7717
X4.07Y2.5177
X4.136Y3.2637
X4.2565Y4.5693
X4.2565Y1.7717
X4.3225Y1.0257
X4.443Y3.2637
X4.509Y2.5177
X4.6295Y1.0257
X4.6955Y4.5693
X4.6955Y1.7717
X4.816Y2.5177
X4.882Y3.2637
X5.0025Y4.5693
X5.0025Y1.7717
X5.0685Y1.0257
X5.189Y3.2637
X5.255Y2.5177
X5.3755Y1.0257
X5.4415Y1.7717
X5.562Y2.5177
X5.628Y3.2637
X5.7485Y1.7717
X5.8145Y1.0257
X5.9077Y4.5693
X5.9077Y0.2797
X5.935Y3.2637
X6.001Y2.5177
X6.1215Y1.0257
X6.1875Y1.7717
X6.2148Y4.5693
X6.2148Y0.2797
X6.308Y2.5177
X6.374Y3.2637
X6.4945Y1.7717
X6.5605Y1.0257
X6.6537Y4.5693
X6.681Y3.2637
X6.747Y2.5177
X6.8675Y1.0257
X6.9335Y1.7717
X6.9608Y4.5693
X7.054Y2.5177
X7.12Y3.2637
X7.2405Y1.7717
X7.3065Y1.0257
X7.3997Y4.5693
X7.427Y3.2637
X7.493Y2.5177
X7.6135Y1.0257
X7.6795Y1.7717
X7.7068Y4.5693
X7.8Y2.5177
X7.866Y3.2637
X7.9865Y1.7717
X8.0525Y1.0257
X8.1457Y4.5693
X8.173Y3.2637
X8.239Y2.5177
X8.3595Y1.0257
X8.4255Y1.7717
X8.4528Y4.5693
X8.546Y2.5177
X8.612Y3.2637
X8.7325Y1.7717
X8.7985Y1.0257
X8.7985Y0.2797
X8.919Y3.2637
X8.985Y2.5177
X9.1055Y1.0257
X9.1055Y0.2797
X9.1715Y1.7717
X9.292Y2.5177
X9.358Y4.5693
X9.358Y3.2637
X9.4785Y1.7717
X9.5445Y1.0257
X9.665Y4.5693
X9.665Y3.2637
X9.731Y2.5177
X9.731Y0.2797
X9.8515Y1.0257
X9.9175Y1.7717
X10.038Y2.5177
X10.038Y0.2797
X10.104Y4.5693
X10.104Y3.2637
X10.2245Y1.7717
X10.411Y4.5693
X10.411Y3.2637
X10.477Y2.5177
X10.477Y0.2797
X10.784Y2.5177
X10.784Y0.2797
X10.85Y4.5693
X10.9432Y1.0257
X11.1297Y1.7717
X11.157Y4.5693
X11.223Y3.2637
X11.2503Y1.0257
X11.4095Y2.5177
X11.4095Y0.2797
X11.4368Y1.7717
X11.53Y3.2637
X11.596Y4.5693
X11.7165Y2.5177
X11.7165Y0.2797
X11.903Y4.5693
X12.6217Y4.5693
X12.6217Y3.2637
X12.6217Y2.5177
X12.6217Y0.2797
X12.9288Y4.5693
X12.9288Y3.2637
X12.9288Y2.5177
X12.9288Y0.2797
X13.3677Y4.5693
X13.3677Y3.2637
X13.3677Y2.5177
X13.3677Y1.0257
X13.3677Y0.2797
X13.6748Y4.5693
X13.6748Y3.2637
X13.6748Y2.5177
X13.6748Y1.0257
X13.6748Y0.2797
X14.1137Y4.5693
X14.1137Y3.2637
X14.1137Y2.5177
X14.1137Y0.2797
X14.4208Y4.5693
X14.4208Y3.2637
X14.4208Y2.5177
X14.4208Y0.2797
X15.1395Y3.2637
X15.1395Y2.5177
X15.1395Y1.7717
X15.1395Y1.0257
X15.4465Y3.2637
X15.4465Y2.5177
X15.4465Y1.7717
X15.4465Y1.0257
X15.5125Y0.2797
X15.8195Y0.2797
X15.8855Y3.2637
X15.8855Y2.5177
X15.8855Y1.7717
X15.8855Y1.0257
X16.1925Y3.2637
X16.1925Y2.5177
X16.1925Y1.7717
X16.1925Y1.0257
X16.6315Y3.2637
X16.6315Y2.5177
X16.6315Y1.7717
X16.6315Y1.0257
X16.6315Y0.2797
X16.9385Y3.2637
X16.9385Y2.5177
X16.9385Y1.7717
X16.9385Y1.0257
X16.9385Y0.2797
X17.3775Y3.2637
X17.3775Y2.1448
X17.3775Y0.6527
X17.6845Y3.2637
X17.6845Y2.1448
X17.6845Y0.6527
T4
X1.1487Y4.8422
X1.1487Y3.5368
X1.3353Y2.7908
X1.3353Y0.5527
X1.3987Y4.9422
X1.3987Y3.6367
X1.4285Y2.0448
X1.5853Y2.8908
X1.5853Y0.6527
X1.615Y1.2988
X1.6785Y2.1448
X1.865Y1.3987
X1.8947Y3.5368
X2.1448Y3.6367
X2.2677Y2.7908
X2.2677Y0.5527
X2.4543Y4.8422
X2.4543Y2.0448
X2.5177Y2.8908
X2.5177Y0.6527
X2.6408Y3.5368
X2.7043Y4.9422
X2.7043Y2.1448
X2.8272Y1.2988
X2.8908Y3.6367
X3.0137Y2.7908
X3.0772Y1.3987
X3.107Y0.5527
X3.2003Y4.8422
X3.2003Y2.0448
X3.2637Y2.8908
X3.357Y0.6527
X3.3867Y3.5368
X3.4503Y4.9422
X3.4503Y2.1448
X3.5732Y1.2988
X3.6367Y3.6367
X3.7597Y2.7908
X3.8232Y1.3987
X3.9463Y4.8422
X3.9463Y2.0448
X4.0097Y2.8908
X4.1327Y3.5368
X4.1963Y4.9422
X4.1963Y2.1448
X4.3193Y1.2988
X4.3827Y3.6367
X4.5057Y2.7908
X4.5693Y1.3987
X4.6922Y4.8422
X4.6922Y2.0448
X4.7557Y2.8908
X4.8788Y3.5368
X4.9422Y4.9422
X4.9422Y2.1448
X5.0652Y1.2988
X5.1288Y3.6367
X5.2517Y2.7908
X5.3152Y1.3987
X5.4383Y2.0448
X5.5017Y2.8908
X5.6247Y3.5368
X5.6883Y2.1448
X5.8113Y1.2988
X5.8747Y3.6367
X5.9045Y4.8422
X5.9045Y0.5527
X5.9977Y2.7908
X6.0613Y1.3987
X6.1545Y4.9422
X6.1545Y0.6527
X6.1842Y2.0448
X6.2477Y2.8908
X6.3708Y3.5368
X6.4342Y2.1448
X6.5572Y1.2988
X6.6208Y3.6367
X6.6505Y4.8422
X6.7437Y2.7908
X6.8072Y1.3987
X6.9005Y4.9422
X6.9303Y2.0448
X6.9937Y2.8908
X7.1167Y3.5368
X7.1803Y2.1448
X7.3033Y1.2988
X7.3667Y3.6367
X7.3965Y4.8422
X7.4897Y2.7908
X7.5533Y1.3987
X7.6465Y4.9422
X7.6762Y2.0448
X7.7397Y2.8908
X7.8628Y3.5368
X7.9262Y2.1448
X8.0493Y1.2988
X8.1128Y3.6367
X8.1425Y4.8422
X8.2357Y2.7908
X8.2993Y1.3987
X8.3925Y4.9422
X8.4223Y2.0448
X8.4857Y2.8908
X8.6088Y3.5368
X8.6723Y2.1448
X8.7952Y1.2988
X8.7952Y0.5527
X8.8588Y3.6367
X8.9817Y2.7908
X9.0452Y1.3987
X9.0452Y0.6527
X9.1683Y2.0448
X9.2317Y2.8908
X9.3547Y4.8422
X9.3547Y3.5368
X9.4183Y2.1448
X9.5412Y1.2988
X9.6047Y4.9422
X9.6047Y3.6367
X9.7278Y2.7908
X9.7278Y0.5527
X9.7912Y1.3987
X9.9142Y2.0448
X9.9778Y2.8908
X9.9778Y0.6527
X10.1007Y4.8422
X10.1007Y3.5368
X10.1642Y2.1448
X10.3507Y4.9422
X10.3507Y3.6367
X10.4737Y2.7908
X10.4737Y0.5527
X10.7237Y2.8908
X10.7237Y0.6527
X10.8468Y4.8422
X10.94Y1.2988
X11.0968Y4.9422
X11.1265Y2.0448
X11.19Y1.3987
X11.2197Y3.5368
X11.3765Y2.1448
X11.4062Y2.7908
X11.4062Y0.5527
X11.4697Y3.6367
X11.5928Y4.8422
X11.6562Y2.8908
X11.6562Y0.6527
X11.8428Y4.9422
X12.6185Y4.8422
X12.6185Y3.5368
X12.6185Y2.7908
X12.6185Y0.5527
X12.8685Y4.9422
X12.8685Y3.6367
X12.8685Y2.8908
X12.8685Y0.6527
X13.3645Y4.8422
X13.3645Y3.5368
X13.3645Y2.7908
X13.3645Y1.2988
X13.3645Y0.5527
X13.6145Y4.9422
X13.6145Y3.6367
X13.6145Y2.8908
X13.6145Y1.3987
X13.6145Y0.6527
X14.1105Y4.8422
X14.1105Y3.5368
X14.1105Y2.7908
X14.1105Y0.5527
X14.3605Y4.9422
X14.3605Y3.6367
X14.3605Y2.8908
X14.3605Y0.6527
X15.1363Y3.5368
X15.1363Y2.7908
X15.1363Y2.0448
X15.1363Y1.2988
X15.3863Y3.6367
X15.3863Y2.8908
X15.3863Y2.1448
X15.3863Y1.3987
X15.5092Y0.5527
X15.7592Y0.6527
X15.8822Y3.5368
X15.8822Y2.7908
X15.8822Y2.0448
X15.8822Y1.2988
X16.1322Y3.6367
X16.1322Y2.8908
X16.1322Y2.1448
X16.1322Y1.3987
X16.6283Y3.5368
X16.6283Y2.7908
X16.6283Y2.0448
X16.6283Y1.2988
X16.6283Y0.5527
X16.8783Y3.6367
X16.8783Y2.8908
X16.8783Y2.1448
X16.8783Y1.3987
X16.8783Y0.6527
X17.3742Y3.5368
X17.3742Y2.4177
X17.3742Y0.9257
X17.6242Y3.6367
X17.6242Y2.5177
X17.6242Y1.0257
T2
G00X14.843Y5.4175
M15
G01X14.843Y5.449
M16
G05
G00X14.843Y5.2706
M15
G01X14.843Y5.3297
M16
G05
G00X15.1835Y5.4175
M15
G01X15.1835Y5.449
M16
G05
G00X15.1835Y5.2706
M15
G01X15.1835Y5.3297
M16
G05
T0
M30
